<svg width="68" height="68" viewBox="0 0 68 68" fill="none" xmlns="http://www.w3.org/2000/svg">
<path d="M67.4439 26.4651L53.7419 18.7V6.58064H55.9355C56.2264 6.58064 56.5053 6.46509 56.711 6.2594C56.9167 6.05372 57.0323 5.77475 57.0323 5.48387V1.09677C57.0323 0.805891 56.9167 0.526922 56.711 0.321237C56.5053 0.115553 56.2264 0 55.9355 0H40.5806C40.2898 0 40.0108 0.115553 39.8051 0.321237C39.5994 0.526922 39.4839 0.805891 39.4839 1.09677V5.48387C39.4839 5.77475 39.5994 6.05372 39.8051 6.2594C40.0108 6.46509 40.2898 6.58064 40.5806 6.58064H42.7742V12.4857L34.5407 7.82C34.3758 7.72656 34.1895 7.67745 34 7.67745C33.8105 7.67745 33.6242 7.72656 33.4593 7.82L0.556064 26.4651C0.387263 26.5608 0.246855 26.6995 0.149167 26.8671C0.0514784 27.0348 5.6867e-06 27.2253 0 27.4193V34C5.62075e-06 34.1918 0.0502938 34.3802 0.145848 34.5464C0.241403 34.7127 0.378883 34.851 0.544576 34.9476C0.710268 35.0441 0.898381 35.0955 1.09015 35.0967C1.28192 35.0979 1.47064 35.0487 1.63748 34.9542L4.09316 33.5613C4.26726 33.7615 4.45966 33.9451 4.66787 34.1097C4.22107 34.5264 3.8673 35.0328 3.62969 35.5956C3.39209 36.1585 3.27601 36.7652 3.28906 37.3761C3.3021 37.9869 3.44398 38.5881 3.70539 39.1403C3.96681 39.6925 4.34188 40.1833 4.80606 40.5806C4.33073 40.987 3.94909 41.4916 3.68741 42.0596C3.42573 42.6276 3.29023 43.2456 3.29023 43.8709C3.29023 44.4963 3.42573 45.1143 3.68741 45.6823C3.94909 46.2503 4.33073 46.7549 4.80606 47.1613C4.33073 47.5677 3.94909 48.0722 3.68741 48.6402C3.42573 49.2082 3.29023 49.8262 3.29023 50.4516C3.29023 51.077 3.42573 51.6949 3.68741 52.2629C3.94909 52.8309 4.33073 53.3355 4.80606 53.7419C4.33073 54.1483 3.94909 54.6529 3.68741 55.2209C3.42573 55.7889 3.29023 56.4068 3.29023 57.0322C3.29023 57.6576 3.42573 58.2756 3.68741 58.8436C3.94909 59.4116 4.33073 59.9161 4.80606 60.3225C4.12947 60.9057 3.6479 61.6822 3.42624 62.5475C3.20459 63.4128 3.2535 64.3252 3.5664 65.1618C3.87929 65.9984 4.44113 66.719 5.17619 67.2265C5.91125 67.734 6.78421 68.0039 7.67742 68H60.3226C61.2158 68.0039 62.0887 67.734 62.8238 67.2265C63.5589 66.719 64.1207 65.9984 64.4336 65.1618C64.7465 64.3252 64.7954 63.4128 64.5738 62.5475C64.3521 61.6822 63.8705 60.9057 63.1939 60.3225C63.6693 59.9161 64.0509 59.4116 64.3126 58.8436C64.5743 58.2756 64.7098 57.6576 64.7098 57.0322C64.7098 56.4068 64.5743 55.7889 64.3126 55.2209C64.0509 54.6529 63.6693 54.1483 63.1939 53.7419C63.6693 53.3355 64.0509 52.8309 64.3126 52.2629C64.5743 51.6949 64.7098 51.077 64.7098 50.4516C64.7098 49.8262 64.5743 49.2082 64.3126 48.6402C64.0509 48.0722 63.6693 47.5677 63.1939 47.1613C63.6693 46.7549 64.0509 46.2503 64.3126 45.6823C64.5743 45.1143 64.7098 44.4963 64.7098 43.8709C64.7098 43.2456 64.5743 42.6276 64.3126 42.0596C64.0509 41.4916 63.6693 40.987 63.1939 40.5806C63.6681 40.1752 64.0491 39.6722 64.3107 39.1059C64.5723 38.5396 64.7085 37.9234 64.7099 37.2996C64.7112 36.6758 64.5777 36.059 64.3185 35.4916C64.0594 34.9242 63.6806 34.4195 63.2082 34.012C63.3983 33.8446 63.5737 33.6611 63.7325 33.4637L66.3647 34.9531C66.5314 35.047 66.7198 35.0957 66.9112 35.0944C67.1025 35.093 67.2902 35.0415 67.4555 34.9452C67.6208 34.8488 67.7581 34.7109 67.8536 34.5451C67.9491 34.3793 67.9996 34.1913 68 34V27.4193C68 27.2253 67.9485 27.0348 67.8508 26.8671C67.7531 26.6995 67.6127 26.5608 67.4439 26.4651ZM41.6774 2.19355H54.8387V4.38709H41.6774V2.19355ZM44.9677 6.58064H51.5484V17.4573L44.9677 13.7283V6.58064ZM51.1305 26.3226H16.8695L24.6116 21.9355H43.3884L45.1103 22.9116L51.1305 26.3226ZM34 16.615L39.5168 19.7419H28.4832L34 16.615ZM2.19355 28.0588L32.9032 10.6563V14.7143L2.19355 32.1179V28.0588ZM5.48387 37.2903C5.48387 36.7085 5.71498 36.1506 6.12635 35.7392C6.53772 35.3279 7.09565 35.0968 7.67742 35.0968H10.9677V39.4838H7.67742C7.09565 39.4838 6.53772 39.2527 6.12635 38.8414C5.71498 38.43 5.48387 37.8721 5.48387 37.2903ZM53.7419 52.6451H38.3871V35.0968H53.7419V52.6451ZM36.1935 46.0645H30.7097V41.6774H36.1935V46.0645ZM30.7097 48.258H36.1935V52.6451H30.7097V48.258ZM36.1935 39.4838H30.7097V35.0968H36.1935V39.4838ZM28.5161 53.7419V65.8064H13.1613V35.0968H28.5161V53.7419ZM5.48387 43.8709C5.48387 43.2892 5.71498 42.7312 6.12635 42.3199C6.53772 41.9085 7.09565 41.6774 7.67742 41.6774H10.9677V46.0645H7.67742C7.09565 46.0645 6.53772 45.8334 6.12635 45.422C5.71498 45.0106 5.48387 44.4527 5.48387 43.8709ZM5.48387 50.4516C5.48387 49.8698 5.71498 49.3119 6.12635 48.9005C6.53772 48.4891 7.09565 48.258 7.67742 48.258H10.9677V52.6451H7.67742C7.09565 52.6451 6.53772 52.414 6.12635 52.0027C5.71498 51.5913 5.48387 51.0333 5.48387 50.4516ZM5.48387 57.0322C5.48387 56.4505 5.71498 55.8925 6.12635 55.4811C6.53772 55.0698 7.09565 54.8387 7.67742 54.8387H10.9677V59.2258H7.67742C7.09565 59.2258 6.53772 58.9947 6.12635 58.5833C5.71498 58.1719 5.48387 57.614 5.48387 57.0322ZM5.48387 63.6129C5.48387 63.0311 5.71498 62.4732 6.12635 62.0618C6.53772 61.6504 7.09565 61.4193 7.67742 61.4193H10.9677V65.8064H7.67742C7.09565 65.8064 6.53772 65.5753 6.12635 65.1639C5.71498 64.7526 5.48387 64.1946 5.48387 63.6129ZM62.5161 63.6129C62.5161 64.1946 62.285 64.7526 61.8737 65.1639C61.4623 65.5753 60.9043 65.8064 60.3226 65.8064H30.7097V61.4193H60.3226C60.9043 61.4193 61.4623 61.6504 61.8737 62.0618C62.285 62.4732 62.5161 63.0311 62.5161 63.6129ZM62.5161 57.0322C62.5161 57.614 62.285 58.1719 61.8737 58.5833C61.4623 58.9947 60.9043 59.2258 60.3226 59.2258H30.7097V54.8387H60.3226C60.9043 54.8387 61.4623 55.0698 61.8737 55.4811C62.285 55.8925 62.5161 56.4505 62.5161 57.0322ZM62.5161 50.4516C62.5161 51.0333 62.285 51.5913 61.8737 52.0027C61.4623 52.414 60.9043 52.6451 60.3226 52.6451H55.9355V48.258H60.3226C60.9043 48.258 61.4623 48.4891 61.8737 48.9005C62.285 49.3119 62.5161 49.8698 62.5161 50.4516ZM62.5161 43.8709C62.5161 44.4527 62.285 45.0106 61.8737 45.422C61.4623 45.8334 60.9043 46.0645 60.3226 46.0645H55.9355V41.6774H60.3226C60.9043 41.6774 61.4623 41.9085 61.8737 42.3199C62.285 42.7312 62.5161 43.2892 62.5161 43.8709ZM62.5161 37.2903C62.5161 37.8721 62.285 38.43 61.8737 38.8414C61.4623 39.2527 60.9043 39.4838 60.3226 39.4838H55.9355V35.0968H60.3226C60.9043 35.0968 61.4623 35.3279 61.8737 35.7392C62.285 36.1506 62.5161 36.7085 62.5161 37.2903ZM60.3226 32.9032H7.67742C7.58858 32.9032 7.50632 32.924 7.41968 32.9295V32.9032C6.9368 32.8971 6.46961 32.7309 6.09148 32.4305L12.999 28.5161H55.0054L61.7583 32.3428C61.3644 32.699 60.8536 32.8984 60.3226 32.9032V32.9032ZM65.8065 32.1179L55.8313 26.4651L35.0968 14.7154V10.6573L65.8065 28.0588V32.1179Z" fill="#C8996B"/>
<path d="M26.3225 48.2578H24.1289V53.7417H26.3225V48.2578Z" fill="#C8996B"/>
</svg>
