<svg width="54" height="54" viewBox="0 0 54 54" fill="none" xmlns="http://www.w3.org/2000/svg">
<path d="M20.5066 38.186H18.7646V42.5409H20.5066V38.186Z" fill="#C8996B"/>
<path d="M48.304 30.8725L48.2448 30.8098L27.7414 9.09436C27.3564 8.68678 26.6325 8.68678 26.2474 9.09436L5.7428 30.8098L5.6836 30.8725H5.59738H4.76425C3.69336 30.9022 2.86051 30.2254 2.47972 29.3676C2.09892 28.5098 2.15571 27.4382 2.89649 26.6638L23.6544 3.71668L48.304 30.8725ZM48.304 30.8725H48.3902M48.304 30.8725H48.3902M48.3902 30.8725H49.2244M48.3902 30.8725H49.2244M49.2244 30.8725C50.3004 30.9041 51.1311 30.2261 51.5095 29.3671C51.8877 28.5085 51.8286 27.4364 51.0937 26.664L30.3355 3.71657C29.4825 2.77342 28.2649 2.23389 26.9944 2.23389C25.724 2.23389 24.5064 2.77335 23.6545 3.71656L49.2244 30.8725ZM31.8552 2.33403L31.8552 2.33406L31.8581 2.33724L52.618 25.2866L52.6182 25.2869C53.3813 26.1277 53.8 27.2178 53.8 28.3545C53.8 30.8764 51.7487 32.928 49.2274 32.928C48.366 32.928 47.745 32.749 47.3434 32.5744C47.1423 32.487 46.9955 32.4003 46.9006 32.337C46.8532 32.3053 46.8188 32.2795 46.797 32.2624C46.7861 32.2538 46.7784 32.2474 46.7738 32.2435L46.7695 32.2398L46.7694 32.2397L46.7693 32.2396L46.7692 32.2396L46.769 32.2394L46.7689 32.2392L46.4348 31.9349V32.3877V50.3167C46.4348 52.237 44.8721 53.8 42.9523 53.8H11.0366C9.11672 53.8 7.55397 52.237 7.55397 50.3167V32.3889V31.7861L7.19541 32.267C7.19545 32.267 7.19531 32.2671 7.19498 32.2675C7.19474 32.2678 7.19441 32.2682 7.19397 32.2688C7.19191 32.2712 7.18759 32.2762 7.18079 32.2834C7.16721 32.2978 7.14365 32.3211 7.1083 32.3504C7.03772 32.4089 6.91933 32.4922 6.73811 32.5775C6.37605 32.7477 5.75782 32.928 4.76143 32.928C2.8331 32.928 1.31989 31.7184 0.620153 30.1482C-0.0794089 28.5783 0.0454107 26.6745 1.36594 25.2905L1.366 25.2906L1.36957 25.2866L22.1295 2.33724L22.1295 2.33727L22.1324 2.33394C24.596 -0.513021 29.3914 -0.509637 31.8552 2.33403ZM21.8333 16.9129L21.7197 16.8845L21.6394 16.9696L16.9441 21.9408L16.6255 22.2781H17.0895H36.8993H37.3632L37.0447 21.9408L32.3507 16.9696L32.2706 16.8848L32.1573 16.9127C32.1187 16.9223 32.0872 16.931 32.06 16.9385C31.9966 16.956 31.9566 16.9671 31.9045 16.9671H22.0843C22.032 16.9671 21.9915 16.9558 21.9275 16.938C21.901 16.9307 21.8704 16.9222 21.8333 16.9129ZM23.9005 14.5742L23.5819 14.9115H24.0459H29.9429H30.4069L30.0883 14.5742L27.1398 11.452L26.9944 11.298L26.849 11.452L23.9005 14.5742ZM14.7707 24.3337H14.6845L14.6253 24.3963L9.98768 29.3074L9.66915 29.6447H10.1331H43.8557H44.3197L44.0011 29.3074L39.3635 24.3963L39.3043 24.3337H39.2181H14.7707ZM9.60903 44.1779V44.3779H9.80902H13.4916H13.6916V44.1779V39.2668V39.0668H13.4916H9.80902H9.60903V39.2668V44.1779ZM15.9467 36.6113H15.7467V36.8113V44.1779V44.3779H15.9467H23.3118H23.5118V44.1779V36.8113V36.6113H23.3118H15.9467ZM25.7669 39.0668H25.5669V39.2668V44.1779V44.3779H25.7669H28.2219H28.4219V44.1779V39.2668V39.0668H28.2219H25.7669ZM28.2219 37.0113H28.4219V36.8113V35.5835C28.4219 35.0161 28.8813 34.5558 29.4495 34.5558H39.2697C39.8379 34.5558 40.2972 35.0161 40.2972 35.5835V36.8113V37.0113H40.4972H44.1798H44.3798V36.8113V31.9002V31.7002H44.1798H9.80902H9.60903V31.9002V36.8113V37.0113H9.80902H13.4916H13.6916V36.8113V35.5835C13.6916 35.0162 14.152 34.5558 14.7191 34.5558H24.5393C25.1065 34.5558 25.5669 35.0162 25.5669 35.5835V36.8113V37.0113H25.7669H28.2219ZM40.4972 39.0668H40.2972V39.2668V44.1779V44.3779H40.4972H44.1798H44.3798V44.1779V39.2668V39.0668H44.1798H40.4972ZM9.80902 46.4334H9.60903V46.6334V50.3167C9.60903 51.1036 10.2497 51.7445 11.0366 51.7445H28.2219H28.4219V51.5445V46.6334V46.4334H28.2219H9.80902ZM30.477 51.5445V51.7445H30.677H38.0421H38.2421V51.5445V36.8113V36.6113H38.0421H30.677H30.477V36.8113V51.5445ZM40.2972 51.5445V51.7445H40.4972H42.9523C43.7405 51.7445 44.3798 51.1035 44.3798 50.3167V46.6334V46.4334H44.1798H40.4972H40.2972V46.6334V51.5445Z" fill="#C8996B" stroke="#FAFAFA" stroke-width="0.4"/>
</svg>
