<svg width="70" height="70" viewBox="0 0 70 70" fill="none" xmlns="http://www.w3.org/2000/svg">
<mask id="path-1-outside-1_456_4827" maskUnits="userSpaceOnUse" x="0" y="0" width="70" height="70" fill="black">
<rect fill="white" width="70" height="70"/>
<path d="M68.0869 34.2384C69.304 33.0564 69.3047 31.1432 68.0869 29.9612L40.5741 3.24126C37.4976 0.253377 32.5004 0.252314 29.4232 3.24166L1.91048 29.9612C0.696505 31.1402 0.696505 33.059 1.91048 34.2384C2.73881 35.0429 3.9186 35.2848 4.97271 34.9912C4.9615 35.1168 4.95288 35.2433 4.95288 35.3717C4.95288 36.9021 5.76904 38.2488 6.99902 39.0294C5.76904 39.8098 4.95288 41.1566 4.95288 42.687C4.95288 44.2173 5.76904 45.564 6.99916 46.3444C5.76904 47.1248 4.95288 48.4715 4.95288 50.0018C4.95288 51.5321 5.76904 52.8789 6.99916 53.6592C5.76904 54.4396 4.95288 55.7863 4.95288 57.3166C4.95288 58.8471 5.76904 60.194 6.99916 60.9744C5.76904 61.7548 4.95288 63.1015 4.95288 64.6318C4.95288 65.7689 5.40637 66.8026 6.14211 67.5806H2.87379C2.47105 67.5806 2.14447 67.8978 2.14447 68.2889C2.14447 68.6801 2.47105 68.9972 2.87379 68.9972H9.39457C9.41344 68.9975 9.43177 69 9.45078 69C9.46965 69 9.48797 68.9975 9.50684 68.9972H25.1349H25.3825H44.8628H44.9509H60.496C60.5149 68.9975 60.5332 69 60.5522 69C60.5711 69 60.5894 68.9975 60.6083 68.9972H67.1235C67.5266 68.9972 67.8528 68.6801 67.8528 68.2889C67.8528 67.8978 67.5266 67.5806 67.1235 67.5806H63.8551C64.5896 66.8026 65.0423 65.7689 65.0423 64.6318C65.0423 63.1015 64.2275 61.7547 62.9996 60.9744C64.2277 60.194 65.0423 58.8471 65.0423 57.3166C65.0423 55.7863 64.2275 54.4395 62.9996 53.6592C64.2275 52.8788 65.0423 51.5321 65.0423 50.0018C65.0423 48.4715 64.2275 47.1247 62.9996 46.3444C64.2275 45.564 65.0423 44.2173 65.0423 42.687C65.0423 41.1566 64.2277 39.8099 62.9999 39.0294C64.2277 38.249 65.0423 36.9022 65.0423 35.3717C65.0423 35.2437 65.0337 35.1176 65.0225 34.9923C66.0759 35.2876 67.2556 35.0458 68.0869 34.2384V34.2384ZM2.94176 33.2367C2.29641 32.6097 2.29641 31.5895 2.94176 30.9627L30.4545 4.2432C32.9619 1.80808 37.0363 1.80861 39.5429 4.2428L67.0556 30.9627C67.7017 31.5901 67.704 32.6064 67.0556 33.2367C66.4302 33.8441 65.3398 33.8441 64.7145 33.2367C37.5586 6.86267 45.0657 14.1533 37.2018 6.51696C35.9887 5.33957 34.0154 5.33399 32.7962 6.51735C29.2461 9.9649 30.8117 8.43995 5.28342 33.2369C4.63766 33.8631 3.5882 33.8639 2.94176 33.2367V33.2367ZM24.4054 45.6361H12.7531C13.4878 44.8581 13.9406 43.8243 13.9406 42.687C13.9406 41.5499 13.4881 40.5163 12.7537 39.7382H24.4053V45.6361H24.4054ZM24.4054 47.0527V52.9509H12.7531C13.4878 52.1729 13.9406 51.1391 13.9406 50.0018C13.9406 48.8645 13.4878 47.8307 12.7531 47.0527H24.4054ZM24.4054 54.3676V60.2658H12.7536C13.4881 59.4878 13.9407 58.454 13.9407 57.3167C13.9407 56.1795 13.4879 55.1456 12.7533 54.3676H24.4054ZM24.4054 61.6826V67.5808H12.7536C13.4881 66.8027 13.9407 65.7691 13.9407 64.6319C13.9407 63.4945 13.4878 62.4606 12.7529 61.6824H24.4054V61.6826ZM45.592 61.6826H57.2441C56.5079 62.4607 56.0542 63.4946 56.0542 64.6321C56.0542 65.7692 56.5077 66.8029 57.2434 67.5809H45.592V61.6826ZM45.592 60.2658V54.3676H57.2438C56.5078 55.1456 56.0542 56.1795 56.0542 57.3167C56.0542 58.454 56.5077 59.4878 57.2434 60.2658H45.592ZM45.592 52.9511V47.0528H57.2438C56.5078 47.8309 56.0542 48.8647 56.0542 50.0019C56.0542 51.1392 56.5078 52.173 57.2438 52.9511H45.592ZM45.592 45.6361V39.7382H57.2431C56.5075 40.5162 56.0542 41.5499 56.0542 42.687C56.0542 43.8243 56.5078 44.8581 57.2438 45.6361H45.592ZM12.7529 38.3216C13.4878 37.5435 13.9407 36.5094 13.9407 35.3718C13.9407 34.2352 13.4885 33.2019 12.7545 32.4241H57.2426C56.5074 33.2019 56.0543 34.2352 56.0543 35.3718C56.0543 36.5095 56.5081 37.5435 57.2442 38.3216C55.6792 38.317 14.1627 38.3215 12.7529 38.3216ZM39.227 10.4874L45.2974 16.3828H24.7005L30.7711 10.4874H39.227ZM32.2299 9.07068L33.8274 7.51916C34.4521 6.91247 35.5472 6.9142 36.1703 7.51876L37.7683 9.07068H32.2299ZM46.7562 17.7995L52.827 23.6953H17.1709L23.2419 17.7995H46.7562ZM54.2857 25.1119L59.8226 30.4892V31.0067H10.1748V30.4896L15.7123 25.1119H54.2857ZM6.41152 35.3717C6.41152 33.7441 7.7747 32.4202 9.45064 32.4202C11.1223 32.4202 12.482 33.7441 12.482 35.3717C12.482 36.9876 11.1409 38.3013 9.48578 38.3201C9.47389 38.32 9.46254 38.3184 9.45064 38.3184C9.43874 38.3184 9.42725 38.32 9.41549 38.3201C7.7561 38.3013 6.41152 36.9876 6.41152 35.3717V35.3717ZM6.41152 42.687C6.41152 41.0711 7.7561 39.7574 9.41549 39.7386C9.42739 39.7387 9.43874 39.7403 9.45064 39.7403C9.46254 39.7403 9.47389 39.7387 9.48578 39.7386C11.1409 39.7574 12.482 41.0711 12.482 42.687C12.482 44.3037 11.1397 45.6177 9.48346 45.6353C9.47238 45.6352 9.46172 45.6337 9.45064 45.6337C9.43956 45.6337 9.42889 45.6352 9.41782 45.6353C7.75733 45.6177 6.41152 44.3036 6.41152 42.687V42.687ZM6.41152 50.0018C6.41152 48.3851 7.75733 47.0712 9.41782 47.0535C9.42889 47.0536 9.43956 47.0551 9.45064 47.0551C9.46172 47.0551 9.47238 47.0536 9.48346 47.0535C11.1397 47.0712 12.482 48.3851 12.482 50.0018C12.482 51.6185 11.1397 52.9325 9.48346 52.9501C9.47238 52.95 9.46172 52.9485 9.45064 52.9485C9.43956 52.9485 9.42889 52.95 9.41782 52.9501C7.75733 52.9326 6.41152 51.6185 6.41152 50.0018ZM6.41152 57.3167C6.41152 55.7 7.75733 54.3861 9.41782 54.3684C9.42889 54.3686 9.43956 54.37 9.45064 54.37C9.46172 54.37 9.47238 54.3686 9.48346 54.3684C11.1397 54.3861 12.482 55.7 12.482 57.3167C12.482 58.9335 11.1397 60.2478 9.48346 60.2654C9.47238 60.2653 9.46172 60.2638 9.45064 60.2638C9.43956 60.2638 9.42889 60.2653 9.41782 60.2654C7.75747 60.2478 6.41152 58.9335 6.41152 57.3167ZM6.41152 64.6319C6.41152 63.0152 7.75733 61.7013 9.41782 61.6836C9.42889 61.6837 9.43956 61.6852 9.45064 61.6852C9.46172 61.6852 9.47238 61.6837 9.48346 61.6836C11.1397 61.7013 12.482 63.0152 12.482 64.6319C12.482 66.2501 11.1372 67.5656 9.47881 67.5808H9.42247C7.75993 67.5656 6.41152 66.2501 6.41152 64.6319ZM25.8642 67.5808V39.7351H44.1333V67.5808H25.8642ZM63.5834 64.6319C63.5834 66.2501 62.2387 67.5656 60.5803 67.5808H60.5239C58.8612 67.5656 57.513 66.2502 57.513 64.6319C57.513 63.0152 58.8588 61.7013 60.5193 61.6836C60.5303 61.6837 60.541 61.6852 60.5521 61.6852C60.5632 61.6852 60.5738 61.6837 60.5849 61.6836C62.2411 61.7013 63.5834 63.0153 63.5834 64.6319V64.6319ZM63.5834 57.3167C63.5834 58.9335 62.2411 60.2478 60.5849 60.2654C60.5738 60.2653 60.5632 60.2638 60.5521 60.2638C60.541 60.2638 60.5303 60.2653 60.5193 60.2654C58.8588 60.2478 57.513 58.9335 57.513 57.3167C57.513 55.7 58.8588 54.3861 60.5193 54.3684C60.5303 54.3686 60.541 54.37 60.5521 54.37C60.5632 54.37 60.5738 54.3686 60.5849 54.3684C62.2411 54.3861 63.5834 55.7 63.5834 57.3167ZM63.5834 50.0018C63.5834 51.6185 62.2411 52.9325 60.5849 52.9501C60.5738 52.95 60.5632 52.9485 60.5521 52.9485C60.541 52.9485 60.5303 52.95 60.5193 52.9501C58.8588 52.9325 57.513 51.6185 57.513 50.0018C57.513 48.3851 58.8588 47.0712 60.5193 47.0535C60.5303 47.0536 60.541 47.0551 60.5521 47.0551C60.5632 47.0551 60.5738 47.0536 60.5849 47.0535C62.2411 47.0712 63.5834 48.3852 63.5834 50.0018ZM63.5834 42.687C63.5834 44.3037 62.2411 45.6177 60.5849 45.6353C60.5738 45.6352 60.5632 45.6337 60.5521 45.6337C60.541 45.6337 60.5303 45.6352 60.5193 45.6353C58.8588 45.6177 57.513 44.3037 57.513 42.687C57.513 41.0711 58.8575 39.7574 60.5169 39.7386C60.5288 39.7387 60.5402 39.7403 60.5521 39.7403C60.564 39.7403 60.5753 39.7387 60.5872 39.7386C62.2424 39.7574 63.5834 41.0711 63.5834 42.687ZM60.5872 38.3201C60.5753 38.32 60.564 38.3184 60.5521 38.3184C60.5402 38.3184 60.5287 38.32 60.5169 38.3201C58.8575 38.3013 57.513 36.9876 57.513 35.3717C57.513 33.7441 58.8761 32.4202 60.5521 32.4202C62.2238 32.4202 63.5834 33.7441 63.5834 35.3717C63.5834 36.9876 62.2424 38.3013 60.5872 38.3201Z"/>
</mask>
<path d="M68.0869 34.2384C69.304 33.0564 69.3047 31.1432 68.0869 29.9612L40.5741 3.24126C37.4976 0.253377 32.5004 0.252314 29.4232 3.24166L1.91048 29.9612C0.696505 31.1402 0.696505 33.059 1.91048 34.2384C2.73881 35.0429 3.9186 35.2848 4.97271 34.9912C4.9615 35.1168 4.95288 35.2433 4.95288 35.3717C4.95288 36.9021 5.76904 38.2488 6.99902 39.0294C5.76904 39.8098 4.95288 41.1566 4.95288 42.687C4.95288 44.2173 5.76904 45.564 6.99916 46.3444C5.76904 47.1248 4.95288 48.4715 4.95288 50.0018C4.95288 51.5321 5.76904 52.8789 6.99916 53.6592C5.76904 54.4396 4.95288 55.7863 4.95288 57.3166C4.95288 58.8471 5.76904 60.194 6.99916 60.9744C5.76904 61.7548 4.95288 63.1015 4.95288 64.6318C4.95288 65.7689 5.40637 66.8026 6.14211 67.5806H2.87379C2.47105 67.5806 2.14447 67.8978 2.14447 68.2889C2.14447 68.6801 2.47105 68.9972 2.87379 68.9972H9.39457C9.41344 68.9975 9.43177 69 9.45078 69C9.46965 69 9.48797 68.9975 9.50684 68.9972H25.1349H25.3825H44.8628H44.9509H60.496C60.5149 68.9975 60.5332 69 60.5522 69C60.5711 69 60.5894 68.9975 60.6083 68.9972H67.1235C67.5266 68.9972 67.8528 68.6801 67.8528 68.2889C67.8528 67.8978 67.5266 67.5806 67.1235 67.5806H63.8551C64.5896 66.8026 65.0423 65.7689 65.0423 64.6318C65.0423 63.1015 64.2275 61.7547 62.9996 60.9744C64.2277 60.194 65.0423 58.8471 65.0423 57.3166C65.0423 55.7863 64.2275 54.4395 62.9996 53.6592C64.2275 52.8788 65.0423 51.5321 65.0423 50.0018C65.0423 48.4715 64.2275 47.1247 62.9996 46.3444C64.2275 45.564 65.0423 44.2173 65.0423 42.687C65.0423 41.1566 64.2277 39.8099 62.9999 39.0294C64.2277 38.249 65.0423 36.9022 65.0423 35.3717C65.0423 35.2437 65.0337 35.1176 65.0225 34.9923C66.0759 35.2876 67.2556 35.0458 68.0869 34.2384V34.2384ZM2.94176 33.2367C2.29641 32.6097 2.29641 31.5895 2.94176 30.9627L30.4545 4.2432C32.9619 1.80808 37.0363 1.80861 39.5429 4.2428L67.0556 30.9627C67.7017 31.5901 67.704 32.6064 67.0556 33.2367C66.4302 33.8441 65.3398 33.8441 64.7145 33.2367C37.5586 6.86267 45.0657 14.1533 37.2018 6.51696C35.9887 5.33957 34.0154 5.33399 32.7962 6.51735C29.2461 9.9649 30.8117 8.43995 5.28342 33.2369C4.63766 33.8631 3.5882 33.8639 2.94176 33.2367V33.2367ZM24.4054 45.6361H12.7531C13.4878 44.8581 13.9406 43.8243 13.9406 42.687C13.9406 41.5499 13.4881 40.5163 12.7537 39.7382H24.4053V45.6361H24.4054ZM24.4054 47.0527V52.9509H12.7531C13.4878 52.1729 13.9406 51.1391 13.9406 50.0018C13.9406 48.8645 13.4878 47.8307 12.7531 47.0527H24.4054ZM24.4054 54.3676V60.2658H12.7536C13.4881 59.4878 13.9407 58.454 13.9407 57.3167C13.9407 56.1795 13.4879 55.1456 12.7533 54.3676H24.4054ZM24.4054 61.6826V67.5808H12.7536C13.4881 66.8027 13.9407 65.7691 13.9407 64.6319C13.9407 63.4945 13.4878 62.4606 12.7529 61.6824H24.4054V61.6826ZM45.592 61.6826H57.2441C56.5079 62.4607 56.0542 63.4946 56.0542 64.6321C56.0542 65.7692 56.5077 66.8029 57.2434 67.5809H45.592V61.6826ZM45.592 60.2658V54.3676H57.2438C56.5078 55.1456 56.0542 56.1795 56.0542 57.3167C56.0542 58.454 56.5077 59.4878 57.2434 60.2658H45.592ZM45.592 52.9511V47.0528H57.2438C56.5078 47.8309 56.0542 48.8647 56.0542 50.0019C56.0542 51.1392 56.5078 52.173 57.2438 52.9511H45.592ZM45.592 45.6361V39.7382H57.2431C56.5075 40.5162 56.0542 41.5499 56.0542 42.687C56.0542 43.8243 56.5078 44.8581 57.2438 45.6361H45.592ZM12.7529 38.3216C13.4878 37.5435 13.9407 36.5094 13.9407 35.3718C13.9407 34.2352 13.4885 33.2019 12.7545 32.4241H57.2426C56.5074 33.2019 56.0543 34.2352 56.0543 35.3718C56.0543 36.5095 56.5081 37.5435 57.2442 38.3216C55.6792 38.317 14.1627 38.3215 12.7529 38.3216ZM39.227 10.4874L45.2974 16.3828H24.7005L30.7711 10.4874H39.227ZM32.2299 9.07068L33.8274 7.51916C34.4521 6.91247 35.5472 6.9142 36.1703 7.51876L37.7683 9.07068H32.2299ZM46.7562 17.7995L52.827 23.6953H17.1709L23.2419 17.7995H46.7562ZM54.2857 25.1119L59.8226 30.4892V31.0067H10.1748V30.4896L15.7123 25.1119H54.2857ZM6.41152 35.3717C6.41152 33.7441 7.7747 32.4202 9.45064 32.4202C11.1223 32.4202 12.482 33.7441 12.482 35.3717C12.482 36.9876 11.1409 38.3013 9.48578 38.3201C9.47389 38.32 9.46254 38.3184 9.45064 38.3184C9.43874 38.3184 9.42725 38.32 9.41549 38.3201C7.7561 38.3013 6.41152 36.9876 6.41152 35.3717V35.3717ZM6.41152 42.687C6.41152 41.0711 7.7561 39.7574 9.41549 39.7386C9.42739 39.7387 9.43874 39.7403 9.45064 39.7403C9.46254 39.7403 9.47389 39.7387 9.48578 39.7386C11.1409 39.7574 12.482 41.0711 12.482 42.687C12.482 44.3037 11.1397 45.6177 9.48346 45.6353C9.47238 45.6352 9.46172 45.6337 9.45064 45.6337C9.43956 45.6337 9.42889 45.6352 9.41782 45.6353C7.75733 45.6177 6.41152 44.3036 6.41152 42.687V42.687ZM6.41152 50.0018C6.41152 48.3851 7.75733 47.0712 9.41782 47.0535C9.42889 47.0536 9.43956 47.0551 9.45064 47.0551C9.46172 47.0551 9.47238 47.0536 9.48346 47.0535C11.1397 47.0712 12.482 48.3851 12.482 50.0018C12.482 51.6185 11.1397 52.9325 9.48346 52.9501C9.47238 52.95 9.46172 52.9485 9.45064 52.9485C9.43956 52.9485 9.42889 52.95 9.41782 52.9501C7.75733 52.9326 6.41152 51.6185 6.41152 50.0018ZM6.41152 57.3167C6.41152 55.7 7.75733 54.3861 9.41782 54.3684C9.42889 54.3686 9.43956 54.37 9.45064 54.37C9.46172 54.37 9.47238 54.3686 9.48346 54.3684C11.1397 54.3861 12.482 55.7 12.482 57.3167C12.482 58.9335 11.1397 60.2478 9.48346 60.2654C9.47238 60.2653 9.46172 60.2638 9.45064 60.2638C9.43956 60.2638 9.42889 60.2653 9.41782 60.2654C7.75747 60.2478 6.41152 58.9335 6.41152 57.3167ZM6.41152 64.6319C6.41152 63.0152 7.75733 61.7013 9.41782 61.6836C9.42889 61.6837 9.43956 61.6852 9.45064 61.6852C9.46172 61.6852 9.47238 61.6837 9.48346 61.6836C11.1397 61.7013 12.482 63.0152 12.482 64.6319C12.482 66.2501 11.1372 67.5656 9.47881 67.5808H9.42247C7.75993 67.5656 6.41152 66.2501 6.41152 64.6319ZM25.8642 67.5808V39.7351H44.1333V67.5808H25.8642ZM63.5834 64.6319C63.5834 66.2501 62.2387 67.5656 60.5803 67.5808H60.5239C58.8612 67.5656 57.513 66.2502 57.513 64.6319C57.513 63.0152 58.8588 61.7013 60.5193 61.6836C60.5303 61.6837 60.541 61.6852 60.5521 61.6852C60.5632 61.6852 60.5738 61.6837 60.5849 61.6836C62.2411 61.7013 63.5834 63.0153 63.5834 64.6319V64.6319ZM63.5834 57.3167C63.5834 58.9335 62.2411 60.2478 60.5849 60.2654C60.5738 60.2653 60.5632 60.2638 60.5521 60.2638C60.541 60.2638 60.5303 60.2653 60.5193 60.2654C58.8588 60.2478 57.513 58.9335 57.513 57.3167C57.513 55.7 58.8588 54.3861 60.5193 54.3684C60.5303 54.3686 60.541 54.37 60.5521 54.37C60.5632 54.37 60.5738 54.3686 60.5849 54.3684C62.2411 54.3861 63.5834 55.7 63.5834 57.3167ZM63.5834 50.0018C63.5834 51.6185 62.2411 52.9325 60.5849 52.9501C60.5738 52.95 60.5632 52.9485 60.5521 52.9485C60.541 52.9485 60.5303 52.95 60.5193 52.9501C58.8588 52.9325 57.513 51.6185 57.513 50.0018C57.513 48.3851 58.8588 47.0712 60.5193 47.0535C60.5303 47.0536 60.541 47.0551 60.5521 47.0551C60.5632 47.0551 60.5738 47.0536 60.5849 47.0535C62.2411 47.0712 63.5834 48.3852 63.5834 50.0018ZM63.5834 42.687C63.5834 44.3037 62.2411 45.6177 60.5849 45.6353C60.5738 45.6352 60.5632 45.6337 60.5521 45.6337C60.541 45.6337 60.5303 45.6352 60.5193 45.6353C58.8588 45.6177 57.513 44.3037 57.513 42.687C57.513 41.0711 58.8575 39.7574 60.5169 39.7386C60.5288 39.7387 60.5402 39.7403 60.5521 39.7403C60.564 39.7403 60.5753 39.7387 60.5872 39.7386C62.2424 39.7574 63.5834 41.0711 63.5834 42.687ZM60.5872 38.3201C60.5753 38.32 60.564 38.3184 60.5521 38.3184C60.5402 38.3184 60.5287 38.32 60.5169 38.3201C58.8575 38.3013 57.513 36.9876 57.513 35.3717C57.513 33.7441 58.8761 32.4202 60.5521 32.4202C62.2238 32.4202 63.5834 33.7441 63.5834 35.3717C63.5834 36.9876 62.2424 38.3013 60.5872 38.3201Z" fill="#C8996B"/>
<path d="M68.0869 34.2384C69.304 33.0564 69.3047 31.1432 68.0869 29.9612L40.5741 3.24126C37.4976 0.253377 32.5004 0.252314 29.4232 3.24166L1.91048 29.9612C0.696505 31.1402 0.696505 33.059 1.91048 34.2384C2.73881 35.0429 3.9186 35.2848 4.97271 34.9912C4.9615 35.1168 4.95288 35.2433 4.95288 35.3717C4.95288 36.9021 5.76904 38.2488 6.99902 39.0294C5.76904 39.8098 4.95288 41.1566 4.95288 42.687C4.95288 44.2173 5.76904 45.564 6.99916 46.3444C5.76904 47.1248 4.95288 48.4715 4.95288 50.0018C4.95288 51.5321 5.76904 52.8789 6.99916 53.6592C5.76904 54.4396 4.95288 55.7863 4.95288 57.3166C4.95288 58.8471 5.76904 60.194 6.99916 60.9744C5.76904 61.7548 4.95288 63.1015 4.95288 64.6318C4.95288 65.7689 5.40637 66.8026 6.14211 67.5806H2.87379C2.47105 67.5806 2.14447 67.8978 2.14447 68.2889C2.14447 68.6801 2.47105 68.9972 2.87379 68.9972H9.39457C9.41344 68.9975 9.43177 69 9.45078 69C9.46965 69 9.48797 68.9975 9.50684 68.9972H25.1349H25.3825H44.8628H44.9509H60.496C60.5149 68.9975 60.5332 69 60.5522 69C60.5711 69 60.5894 68.9975 60.6083 68.9972H67.1235C67.5266 68.9972 67.8528 68.6801 67.8528 68.2889C67.8528 67.8978 67.5266 67.5806 67.1235 67.5806H63.8551C64.5896 66.8026 65.0423 65.7689 65.0423 64.6318C65.0423 63.1015 64.2275 61.7547 62.9996 60.9744C64.2277 60.194 65.0423 58.8471 65.0423 57.3166C65.0423 55.7863 64.2275 54.4395 62.9996 53.6592C64.2275 52.8788 65.0423 51.5321 65.0423 50.0018C65.0423 48.4715 64.2275 47.1247 62.9996 46.3444C64.2275 45.564 65.0423 44.2173 65.0423 42.687C65.0423 41.1566 64.2277 39.8099 62.9999 39.0294C64.2277 38.249 65.0423 36.9022 65.0423 35.3717C65.0423 35.2437 65.0337 35.1176 65.0225 34.9923C66.0759 35.2876 67.2556 35.0458 68.0869 34.2384V34.2384ZM2.94176 33.2367C2.29641 32.6097 2.29641 31.5895 2.94176 30.9627L30.4545 4.2432C32.9619 1.80808 37.0363 1.80861 39.5429 4.2428L67.0556 30.9627C67.7017 31.5901 67.704 32.6064 67.0556 33.2367C66.4302 33.8441 65.3398 33.8441 64.7145 33.2367C37.5586 6.86267 45.0657 14.1533 37.2018 6.51696C35.9887 5.33957 34.0154 5.33399 32.7962 6.51735C29.2461 9.9649 30.8117 8.43995 5.28342 33.2369C4.63766 33.8631 3.5882 33.8639 2.94176 33.2367V33.2367ZM24.4054 45.6361H12.7531C13.4878 44.8581 13.9406 43.8243 13.9406 42.687C13.9406 41.5499 13.4881 40.5163 12.7537 39.7382H24.4053V45.6361H24.4054ZM24.4054 47.0527V52.9509H12.7531C13.4878 52.1729 13.9406 51.1391 13.9406 50.0018C13.9406 48.8645 13.4878 47.8307 12.7531 47.0527H24.4054ZM24.4054 54.3676V60.2658H12.7536C13.4881 59.4878 13.9407 58.454 13.9407 57.3167C13.9407 56.1795 13.4879 55.1456 12.7533 54.3676H24.4054ZM24.4054 61.6826V67.5808H12.7536C13.4881 66.8027 13.9407 65.7691 13.9407 64.6319C13.9407 63.4945 13.4878 62.4606 12.7529 61.6824H24.4054V61.6826ZM45.592 61.6826H57.2441C56.5079 62.4607 56.0542 63.4946 56.0542 64.6321C56.0542 65.7692 56.5077 66.8029 57.2434 67.5809H45.592V61.6826ZM45.592 60.2658V54.3676H57.2438C56.5078 55.1456 56.0542 56.1795 56.0542 57.3167C56.0542 58.454 56.5077 59.4878 57.2434 60.2658H45.592ZM45.592 52.9511V47.0528H57.2438C56.5078 47.8309 56.0542 48.8647 56.0542 50.0019C56.0542 51.1392 56.5078 52.173 57.2438 52.9511H45.592ZM45.592 45.6361V39.7382H57.2431C56.5075 40.5162 56.0542 41.5499 56.0542 42.687C56.0542 43.8243 56.5078 44.8581 57.2438 45.6361H45.592ZM12.7529 38.3216C13.4878 37.5435 13.9407 36.5094 13.9407 35.3718C13.9407 34.2352 13.4885 33.2019 12.7545 32.4241H57.2426C56.5074 33.2019 56.0543 34.2352 56.0543 35.3718C56.0543 36.5095 56.5081 37.5435 57.2442 38.3216C55.6792 38.317 14.1627 38.3215 12.7529 38.3216ZM39.227 10.4874L45.2974 16.3828H24.7005L30.7711 10.4874H39.227ZM32.2299 9.07068L33.8274 7.51916C34.4521 6.91247 35.5472 6.9142 36.1703 7.51876L37.7683 9.07068H32.2299ZM46.7562 17.7995L52.827 23.6953H17.1709L23.2419 17.7995H46.7562ZM54.2857 25.1119L59.8226 30.4892V31.0067H10.1748V30.4896L15.7123 25.1119H54.2857ZM6.41152 35.3717C6.41152 33.7441 7.7747 32.4202 9.45064 32.4202C11.1223 32.4202 12.482 33.7441 12.482 35.3717C12.482 36.9876 11.1409 38.3013 9.48578 38.3201C9.47389 38.32 9.46254 38.3184 9.45064 38.3184C9.43874 38.3184 9.42725 38.32 9.41549 38.3201C7.7561 38.3013 6.41152 36.9876 6.41152 35.3717V35.3717ZM6.41152 42.687C6.41152 41.0711 7.7561 39.7574 9.41549 39.7386C9.42739 39.7387 9.43874 39.7403 9.45064 39.7403C9.46254 39.7403 9.47389 39.7387 9.48578 39.7386C11.1409 39.7574 12.482 41.0711 12.482 42.687C12.482 44.3037 11.1397 45.6177 9.48346 45.6353C9.47238 45.6352 9.46172 45.6337 9.45064 45.6337C9.43956 45.6337 9.42889 45.6352 9.41782 45.6353C7.75733 45.6177 6.41152 44.3036 6.41152 42.687V42.687ZM6.41152 50.0018C6.41152 48.3851 7.75733 47.0712 9.41782 47.0535C9.42889 47.0536 9.43956 47.0551 9.45064 47.0551C9.46172 47.0551 9.47238 47.0536 9.48346 47.0535C11.1397 47.0712 12.482 48.3851 12.482 50.0018C12.482 51.6185 11.1397 52.9325 9.48346 52.9501C9.47238 52.95 9.46172 52.9485 9.45064 52.9485C9.43956 52.9485 9.42889 52.95 9.41782 52.9501C7.75733 52.9326 6.41152 51.6185 6.41152 50.0018ZM6.41152 57.3167C6.41152 55.7 7.75733 54.3861 9.41782 54.3684C9.42889 54.3686 9.43956 54.37 9.45064 54.37C9.46172 54.37 9.47238 54.3686 9.48346 54.3684C11.1397 54.3861 12.482 55.7 12.482 57.3167C12.482 58.9335 11.1397 60.2478 9.48346 60.2654C9.47238 60.2653 9.46172 60.2638 9.45064 60.2638C9.43956 60.2638 9.42889 60.2653 9.41782 60.2654C7.75747 60.2478 6.41152 58.9335 6.41152 57.3167ZM6.41152 64.6319C6.41152 63.0152 7.75733 61.7013 9.41782 61.6836C9.42889 61.6837 9.43956 61.6852 9.45064 61.6852C9.46172 61.6852 9.47238 61.6837 9.48346 61.6836C11.1397 61.7013 12.482 63.0152 12.482 64.6319C12.482 66.2501 11.1372 67.5656 9.47881 67.5808H9.42247C7.75993 67.5656 6.41152 66.2501 6.41152 64.6319ZM25.8642 67.5808V39.7351H44.1333V67.5808H25.8642ZM63.5834 64.6319C63.5834 66.2501 62.2387 67.5656 60.5803 67.5808H60.5239C58.8612 67.5656 57.513 66.2502 57.513 64.6319C57.513 63.0152 58.8588 61.7013 60.5193 61.6836C60.5303 61.6837 60.541 61.6852 60.5521 61.6852C60.5632 61.6852 60.5738 61.6837 60.5849 61.6836C62.2411 61.7013 63.5834 63.0153 63.5834 64.6319V64.6319ZM63.5834 57.3167C63.5834 58.9335 62.2411 60.2478 60.5849 60.2654C60.5738 60.2653 60.5632 60.2638 60.5521 60.2638C60.541 60.2638 60.5303 60.2653 60.5193 60.2654C58.8588 60.2478 57.513 58.9335 57.513 57.3167C57.513 55.7 58.8588 54.3861 60.5193 54.3684C60.5303 54.3686 60.541 54.37 60.5521 54.37C60.5632 54.37 60.5738 54.3686 60.5849 54.3684C62.2411 54.3861 63.5834 55.7 63.5834 57.3167ZM63.5834 50.0018C63.5834 51.6185 62.2411 52.9325 60.5849 52.9501C60.5738 52.95 60.5632 52.9485 60.5521 52.9485C60.541 52.9485 60.5303 52.95 60.5193 52.9501C58.8588 52.9325 57.513 51.6185 57.513 50.0018C57.513 48.3851 58.8588 47.0712 60.5193 47.0535C60.5303 47.0536 60.541 47.0551 60.5521 47.0551C60.5632 47.0551 60.5738 47.0536 60.5849 47.0535C62.2411 47.0712 63.5834 48.3852 63.5834 50.0018ZM63.5834 42.687C63.5834 44.3037 62.2411 45.6177 60.5849 45.6353C60.5738 45.6352 60.5632 45.6337 60.5521 45.6337C60.541 45.6337 60.5303 45.6352 60.5193 45.6353C58.8588 45.6177 57.513 44.3037 57.513 42.687C57.513 41.0711 58.8575 39.7574 60.5169 39.7386C60.5288 39.7387 60.5402 39.7403 60.5521 39.7403C60.564 39.7403 60.5753 39.7387 60.5872 39.7386C62.2424 39.7574 63.5834 41.0711 63.5834 42.687ZM60.5872 38.3201C60.5753 38.32 60.564 38.3184 60.5521 38.3184C60.5402 38.3184 60.5287 38.32 60.5169 38.3201C58.8575 38.3013 57.513 36.9876 57.513 35.3717C57.513 33.7441 58.8761 32.4202 60.5521 32.4202C62.2238 32.4202 63.5834 33.7441 63.5834 35.3717C63.5834 36.9876 62.2424 38.3013 60.5872 38.3201Z" stroke="#C8996B" stroke-width="0.6" mask="url(#path-1-outside-1_456_4827)"/>
<path d="M29.5656 51.3715C28.2779 51.3715 27.223 52.3899 27.223 53.6509C27.223 54.9191 28.2771 55.9445 29.5656 55.9445C30.8612 55.9445 31.9226 54.92 31.9226 53.6509C31.9226 52.3888 30.8602 51.3715 29.5656 51.3715ZM29.5656 54.2279C29.2355 54.2279 28.9817 53.9744 28.9817 53.6509C28.9817 53.345 29.2398 53.0881 29.5656 53.0881C29.9024 53.0881 30.1638 53.3476 30.1638 53.6509C30.1638 53.9649 29.8996 54.2279 29.5656 54.2279Z" fill="#C8996B" stroke="#C8996B" stroke-width="0.3"/>
</svg>
