<svg width="224" height="140" viewBox="0 0 224 140" fill="none" xmlns="http://www.w3.org/2000/svg">
<g clip-path="url(#clip0_903_188)">
<path opacity="0.1" d="M202.4 136.38C202.4 137.7 197.927 138.937 190.123 140H42.5C35.932 140.014 29.4774 138.26 23.7925 134.915L23.7051 134.865C25.948 134.034 29.9967 133.259 35.5071 132.56L35.7542 132.529C38.2252 132.222 40.987 131.93 44.0055 131.654C44.0815 131.654 44.1594 131.642 44.2355 131.632C46.6304 131.416 49.1781 131.213 51.8785 131.024C51.964 131.024 52.0477 131.008 52.1332 131.004C53.1748 130.928 54.238 130.856 55.3227 130.788L55.7409 130.761C63.6387 130.262 72.6161 129.864 82.3519 129.601H82.3633C83.7268 129.563 85.1049 129.528 86.4975 129.499C88.046 129.461 89.6135 129.429 91.2001 129.4C92.4109 129.373 93.6369 129.354 94.8667 129.335H94.8952C100.444 129.25 106.176 129.207 112.038 129.207C126.534 129.207 140.235 129.476 152.375 129.959H152.409C154.276 130.032 156.108 130.113 157.895 130.196L159.415 130.27C161.432 130.368 163.396 130.473 165.308 130.585C187.794 131.885 202.4 133.998 202.4 136.38Z" fill="#333333"/>
<path d="M129.307 128.32C129.301 128.528 129.277 128.736 129.237 128.94C127.914 128.726 126.583 128.533 125.245 128.36C125.245 128.306 125.245 128.25 125.245 128.194C125.258 127.615 125.422 127.049 125.72 126.556C126.112 125.926 126.707 125.531 127.363 125.553C128.018 125.574 128.587 126.005 128.938 126.656C129.204 127.168 129.332 127.742 129.307 128.32V128.32Z" fill="#C8996B"/>
<path d="M129.415 125.018C129.462 123.524 128.589 122.283 127.467 122.247C126.344 122.211 125.396 123.393 125.35 124.888C125.303 126.382 126.176 127.623 127.298 127.659C128.421 127.695 129.369 126.513 129.415 125.018Z" fill="#C8996B"/>
<path d="M129.52 121.71C129.566 120.215 128.694 118.975 127.571 118.938C126.448 118.902 125.501 120.085 125.454 121.579C125.408 123.074 126.28 124.314 127.403 124.35C128.526 124.387 129.473 123.204 129.52 121.71Z" fill="#C8996B"/>
<path d="M129.621 118.401C129.668 116.907 128.795 115.666 127.673 115.63C126.55 115.594 125.602 116.776 125.556 118.271C125.509 119.765 126.382 121.006 127.505 121.042C128.627 121.078 129.575 119.896 129.621 118.401Z" fill="#C8996B"/>
<path d="M129.723 115.093C129.769 113.598 128.897 112.357 127.774 112.321C126.652 112.285 125.704 113.467 125.657 114.962C125.611 116.456 126.483 117.697 127.606 117.733C128.729 117.769 129.677 116.587 129.723 115.093Z" fill="#C8996B"/>
<path d="M120.772 92.137C120.504 91.7686 120.263 91.3811 120.05 90.9776L125.421 90.2568L119.639 90.1157C119.123 88.8714 118.862 87.5331 118.872 86.1828C118.883 84.8325 119.164 83.4984 119.698 82.2622L127.324 86.6006L120.339 81.0274C121.043 79.8687 121.976 78.8701 123.077 78.0941C124.178 77.318 125.425 76.7812 126.74 76.5171C128.054 76.253 129.408 76.2673 130.717 76.5591C132.026 76.8509 133.262 77.4139 134.347 78.2131C135.432 79.0122 136.344 80.0302 137.025 81.2036C137.705 82.3769 138.141 83.6804 138.304 85.0326C138.467 86.3848 138.354 87.7566 137.972 89.0625C137.591 90.3683 136.948 91.5801 136.085 92.6221C136.501 93.1952 136.855 93.8127 137.14 94.4637L130.09 97.9035L137.566 95.6174C138.036 97.1967 138.112 98.8704 137.786 100.487C137.46 102.104 136.743 103.612 135.699 104.876C136.784 106.373 137.433 108.15 137.572 110.005C137.71 111.859 137.333 113.716 136.482 115.363C135.632 117.009 134.343 118.379 132.762 119.316C131.182 120.253 129.374 120.718 127.546 120.66C125.717 120.601 123.942 120.021 122.423 118.985C120.903 117.948 119.702 116.499 118.955 114.801C118.208 113.103 117.946 111.226 118.199 109.384C118.452 107.542 119.21 105.81 120.386 104.385C119.09 102.596 118.422 100.415 118.491 98.1941C118.56 95.9728 119.361 93.8395 120.766 92.137H120.772Z" fill="#FAFAFA"/>
<path opacity="0.1" d="M137.98 98.819C137.913 101.042 137.11 103.176 135.699 104.875C136.784 106.372 137.433 108.15 137.572 110.004C137.71 111.859 137.333 113.716 136.482 115.362C135.632 117.009 134.343 118.379 132.762 119.315C131.182 120.252 129.374 120.718 127.546 120.659C125.717 120.601 123.942 120.02 122.423 118.984C120.903 117.948 119.702 116.498 118.955 114.8C118.208 113.103 117.946 111.225 118.199 109.383C118.452 107.541 119.21 105.809 120.386 104.384C119.137 102.659 138.014 97.7078 137.98 98.819Z" fill="#C8996B"/>
<path d="M100.415 128.32C100.409 128.528 100.386 128.736 100.345 128.94C99.0222 128.726 97.6917 128.533 96.3535 128.36C96.3535 128.306 96.3535 128.25 96.3535 128.194C96.3659 127.615 96.5299 127.049 96.8287 126.556C97.2203 125.926 97.8152 125.531 98.471 125.553C99.1268 125.574 99.6951 126.005 100.047 126.656C100.313 127.168 100.44 127.742 100.415 128.32V128.32Z" fill="#C8996B"/>
<path d="M100.522 125.018C100.568 123.524 99.6958 122.283 98.5731 122.247C97.4504 122.211 96.5026 123.393 96.4562 124.888C96.4097 126.382 97.2822 127.623 98.4049 127.659C99.5276 127.695 100.475 126.513 100.522 125.018Z" fill="#C8996B"/>
<path d="M100.626 121.711C100.673 120.216 99.8003 118.975 98.6776 118.939C97.5549 118.903 96.6071 120.086 96.5607 121.58C96.5142 123.075 97.3867 124.315 98.5094 124.351C99.6321 124.388 100.58 123.205 100.626 121.711Z" fill="#C8996B"/>
<path d="M100.728 118.402C100.774 116.908 99.9019 115.667 98.7792 115.631C97.6565 115.595 96.7087 116.777 96.6622 118.272C96.6158 119.766 97.4883 121.007 98.611 121.043C99.7337 121.079 100.681 119.897 100.728 118.402Z" fill="#C8996B"/>
<path d="M100.829 115.094C100.876 113.599 100.003 112.358 98.8807 112.322C97.758 112.286 96.8103 113.468 96.7638 114.963C96.7173 116.457 97.5898 117.698 98.7125 117.734C99.8352 117.77 100.783 116.588 100.829 115.094Z" fill="#C8996B"/>
<path d="M91.8805 92.137C91.6129 91.7686 91.3715 91.3811 91.1582 90.9776L96.5299 90.2568L90.7477 90.1157C90.2317 88.8714 89.9708 87.5331 89.9809 86.1828C89.991 84.8325 90.272 83.4984 90.8066 82.2622L98.4325 86.6006L91.4472 81.0274C92.1518 79.8687 93.084 78.8701 94.1853 78.0941C95.2866 77.318 96.5335 76.7812 97.8481 76.5171C99.1627 76.253 100.517 76.2673 101.826 76.5591C103.134 76.8509 104.37 77.4139 105.455 78.2131C106.541 79.0122 107.452 80.0302 108.133 81.2036C108.814 82.3769 109.249 83.6804 109.412 85.0326C109.576 86.3848 109.463 87.7566 109.081 89.0625C108.699 90.3683 108.056 91.5801 107.193 92.6221C107.61 93.1952 107.963 93.8127 108.248 94.4637L101.198 97.9035L108.674 95.6174C109.145 97.1967 109.221 98.8704 108.895 100.487C108.569 102.104 107.851 103.612 106.807 104.876C107.893 106.373 108.542 108.15 108.68 110.005C108.819 111.859 108.441 113.716 107.591 115.363C106.74 117.009 105.451 118.379 103.871 119.316C102.29 120.253 100.482 120.718 98.6539 120.66C96.8255 120.601 95.0501 120.021 93.5309 118.985C92.0117 117.948 90.81 116.499 90.0632 114.801C89.3163 113.103 89.0545 111.226 89.3076 109.384C89.5608 107.542 90.3187 105.81 91.4947 104.385C90.198 102.596 89.5305 100.415 89.5994 98.1941C89.6684 95.9728 90.4698 93.8395 91.8748 92.137H91.8805Z" fill="#FAFAFA"/>
<path opacity="0.1" d="M109.088 98.819C109.022 101.042 108.218 103.176 106.807 104.875C107.893 106.372 108.542 108.15 108.68 110.004C108.819 111.859 108.441 113.716 107.591 115.362C106.74 117.009 105.451 118.379 103.871 119.315C102.29 120.252 100.482 120.718 98.6539 120.659C96.8255 120.601 95.0501 120.02 93.5309 118.984C92.0117 117.948 90.81 116.498 90.0632 114.8C89.3163 113.103 89.0545 111.225 89.3076 109.383C89.5608 107.541 90.3187 105.809 91.4947 104.384C90.2459 102.659 109.123 97.7078 109.088 98.819Z" fill="#C8996B"/>
<path d="M179.335 130.434C179.321 130.828 179.274 131.221 179.196 131.608C176.649 131.195 174.084 130.825 171.5 130.499C171.5 130.395 171.5 130.289 171.5 130.18C171.524 129.064 171.84 127.975 172.416 127.025C173.176 125.813 174.317 125.054 175.577 125.092C176.837 125.131 177.934 125.964 178.618 127.218C179.134 128.206 179.382 129.316 179.335 130.434V130.434Z" fill="#C8996B"/>
<path d="M179.542 124.072C179.631 121.194 177.951 118.804 175.788 118.735C173.626 118.665 171.8 120.942 171.711 123.82C171.621 126.698 173.302 129.088 175.464 129.157C177.627 129.227 179.452 126.95 179.542 124.072Z" fill="#C8996B"/>
<path d="M179.739 117.703C179.829 114.825 178.148 112.435 175.986 112.366C173.823 112.296 171.998 114.573 171.908 117.451C171.819 120.329 173.499 122.718 175.662 122.788C177.824 122.857 179.65 120.581 179.739 117.703Z" fill="#C8996B"/>
<path d="M179.938 111.332C180.028 108.454 178.347 106.065 176.185 105.996C174.022 105.926 172.197 108.203 172.107 111.081C172.018 113.959 173.698 116.348 175.861 116.418C178.023 116.487 179.849 114.21 179.938 111.332Z" fill="#C8996B"/>
<path d="M179.914 104.674C179.999 101.794 178.314 99.4064 176.15 99.3404C173.986 99.2745 172.164 101.555 172.079 104.435C171.994 107.314 173.679 109.702 175.842 109.768C178.006 109.834 179.829 107.553 179.914 104.674Z" fill="#C8996B"/>
<path d="M162.903 60.777C162.39 60.0676 161.926 59.3231 161.513 58.5489L171.853 57.1614L160.724 56.8889C159.73 54.4936 159.227 51.9173 159.246 49.3176C159.265 46.7179 159.806 44.1495 160.835 41.7694L175.518 50.1195L162.072 39.3906C163.432 37.1652 165.227 35.2483 167.348 33.7594C169.468 32.2706 171.867 31.2416 174.395 30.7366C176.924 30.2317 179.528 30.2616 182.044 30.8245C184.561 31.3874 186.936 32.4712 189.023 34.0084C191.109 35.5456 192.862 37.5033 194.172 39.7593C195.482 42.0154 196.32 44.5215 196.636 47.1216C196.951 49.7216 196.736 52.3598 196.005 54.8717C195.273 57.3837 194.041 59.7155 192.384 61.722C193.185 62.8263 193.866 64.0151 194.416 65.268L180.842 71.8944L195.233 67.4884C196.14 70.5251 196.288 73.7438 195.663 76.8532C195.038 79.9625 193.66 82.8643 191.654 85.2959C193.743 88.1781 194.992 91.5999 195.259 95.1698C195.525 98.7398 194.798 102.314 193.16 105.484C191.523 108.653 189.041 111.29 185.999 113.094C182.956 114.897 179.476 115.793 175.956 115.681C172.437 115.568 169.019 114.45 166.094 112.456C163.17 110.461 160.856 107.67 159.419 104.402C157.981 101.134 157.476 97.5203 157.964 93.9744C158.451 90.4286 159.909 87.0936 162.173 84.3509C159.678 80.9066 158.393 76.71 158.526 72.4346C158.658 68.1592 160.2 64.053 162.903 60.7751V60.777Z" fill="#FAFAFA"/>
<path opacity="0.1" d="M196.034 73.6397C195.909 77.916 194.369 82.0244 191.662 85.3001C193.751 88.1823 195 91.604 195.266 95.174C195.533 98.744 194.806 102.318 193.168 105.488C191.531 108.657 189.049 111.295 186.006 113.098C182.964 114.901 179.484 115.798 175.964 115.685C172.444 115.572 169.027 114.454 166.102 112.46C163.178 110.465 160.864 107.675 159.426 104.406C157.989 101.138 157.484 97.5245 157.971 93.9786C158.458 90.4328 159.917 87.0978 162.181 84.3551C159.759 81.0294 196.1 71.5005 196.034 73.6397Z" fill="#FAFAFA"/>
<path d="M29.998 130.774L31.992 130.768H34.8032L38.3577 72.0645L73.5583 12.3461L72.0282 10.6764V6.44824L33.9593 70.6809L29.998 130.774Z" fill="#F1C0C0"/>
<path opacity="0.1" d="M32.2051 130.769H34.8035L38.3579 72.0648L73.5586 12.3464L72.0284 10.6768L35.7196 71.1701L32.2051 130.769Z" fill="#5BAA00"/>
<path d="M24.123 131.264L115.332 138.36L115.41 138.365L203.681 132.846L203.747 132.843V129.053L106.484 127.238L25.3376 127.159H24.7446L24.68 127.584L24.123 131.264Z" fill="#F1C0C0"/>
<path opacity="0.1" d="M24.123 131.264L115.332 138.36L115.41 138.365L203.681 132.846L203.747 132.773V129.132H203.669L115.332 132.131L25.3376 127.159H25.3243L25.1647 127.265L24.68 127.584L24.123 131.264Z" fill="#5BAA00"/>
<path opacity="0.1" d="M24.123 131.264L115.332 138.36V132.132L25.1647 127.266L24.68 127.584L24.123 131.264Z" fill="#5BAA00"/>
<path d="M72.0166 10.5977L112.228 54.4758L110.985 131.658L114.4 132.077L114.457 132.085H117.873L118.282 57.79L193.577 83.3601L194.847 128.889L197.596 129.202L198.527 129.308L196.372 80.2025L117.66 52.1086L74.5009 6.49316H72.0166V10.5977Z" fill="#F1C0C0"/>
<path opacity="0.1" d="M117.973 56.3691L118.282 57.7895L193.578 83.3596L194.848 128.888L197.597 129.201L195.441 82.4127L117.973 56.3691Z" fill="#5BAA00"/>
<path opacity="0.1" d="M72.0166 10.5977L112.228 54.4758L110.985 131.658L114.4 132.077L115.332 51.9501L72.0166 6.49316V10.5977Z" fill="#5BAA00"/>
<path d="M118.118 87.3448L145.735 92.8735L145.744 92.8755L194.113 102.563L196.328 101.66L196.32 101.502L196.176 98.3617L118.147 82.332L118.118 87.3448Z" fill="#F1C0C0"/>
<path opacity="0.1" d="M145.744 92.875L194.113 102.562L196.328 101.66L196.32 101.501L145.744 92.875Z" fill="#5BAA00"/>
<path d="M147.594 67.7441L148.341 109.551L148.727 130.999L152.127 130.883L154.267 130.81L153.602 68.349L152.127 67.8504L151.804 67.7441H147.594Z" fill="#F1C0C0"/>
<path opacity="0.1" d="M147.624 67.7344V67.744L148.341 109.551L148.726 130.999L152.127 130.883V67.7344H147.624Z" fill="#5BAA00"/>
<path d="M94.328 78.4203C94.5275 78.5305 94.7182 78.6565 94.8983 78.7971C95.1112 78.9866 95.3025 79.1999 95.4685 79.4329C96.2839 80.5054 97.0366 81.7518 96.9568 83.1045C96.9585 83.3013 96.922 83.4965 96.8492 83.6789C96.7765 83.8613 96.669 84.0273 96.5329 84.1673C96.1965 84.4591 95.7137 84.4727 95.2727 84.4727C94.7937 84.4727 94.29 84.4727 93.8756 84.2215C93.4613 83.9702 93.1153 83.4813 92.6249 83.4929C92.5557 83.5046 92.4851 83.5046 92.4158 83.4929C92.2467 83.4369 92.2125 83.2108 92.1022 83.0678C91.9121 82.8108 91.5111 82.8745 91.2126 82.9866C90.9142 83.0987 90.5835 83.2668 90.2889 83.1374C90.1178 83.0456 89.978 82.9035 89.8878 82.7296C89.1826 81.5701 89.0324 80.1768 88.8994 78.8299C88.8177 78.0106 88.1942 75.2163 89.9144 75.852C90.6747 76.1303 91.3856 76.6868 92.0775 77.0946L94.328 78.4203Z" fill="#5BAA00"/>
<path d="M92.6291 78.697C92.7828 78.8094 92.969 78.8663 93.1581 78.8586C93.3472 78.8509 93.5284 78.779 93.6727 78.6545C93.9557 78.3945 94.1361 78.0387 94.1802 77.6535C94.3703 77.5936 94.4672 77.8468 94.5888 78.0014C94.8017 78.2642 95.2351 78.2603 95.429 78.5405C95.5639 78.7338 95.5335 79.0024 95.6286 79.2207C95.7521 79.5029 96.0581 79.6497 96.2672 79.8778C96.4647 80.1269 96.6073 80.4162 96.6854 80.7261L96.9971 81.6769C97.1463 82.0723 97.2422 82.4863 97.2823 82.9078C97.3019 83.1186 97.2801 83.3311 97.2181 83.5332C97.1561 83.7353 97.0551 83.9227 96.9211 84.0847C96.5029 84.5427 95.8167 84.591 95.2104 84.5775C95.0079 84.5819 94.8058 84.5578 94.6097 84.506C94.0718 84.3359 93.7278 83.7852 93.5852 83.2306C93.4427 82.676 93.4579 82.0943 93.3742 81.5262C93.2839 80.9681 93.1242 80.4239 92.899 79.9068C92.7318 79.5048 92.2718 78.9058 92.2794 78.4787C92.4162 78.4787 92.5151 78.6062 92.6291 78.697Z" fill="#5BAA00"/>
<path d="M93.3116 76.739C93.2227 76.4646 93.1709 76.1792 93.1576 75.8906C93.1576 75.3109 93.418 74.7659 93.6804 74.248L91.5078 74.5476C91.2454 74.5843 90.9527 74.6384 90.8045 74.8606C90.7482 74.9708 90.7188 75.093 90.7188 75.2172C90.7188 75.3413 90.7482 75.4636 90.8045 75.5737C90.9134 75.7942 91 76.0253 91.063 76.2636C91.0679 76.4721 91.0914 76.6797 91.1333 76.8839C91.2009 77.0339 91.2957 77.1696 91.4127 77.2839C92.0343 77.9835 92.5 78.8086 92.9638 79.626C92.9505 79.6029 94.2734 78.5613 94.2202 78.2212C94.1898 78.0279 93.8077 77.796 93.6861 77.6105C93.518 77.3412 93.3917 77.0473 93.3116 76.739V76.739Z" fill="#BE6F72"/>
<path d="M111.939 69.1895V71.0929L79.8782 77.4507L78.215 78.4749H72.4766V77.4024L103.976 69.6648L111.939 69.1895Z" fill="#F1C0C0"/>
<path opacity="0.1" d="M111.939 71.0928L79.8782 77.4505L78.215 78.4747H72.4766L104.21 71.5701L111.939 71.0928Z" fill="#5BAA00"/>
<path d="M86.1989 123.224C85.8417 122.784 85.3486 122.48 84.7998 122.362C84.2511 122.243 83.679 122.317 83.1767 122.571C83.0692 122.622 82.9743 122.698 82.8992 122.791C82.7091 123.062 82.8307 123.435 82.8478 123.769C82.8916 124.585 82.2529 125.247 81.6788 125.818C81.3709 126.123 81.0573 126.449 80.9185 126.865C80.7798 127.28 80.8824 127.808 81.255 128.024C81.4176 128.107 81.5945 128.157 81.7758 128.171C82.3834 128.292 83.0063 128.309 83.6196 128.223C84.2259 128.106 84.8208 127.756 85.0832 127.188C85.1338 127.034 85.2175 126.893 85.3284 126.776C85.6629 126.507 86.1761 126.822 86.5563 126.631C86.8699 126.473 86.8832 126.223 86.887 125.895C86.8984 124.987 86.7653 123.959 86.1989 123.224Z" fill="#333333"/>
<path d="M90.7605 123.189C90.9943 123.816 91.0266 124.498 91.057 125.166C91.0741 125.553 91.0855 125.966 90.8802 126.293C90.6749 126.62 90.2739 126.791 89.8899 126.873C89.0973 127.039 88.1792 126.882 87.6679 126.243C87.2763 125.754 87.1946 125.083 87.2668 124.449C87.3276 123.93 87.4569 123.321 87.09 122.952C86.995 122.853 86.8715 122.784 86.784 122.677C86.5939 122.442 86.6244 122.086 86.727 121.796C86.8607 121.519 86.9609 121.226 87.0254 120.925C87.0406 120.782 89.5991 121.025 89.8348 121.143C90.156 121.303 90.1066 121.572 90.2035 121.897C90.3385 122.349 90.597 122.757 90.7605 123.189Z" fill="#333333"/>
<path d="M91.2297 95.4284C91.7315 95.7588 91.9254 96.4081 92.0033 97.0111C92.2181 98.6633 91.8418 100.333 91.8132 102.001C91.7866 104.337 92.4519 106.716 91.8836 108.979C91.5433 110.331 91.8323 111.877 91.5129 113.244C91.4179 113.649 91.243 114.032 91.1518 114.438C90.9617 115.317 91.1613 116.237 91.4293 117.097C91.5149 117.329 91.5692 117.571 91.5909 117.818C91.578 118.197 91.4832 118.569 91.3133 118.908L90.1729 121.65C90.0455 121.957 89.5437 122.007 89.2225 122.048C88.618 122.121 87.9433 122.173 87.4624 121.793C86.9815 121.412 86.8655 120.774 86.7914 120.179C86.6492 119.037 86.5857 117.885 86.6013 116.734C86.6222 116.433 86.5959 116.131 86.5234 115.839C86.4188 115.508 86.1888 115.222 86.1261 114.873C86.0463 114.42 86.2725 113.976 86.3561 113.52C86.4135 113.103 86.407 112.68 86.3371 112.266C86.263 111.647 86.1774 111.029 86.0805 110.415C85.9436 109.555 86.1394 108.706 86.2706 107.844C86.3941 107.035 86.2363 106.21 86.0805 105.406C86.094 106.058 86.0139 106.709 85.8429 107.338C85.7421 107.645 85.5977 107.939 85.5102 108.252C85.1206 109.657 85.9512 111.131 85.8334 112.587C85.7783 113.267 85.5159 113.939 85.5901 114.61C85.6414 115.101 85.8657 115.551 86.0197 116.019C86.1736 116.486 86.2535 117.022 86.0197 117.458C85.4019 118.645 85.8638 120.258 86.4169 121.476C86.5292 121.692 86.627 121.915 86.7096 122.144C86.8731 122.693 86.7363 123.283 86.78 123.855C86.6208 123.881 86.4577 123.87 86.3033 123.823C86.1488 123.776 86.0069 123.694 85.8885 123.582C85.8049 123.493 85.7364 123.389 85.6547 123.296C85.4263 123.075 85.156 122.903 84.8602 122.792C84.6865 122.693 84.4886 122.647 84.2899 122.659C84.0811 122.718 83.8931 122.836 83.7482 123.001C83.5602 123.169 83.3608 123.323 83.1514 123.462C83.0622 123.532 82.9579 123.579 82.8472 123.6C82.7916 123.608 82.7347 123.599 82.6845 123.573C82.6343 123.547 82.5935 123.506 82.5678 123.455C82.556 123.422 82.5489 123.389 82.5469 123.354C82.4763 122.771 82.4389 122.184 82.4348 121.596C82.4348 120.585 81.2449 119.889 81.0947 118.89C80.975 118.084 81.1974 117.263 81.1232 116.451C81.0871 116.034 80.9731 115.624 80.9807 115.207C80.9807 114.936 81.0415 114.672 81.0624 114.403C81.0798 114.105 81.0754 113.806 81.0491 113.508L80.9902 112.575C80.9332 111.653 80.8704 110.712 80.5131 109.87C80.0893 108.886 79.8384 107.834 79.7718 106.762C79.7338 106.086 79.7585 105.409 79.6824 104.731C79.614 104.119 79.4619 103.51 79.5057 102.895C79.5418 102.42 79.6957 101.96 79.7319 101.485C79.806 100.571 79.4638 99.6817 79.1958 98.8063C78.9278 97.9309 78.7301 96.9608 79.0818 96.1163C79.132 95.9777 79.2157 95.8542 79.3251 95.7569C79.4599 95.6662 79.6134 95.608 79.7737 95.5869C83.0349 94.8904 86.3777 94.6737 89.6996 94.9434C90.2411 94.9746 90.7667 95.1412 91.2297 95.4284Z" fill="#5BAA00"/>
<path d="M80.4396 74.9035C82.1213 74.9035 83.4846 73.5174 83.4846 71.8077C83.4846 70.0979 82.1213 68.7119 80.4396 68.7119C78.7578 68.7119 77.3945 70.0979 77.3945 71.8077C77.3945 73.5174 78.7578 74.9035 80.4396 74.9035Z" fill="#BE6F72"/>
<path d="M79.8505 75.6746C79.8942 75.8515 79.8942 76.0368 79.8505 76.2137C79.8026 76.3374 79.7352 76.4523 79.6509 76.5538C79.3561 76.9404 79.0299 77.3011 78.6758 77.6321C78.8562 78.0418 79.181 78.3679 79.5863 78.5462C79.9886 78.7203 80.4106 78.843 80.8427 78.9114C81.0583 78.9691 81.2828 78.9848 81.5042 78.9578C81.7082 78.9057 81.9013 78.8166 82.0744 78.695L83.7661 77.665C84.0213 77.5244 84.2577 77.351 84.4694 77.149C84.7796 76.8248 84.9552 76.3916 84.9598 75.9393C84.9677 75.8583 84.946 75.7772 84.8989 75.7113C84.8341 75.6539 84.7528 75.6193 84.6671 75.6127C84.0721 75.4794 83.6026 74.9885 83.3365 74.432C83.0959 73.8615 82.9403 73.2577 82.8746 72.6406L81.0708 73.6068C80.8028 73.7518 80.5366 73.8967 80.2591 74.0223C80.0824 74.1035 79.725 74.1711 79.5996 74.3354C79.3601 74.6388 79.7877 75.3093 79.8505 75.6746Z" fill="#BE6F72"/>
<path d="M78.6864 77.07C78.4295 77.2841 78.229 77.5597 78.1028 77.872C77.985 78.2585 78.1028 78.6662 78.2093 79.0489C78.7081 80.6797 79.0893 82.3454 79.3497 84.0326C79.5094 85.1921 79.5683 86.369 79.6463 87.542C79.8059 89.9343 80.0378 93.749 80.3476 96.1259C81.4881 96.1781 82.6001 95.8399 83.731 95.7162C85.8447 95.4882 88.0211 96.0099 90.0911 95.523C89.5893 93.5074 89.0875 90.0657 88.5857 88.0521C88.3636 87.2588 88.2097 86.4473 88.1257 85.6269C88.0819 85.0375 88.1086 84.4462 88.1162 83.8529C88.1333 82.6934 88.0705 81.534 88.0078 80.3745C87.9356 79.0218 87.8633 77.6691 87.5478 76.3454C87.5258 76.1767 87.4481 76.0206 87.3273 75.9028C87.1372 75.7618 86.8901 75.812 86.664 75.8429C85.9714 75.9324 85.2704 75.7635 84.6909 75.3675C84.44 75.1936 84.1036 74.981 83.8698 75.1743C83.77 75.2909 83.7042 75.4334 83.6797 75.5859C83.5763 75.8593 83.4166 76.1071 83.2114 76.3127C83.0062 76.5183 82.7602 76.677 82.4898 76.7782C81.9482 76.9777 81.3809 77.0961 80.8057 77.1299C80.6297 77.1683 80.4462 77.1473 80.283 77.07C80.0131 76.9019 79.9941 76.297 79.6539 76.2565C79.3554 76.2217 78.8878 76.8748 78.6864 77.07Z" fill="#5BAA00"/>
<path d="M83.184 81.7889C82.4826 81.1067 82.1746 80.1173 81.6633 79.2767C81.3152 78.7114 80.8703 78.214 80.3499 77.808C80.0882 77.6323 79.8483 77.4254 79.6352 77.1916C79.4546 76.9655 79.3178 76.664 79.044 76.577C78.9309 76.552 78.8135 76.5553 78.702 76.5866C78.5904 76.6179 78.488 76.6763 78.4035 76.7568C78.2359 76.9191 78.0773 77.0907 77.9283 77.2708C77.1224 78.1191 75.7063 78.237 75.0676 79.2187C74.8953 79.4268 74.7782 79.6763 74.7274 79.9434C74.5435 81.3722 74.9069 82.8182 75.7424 83.9822C75.9042 84.252 76.1526 84.4568 76.4457 84.5619C76.4059 84.9222 76.4529 85.287 76.5825 85.6248C76.9345 86.8478 77.3669 88.0454 77.877 89.2095C77.755 89.6648 77.6698 90.1295 77.6223 90.5989C77.4892 91.7796 77.6128 92.9777 77.4873 94.1604C77.3847 95.1266 77.1071 96.0677 77.0976 97.0359C77.0976 97.1905 77.1109 97.374 77.2421 97.4533C77.3119 97.4897 77.39 97.5064 77.4683 97.5016L79.8063 97.5731C81.1634 97.6137 82.5339 97.6543 83.8701 97.3992C84.0481 97.3724 84.2207 97.3169 84.3814 97.2349C84.8338 96.9779 84.984 96.3982 85.0562 95.8822C85.1506 95.2129 85.1881 94.5366 85.1684 93.8608C85.4516 94.771 85.788 95.7121 86.6434 96.1064C87.0958 96.3151 87.6128 96.2996 88.1089 96.2861C89.1782 96.2377 90.2438 96.126 91.3003 95.9518C91.3654 95.96 91.4315 95.9526 91.4933 95.9302C91.5551 95.9077 91.6109 95.8709 91.6561 95.8226C91.7014 95.7743 91.7349 95.716 91.754 95.6521C91.7731 95.5883 91.7772 95.5208 91.766 95.4551L91.7774 94.4C91.8002 92.2569 91.2775 90.2085 91.0741 88.0751C91.0095 87.4026 91.0152 86.7224 90.8536 86.0634C90.7871 85.7871 90.6902 85.5165 90.6312 85.2383C90.5805 84.9658 90.5487 84.6901 90.5362 84.4131L90.3879 82.2874C90.3176 81.3038 90.2169 80.355 90.1427 79.3733C90.102 78.4174 89.9657 77.4682 89.736 76.5403C89.5706 75.9606 89.2265 75.3036 88.6316 75.2321C88.3142 75.1953 88.0062 75.3364 87.704 75.435C86.9612 75.6727 86.1639 75.6694 85.4231 75.4253C85.1942 75.3334 84.9556 75.2686 84.7122 75.2321C84.5896 75.2151 84.4648 75.2316 84.3506 75.2798C84.2364 75.328 84.1368 75.4062 84.0621 75.5065C83.9884 75.6574 83.9537 75.8251 83.9614 75.9934C83.872 77.924 83.7067 79.9125 83.184 81.7889Z" fill="#333333"/>
<path d="M80.1261 81.8467C79.2498 80.9075 78.3507 79.9509 77.2217 79.3538C76.7769 79.118 76.2713 78.9403 75.779 79.0292C75.2867 79.1181 74.8286 79.5529 74.8514 80.0611C74.8666 80.3761 75.0548 80.6543 75.1137 80.9635C75.1821 81.3114 75.0833 81.6824 75.1897 82.0187C75.2762 82.2402 75.4055 82.4419 75.5699 82.6119L76.9157 84.2332C77.4859 84.9096 78.0561 85.5956 78.7898 86.0633C79.5235 86.5309 80.4739 86.7493 81.2799 86.4169C81.8533 86.1459 82.33 85.7011 82.6446 85.1434C82.9792 84.6023 83.2149 84.011 83.5285 83.4525C84.0166 82.5602 84.6608 81.7658 85.4293 81.1085C85.0339 81.0041 84.5378 80.8573 84.2888 80.5287C84.2179 80.4243 84.1574 80.313 84.1082 80.1964L83.8003 79.52C83.6956 79.5145 83.5909 79.531 83.4927 79.5686C83.3946 79.6061 83.3052 79.664 83.2301 79.7384C83.098 79.8935 82.9564 80.04 82.8062 80.177C82.5382 80.3819 82.1751 80.4379 81.9318 80.6717C81.8377 80.7721 81.7525 80.8808 81.6771 80.9964C81.4931 81.2423 81.2595 81.4454 80.992 81.592C80.7245 81.7386 80.4293 81.8255 80.1261 81.8467V81.8467Z" fill="#5BAA00"/>
<path d="M85.4997 77.806C86.1592 76.5828 86.1288 75.1161 86.317 73.7344C86.3374 73.3684 86.4637 73.0168 86.6801 72.7237C87.0602 72.2869 87.7312 72.2811 88.3052 72.3372C88.4744 72.3565 88.6854 72.4377 88.6759 72.6097C88.6626 72.6713 88.633 72.7281 88.5904 72.7739C88.034 73.504 87.7068 74.3875 87.6514 75.3093C87.9498 75.5199 88.4117 75.0871 88.6987 75.3093C88.8888 75.4716 88.8013 75.7924 88.6873 76.0243C88.4225 76.5615 88.1494 77.0949 87.8681 77.6244C87.6435 78.0911 87.3506 78.5204 86.9994 78.8979C86.758 79.1336 86.4748 79.3191 86.2296 79.551C85.6593 80.094 85.3153 80.8612 84.7261 81.3907C84.6763 81.4455 84.6089 81.4805 84.536 81.4893C84.461 81.4838 84.3903 81.4516 84.3364 81.3984C84.042 81.155 83.7979 80.8549 83.6179 80.5153C83.3936 80.094 83.4278 79.9704 83.7814 79.6728C84.4428 79.1413 85.0872 78.5713 85.4997 77.806Z" fill="#BE6F72"/>
<path d="M79.0237 81.016C79.1377 81.0875 79.2784 81.1686 79.4038 81.1087C79.4551 81.0772 79.4986 81.0343 79.5312 80.9831C79.7485 80.6883 79.9297 80.3677 80.071 80.0285C80.0953 79.9806 80.1089 79.9278 80.1109 79.8739C80.1109 79.7502 80.0026 79.6594 79.9018 79.5879C79.362 79.2381 78.7817 78.9577 78.174 78.7531C77.6722 78.5598 77.1476 78.3917 76.6154 78.44C76.4154 78.4537 76.2202 78.5083 76.0415 78.6006C75.8628 78.6929 75.7044 78.821 75.5756 78.9772C75.1955 79.4739 75.8322 79.6246 76.2314 79.8043C77.1552 80.2314 78.155 80.4787 79.0237 81.016Z" fill="#333333"/>
<path opacity="0.1" d="M78.4249 84.3011C78.4185 84.3452 78.4223 84.3903 78.4362 84.4326C78.4501 84.4749 78.4736 84.5132 78.5047 84.5446C78.5598 84.2702 78.4876 83.9803 78.5446 83.704C78.6283 83.2885 79.0255 82.9755 79.0597 82.5581C78.3317 82.4131 78.4306 83.8528 78.4249 84.3011Z" fill="#5BAA00"/>
<path opacity="0.2" d="M111.939 69.1895V71.0929L104.21 71.5702L103.977 69.6648L111.939 69.1895Z" fill="#5BAA00"/>
<path d="M77.6983 72.2674C78.1811 71.8674 77.9017 71.0287 78.2286 70.4915C78.4187 70.1978 78.7399 70.0432 79.0554 69.9118C79.4362 69.7306 79.8442 69.6157 80.2624 69.5717C80.4719 69.5512 80.6832 69.579 80.8806 69.6529C81.078 69.7269 81.2566 69.8451 81.4029 69.9987C81.5265 70.1417 81.6101 70.3157 81.726 70.4645C81.8696 70.6381 82.0568 70.7689 82.2676 70.8431C82.4785 70.9172 82.7051 70.932 82.9235 70.8857C83.1763 70.8278 83.4386 70.6326 83.4215 70.3698C83.393 70.2099 83.3127 70.0644 83.1934 69.9562L82.6498 69.3436C82.0321 68.648 81.3459 67.9098 80.4392 67.7359C79.8081 67.6141 79.1619 67.7861 78.5536 67.9929C78.3084 68.076 78.0328 68.1996 77.9644 68.4528C77.9188 68.6267 77.9872 68.8161 77.9473 68.9919C77.8693 69.3417 77.4284 69.4596 77.2231 69.7533C77.0178 70.0471 77.0805 70.3949 77.0216 70.7196C76.9627 71.0442 76.7916 71.3611 76.7707 71.6974C76.7574 71.9003 76.8581 72.2771 77.0824 72.3505C77.3067 72.424 77.5595 72.0259 77.6983 72.2674Z" fill="#5BAA00"/>
<path d="M83.2368 70.0922C83.0765 69.2419 82.731 68.439 82.2256 67.7423C81.7762 67.0914 81.151 66.5866 80.4255 66.2891C80.0629 66.145 79.6729 66.0864 79.2847 66.1175C78.8966 66.1486 78.5204 66.2687 78.1845 66.4688C77.6858 66.8307 77.2977 67.3284 77.0649 67.9046C76.5726 68.9829 76.3902 70.3009 76.9623 71.3367C77.1904 71.0545 77.582 71.1821 77.9279 71.0796C78.3613 70.954 78.7281 70.6603 79.1406 70.4767C80.3856 69.9182 81.9062 70.3704 83.2368 70.0922Z" fill="#FED253"/>
<path opacity="0.1" d="M77.2534 70.0319C77.2097 69.684 77.1812 69.2802 77.4245 69.0328C77.4366 69.0176 77.452 69.0056 77.4695 68.9975C77.487 68.9895 77.5061 68.9857 77.5252 68.9864C77.5422 68.992 77.5579 69.0011 77.5713 69.013C77.5847 69.025 77.5955 69.0396 77.6032 69.056C77.7436 69.2813 77.8632 69.5194 77.9605 69.7671C77.8188 69.7339 77.6706 69.7447 77.5351 69.7981C77.3995 69.8515 77.2829 69.9451 77.2002 70.0667" fill="#5BAA00"/>
<path opacity="0.1" d="M81.6958 69.0504L81.6274 68.3605C81.6163 68.3037 81.6209 68.2448 81.6407 68.1905C81.6693 68.145 81.7135 68.1119 81.7648 68.0976C81.8161 68.0833 81.8707 68.0889 81.9182 68.1132C82.0117 68.1659 82.0887 68.2442 82.1406 68.3393C82.2988 68.5862 82.4301 68.8499 82.5321 69.1258C82.226 69.0658 81.911 69.0698 81.6064 69.1374" fill="#5BAA00"/>
<path opacity="0.1" d="M83.3973 97.0498V98.6267L82.0877 98.7156H75.1992V97.0498H83.3973Z" fill="#5BAA00"/>
<path d="M83.3972 97.0498V98.7156H75.1991L53.4199 70.9791V69.6689H57.9856L83.3972 97.0498Z" fill="#F1C0C0"/>
<path opacity="0.1" d="M83.3972 97.0498V98.7156H75.1991L53.4199 70.9791V69.6689H57.9856L83.3972 97.0498Z" fill="#5BAA00"/>
<path opacity="0.1" d="M83.3972 97.0498V98.7156H75.1991L53.4199 70.9791V69.6689L75.317 97.0498H83.3972Z" fill="#5BAA00"/>
<path d="M56.2748 124.85C56.2891 124.928 56.2874 125.009 56.2697 125.086C56.252 125.164 56.2188 125.237 56.172 125.301C56.1253 125.365 56.0661 125.419 55.9981 125.458C55.9301 125.498 55.8547 125.523 55.7768 125.532C55.2484 125.713 54.6876 125.893 54.3132 126.305C53.9387 126.716 53.8646 127.48 54.3132 127.814C54.5425 127.955 54.8057 128.028 55.0735 128.025C55.9345 128.085 56.8317 128.073 57.6129 127.702C58.1718 127.439 58.6983 126.991 59.3122 127.031C59.6297 127.051 59.968 127.201 60.2512 127.055C60.5344 126.908 60.6143 126.498 60.6162 126.156C60.6234 125.442 60.5175 124.731 60.3025 124.052C60.274 123.959 59.0651 123.887 58.9207 123.858L57.4552 123.665C57.1777 123.628 56.5789 123.416 56.3603 123.652C56.1417 123.887 56.2748 124.569 56.2748 124.85Z" fill="#333333"/>
<path d="M65.0205 120.026C65.0826 120.374 65.1833 120.714 65.3209 121.039C65.5243 121.564 65.7847 122.123 66.2827 122.378C66.7351 122.608 67.2901 122.525 67.7501 122.306C67.9421 122.225 68.1103 122.096 68.2386 121.929C68.387 121.666 68.4532 121.364 68.4287 121.062C68.4287 120.314 68.3849 119.541 68.0485 118.876C67.7596 118.296 67.2559 117.798 67.2483 117.156L65.5167 117.496C65.424 117.505 65.3357 117.541 65.2619 117.599C65.2071 117.658 65.169 117.73 65.1517 117.809C64.9668 118.533 64.9223 119.285 65.0205 120.026V120.026Z" fill="#333333"/>
<path d="M44.341 101.668C44.2688 102.29 44.2992 102.957 44.6186 103.494C44.9379 104.031 45.6108 104.387 46.1924 104.173C46.2222 104.165 46.2502 104.151 46.2747 104.132C46.2991 104.113 46.3196 104.089 46.335 104.062C46.3504 103.997 46.3416 103.928 46.3102 103.869C46.0535 103.172 46.0746 102.401 46.3692 101.72C46.4072 101.631 46.4889 101.527 46.5783 101.562C46.6156 101.581 46.6457 101.612 46.6638 101.651C46.7558 101.813 46.8019 101.997 46.7969 102.184C46.77 102.353 46.7649 102.525 46.7816 102.696C46.8178 102.862 46.9926 103.019 47.1447 102.947C47.1887 102.92 47.2267 102.884 47.2564 102.841C47.2861 102.798 47.307 102.749 47.3177 102.698C47.7415 101.452 47.5496 100.089 47.3557 98.7848C47.3573 98.7549 47.3524 98.7249 47.3414 98.6971C47.3304 98.6693 47.3135 98.6443 47.2919 98.6238C47.2704 98.6033 47.2446 98.5879 47.2166 98.5787C47.1885 98.5695 47.1588 98.5666 47.1295 98.5703C46.2323 98.4795 45.7419 98.2612 45.2287 99.1095C44.7877 99.8245 44.341 100.808 44.341 101.668Z" fill="#333333"/>
<path d="M54.8305 98.4973C54.5644 99.622 54.2964 100.76 54.2793 101.916C54.284 102.636 54.3373 103.354 54.439 104.067L54.6385 105.74C54.707 106.304 54.7735 106.867 54.8704 107.425C54.9323 107.713 54.966 108.006 54.9712 108.301C54.9525 108.591 54.9074 108.879 54.8362 109.161C54.7167 109.752 54.6499 110.354 54.6366 110.958C54.6157 111.924 54.7336 112.89 54.8077 113.856C54.9557 115.782 54.9334 117.717 54.7412 119.638C54.6644 120.157 54.7752 120.686 55.0529 121.128C55.1656 121.268 55.2584 121.422 55.3285 121.588C55.4711 122.031 55.1385 122.473 55.0529 122.927C54.9982 123.281 55.084 123.643 55.2914 123.933C55.4988 124.223 55.8109 124.417 56.1592 124.473C57.6798 124.657 59.2422 124.574 60.6127 125.281C60.7572 124.852 60.4416 124.365 60.5861 123.928C60.6773 123.658 60.9282 123.482 61.0993 123.254C61.3291 122.906 61.4437 122.493 61.4263 122.075C61.433 121.529 61.3375 120.987 61.1449 120.477C60.9834 120.052 60.7515 119.632 60.7648 119.176C60.7648 118.952 60.8427 118.717 60.7534 118.51C60.6921 118.391 60.6088 118.285 60.5082 118.199C59.9401 117.566 59.591 116.762 59.5141 115.909C59.4399 115.062 59.4667 114.209 59.5939 113.369C59.687 112.569 59.8125 111.725 60.3124 111.101C60.0806 109.208 60.2168 107.288 60.7135 105.448C60.7629 105.278 60.8408 105.081 61.0119 105.041C61.0798 105.033 61.1485 105.043 61.212 105.069C61.2755 105.094 61.332 105.135 61.3768 105.187C61.6753 105.472 61.8178 105.883 61.9471 106.277C62.0896 106.704 62.2341 107.16 62.1257 107.597C62.0801 107.79 61.9889 107.961 61.9357 108.146C61.82 108.519 61.8403 108.921 61.9927 109.28C62.067 109.412 62.1136 109.557 62.1295 109.707C62.1119 109.837 62.0734 109.962 62.0155 110.078C61.945 110.307 61.9226 110.548 61.9498 110.786C61.977 111.024 62.0531 111.254 62.1733 111.46C62.4155 111.871 62.7145 112.243 63.0609 112.567C62.8954 113.309 62.9382 114.083 63.1845 114.801C63.2022 114.834 63.2136 114.869 63.2178 114.906C63.2221 114.943 63.2191 114.98 63.2092 115.016C63.175 115.089 63.0875 115.116 63.0191 115.169C62.829 115.327 62.9469 115.627 63.0742 115.833C63.4233 116.401 63.8087 116.944 64.228 117.46C64.6082 117.922 64.574 118.813 65.1404 118.979C65.3784 119.032 65.6247 119.032 65.8627 118.979C66.4215 118.892 67.045 118.728 67.3187 118.226C67.4308 118.019 67.4764 117.768 67.6513 117.613C67.8262 117.458 68.0524 117.431 68.1493 117.246C68.2463 117.06 68.1379 116.817 68.1702 116.602C68.2026 116.388 68.3869 116.216 68.4458 115.99C68.5865 115.468 67.9878 115.039 67.906 114.506C67.7882 113.733 68.7462 113.153 68.7063 112.38C68.6226 110.701 68.5694 109.014 68.4839 107.334C68.3765 105.83 68.3613 104.321 68.4382 102.814C68.5048 101.877 68.6283 100.895 68.29 100.024C67.8034 98.7949 66.4614 98.105 65.1632 97.9736C63.865 97.8422 62.5705 98.1553 61.2837 98.3601C59.148 98.6947 56.9781 98.7409 54.8305 98.4973V98.4973Z" fill="#5BAA00"/>
<path d="M58.6886 80.0265C60.3704 80.0265 61.7337 78.6405 61.7337 76.9307C61.7337 75.221 60.3704 73.835 58.6886 73.835C57.0069 73.835 55.6436 75.221 55.6436 76.9307C55.6436 78.6405 57.0069 80.0265 58.6886 80.0265Z" fill="#FBBEBE"/>
<path d="M57.4494 80.6042C57.3459 80.849 57.172 81.0563 56.9504 81.1988C56.7289 81.3412 56.4701 81.4122 56.2082 81.4023C56.0979 81.866 56.3621 82.3337 56.6643 82.6989C57.2919 83.4414 58.1029 84.0002 59.0137 84.3178C59.9245 84.6354 60.9022 84.7003 61.8459 84.5058C62.2131 84.4389 62.5615 84.2912 62.8666 84.0729C63.2779 83.7237 63.5541 83.2376 63.6459 82.7009C63.7334 82.1679 63.7583 81.6262 63.7201 81.0873C63.7307 80.9808 63.7008 80.8743 63.6364 80.7897C63.5604 80.7298 63.4664 80.6984 63.3703 80.7008C62.7279 80.6428 62.0569 80.6177 61.4923 80.2969C60.9278 79.9761 60.5267 79.2514 60.7986 78.6562C60.7548 78.749 59.6448 78.7935 59.4984 78.8128C59.0403 78.8785 58.5822 78.9519 58.1261 79.0369C57.9068 79.0492 57.6902 79.0908 57.4817 79.1606C57.2061 79.3055 57.3087 79.2341 57.3733 79.4969C57.4703 79.8988 57.6128 80.1867 57.4494 80.6042Z" fill="#FBBEBE"/>
<path d="M59.7662 82.4866C59.3561 82.4914 58.947 82.4454 58.5478 82.3494C58.1448 82.2537 57.7896 82.0127 57.548 81.6711C57.4073 81.4547 57.3161 81.1822 57.0918 81.0605C56.725 80.8672 56.3068 81.1938 56.0141 81.4934C55.7476 81.7888 55.4387 82.0415 55.0979 82.2431C54.6911 82.4615 54.2159 82.5388 53.832 82.7958C53.532 83.0262 53.2746 83.3089 53.0717 83.6306L50.3782 87.3603C49.2967 88.8598 48.3558 90.4696 47.3921 92.0522C46.5577 93.4223 46.1205 94.9992 45.4913 96.4775C45.4415 96.568 45.4209 96.6721 45.4324 96.7751C45.4552 96.8756 45.575 96.9568 45.6586 96.8988C45.3754 97.1848 45.6244 97.6718 45.5579 98.0738C45.4822 98.355 45.3245 98.6063 45.1055 98.7946C45.5238 98.7391 45.9486 98.7594 46.36 98.8545C46.7852 98.977 47.1864 99.1731 47.5461 99.4342C47.7761 99.3975 47.7552 98.982 47.9262 98.8274C48.0289 98.7366 48.1809 98.7482 48.3159 98.7211C48.8234 98.6206 49.0249 98.0003 49.4145 97.6505C49.7396 97.3587 50.1996 97.264 50.5436 96.9896C51.1024 96.5432 51.2222 95.749 51.5149 95.0901C51.7639 94.5316 52.1555 94.0446 52.3741 93.4726C52.5166 93.1016 52.5851 92.6996 52.7884 92.3576C53.1135 91.8049 53.7255 91.5112 54.3091 91.2464C54.6778 91.0783 55.0694 90.9044 55.4666 90.9314C55.4457 91.83 55.3336 92.7151 55.5256 93.5924C55.5921 93.9016 55.6852 94.2031 55.7651 94.5103C56.1281 95.894 56.2137 97.3356 56.2308 98.7617C57.1041 98.5585 57.9961 98.4497 58.8919 98.4371C59.5971 98.4158 60.3003 98.5086 61.0055 98.495C61.8419 98.4796 62.6687 98.3153 63.5051 98.2573C64.3414 98.1994 65.2158 98.2573 65.9552 98.6438C65.8951 97.4191 65.9288 96.1915 66.0559 94.9722L66.2574 93.0513C66.3029 92.4932 66.3874 91.9392 66.5102 91.3933C66.6205 90.9527 66.7801 90.5275 66.9018 90.0889C67.3294 88.5429 67.2515 86.8926 67.1698 85.2829C67.128 84.4558 66.8143 83.6422 66.4456 82.906C66.3121 82.6325 66.1597 82.369 65.9894 82.1175C65.5438 81.4934 64.9499 80.9941 64.2632 80.6663C63.5766 80.3385 62.8194 80.1929 62.0624 80.2431C61.9657 80.2461 61.8703 80.267 61.7811 80.3049C61.6206 80.4093 61.4953 80.561 61.4218 80.7397C61.0285 81.4583 60.4579 82.0604 59.7662 82.4866Z" fill="#5BAA00"/>
<path d="M56.0102 77.9571C56.0958 77.7638 56.3258 77.6923 56.4664 77.5377C56.7363 77.244 56.6147 76.7744 56.6565 76.3783C56.7249 75.7985 57.1982 75.3135 57.7399 75.1067C58.2924 74.9265 58.8802 74.8886 59.4506 74.9966C59.7252 75.0169 59.9905 75.1066 60.2224 75.2575C60.3212 75.3309 60.4124 75.4256 60.5056 75.4932C60.6754 75.5975 60.8785 75.6303 61.0717 75.5844C61.2649 75.5386 61.4328 75.4178 61.5396 75.2478C60.8667 74.4246 60.1216 73.555 59.099 73.3018C58.7482 73.229 58.3907 73.1947 58.0327 73.1994C57.5594 73.1897 57.0709 73.182 56.6337 73.3656C56.0387 73.6149 55.6206 74.1888 55.4058 74.8072C55.2179 75.434 55.1175 76.0845 55.1073 76.7396C55.0684 77.1768 55.0684 77.6166 55.1073 78.0537C55.1808 78.6507 55.399 79.2197 55.7422 79.7098C55.7886 79.7859 55.8543 79.848 55.9323 79.8895C56.799 80.276 55.9399 78.1175 56.0102 77.9571Z" fill="#5BAA00"/>
<path d="M61.4413 74.7704C61.3368 73.8602 60.6981 73.1085 60.0195 72.5036C59.4726 71.9792 58.8211 71.5804 58.1092 71.3345C57.3927 71.12 56.5677 71.1664 55.9538 71.6012C55.4596 71.9509 55.1459 72.5075 54.9045 73.0679C54.5874 73.7292 54.4303 74.458 54.4464 75.1936C54.494 75.9241 54.8437 76.6642 55.4672 77.0333C55.6914 76.697 56.0811 76.5231 56.4556 76.3859C58.0876 75.7564 59.752 75.2171 61.4413 74.7704V74.7704Z" fill="#FED253"/>
<path opacity="0.1" d="M55.6755 74.3917C55.7363 74.3917 55.7762 74.4555 55.8066 74.5076C55.9614 74.7528 56.0943 75.0115 56.2039 75.2806C55.9815 75.3289 55.5994 75.383 55.4892 75.184C55.4303 75.0835 55.5006 74.382 55.6755 74.3917Z" fill="#5BAA00"/>
<path opacity="0.1" d="M60.0082 73.9552C59.9626 73.9997 59.9094 73.9088 59.9094 73.8431V73.0933C59.9081 73.0725 59.9128 73.0517 59.9227 73.0334C59.9306 73.0243 59.9402 73.0168 59.951 73.0115C59.9617 73.0062 59.9735 73.0031 59.9854 73.0025C60.1394 72.9851 60.2667 73.1185 60.3656 73.246C60.5156 73.4527 60.646 73.6733 60.7552 73.905L59.9512 73.8798" fill="#5BAA00"/>
<path d="M70.0424 86.3707C70.2174 86.2019 70.4041 86.0463 70.6013 85.905C71.1278 85.5475 71.7645 85.4064 72.3557 85.1784C72.9468 84.9504 73.5475 84.5813 73.7775 83.9822C73.8926 83.6076 73.9302 83.2128 73.8877 82.8227C73.8932 82.6594 73.8647 82.4968 73.8041 82.3454C73.7317 82.2117 73.6287 82.0977 73.5038 82.013C72.7016 81.4101 71.6258 81.3618 70.6298 81.4236C68.4339 81.5621 66.2815 82.1083 64.2793 83.0353C64.1734 83.0709 64.0806 83.1383 64.0131 83.2286C63.9742 83.3123 63.9565 83.4047 63.9618 83.4972C63.9264 84.067 63.9993 84.6385 64.1766 85.1803C64.4389 85.8683 64.9787 86.4229 65.2049 87.1244C65.3076 87.4394 65.3418 87.7737 65.4311 88.0906C65.5044 88.4179 65.6948 88.7058 65.9653 88.8984C66.7161 89.3544 67.4251 88.7418 67.9459 88.2665L70.0424 86.3707Z" fill="#5BAA00"/>
<path d="M60.2089 89.0473L59.2452 86.91C59.1039 86.6138 58.9819 86.3085 58.8802 85.9959C58.77 85.623 58.7167 85.2365 58.6141 84.8616C58.2758 83.6132 57.4223 82.5736 57.006 81.3503C56.9797 81.2399 56.9261 81.1381 56.8502 81.0547C56.7894 81.011 56.72 80.9814 56.6467 80.9681C56.5735 80.9547 56.4982 80.9579 56.4263 80.9774C55.8447 81.0798 55.3904 81.5301 54.8582 81.7851C54.6111 81.9011 54.3449 81.9784 54.0978 82.1117C53.9743 82.1712 53.8649 82.257 53.777 82.3634C53.6891 82.4698 53.6247 82.5942 53.5884 82.7282C53.5295 83.0238 53.674 83.3079 53.7956 83.5958C54.3126 84.7824 54.4305 86.108 54.4533 87.4066C54.4704 88.2801 54.4267 89.2173 53.9192 89.9188C52.9441 91.2715 53.5675 93.2581 53.9325 94.8949C53.9762 95.0881 54.0275 95.2968 54.0579 95.5017C54.0901 95.758 54.1047 96.0163 54.1016 96.2746C54.1016 97.1423 54.0541 98.037 53.6968 98.8235C54.0496 99.0144 54.4384 99.1264 54.8372 99.152C55.941 99.295 57.0491 99.3955 58.1617 99.4535C58.5103 99.4868 58.8618 99.4686 59.2053 99.3994C59.6131 99.2873 59.9726 99.0403 60.227 98.6974C60.4814 98.3544 60.6161 97.9351 60.6099 97.5056C60.6708 98.0409 60.7829 98.6226 61.165 98.9936C61.547 99.3646 62.1039 99.4207 62.6229 99.4496C64.0874 99.5286 65.5558 99.4866 67.0137 99.324C67.1067 99.3198 67.1982 99.2981 67.2836 99.2603C67.5649 99.1173 67.5801 98.723 67.5573 98.4061C67.5155 97.8129 67.4718 97.2196 67.4014 96.6302C67.3418 96.2545 67.3113 95.8745 67.3102 95.4939C67.3392 95.1024 67.4028 94.7144 67.5003 94.3344C67.755 93.1286 67.9565 91.8976 67.8709 90.6628C67.8371 90.362 67.8251 90.0591 67.8348 89.7565C67.8842 89.0743 68.2378 88.425 68.1712 87.7467C67.9812 85.7525 67.8272 83.706 67.2798 81.7813C67.1809 81.4373 67.0555 81.0682 66.7609 80.8711C66.3807 80.6121 65.8466 80.7474 65.4113 80.5832C65.2071 80.4865 65.0129 80.3694 64.8316 80.2334C64.4377 79.9829 63.9862 79.8417 63.5219 79.8237C63.1722 79.8102 62.7825 79.8894 62.5715 80.1754C62.4738 80.3364 62.4092 80.5159 62.3815 80.703C62.1058 81.8818 61.7827 83.047 61.4596 84.2123L61.1497 85.3293L60.3191 88.3284C60.2374 88.6473 60.2925 88.7458 60.2089 89.0473Z" fill="#333333"/>
<path d="M65.07 77.3457L83.4563 96.989V98.6548H75.2582L61.4414 80.3217" fill="#F1C0C0"/>
<path opacity="0.1" d="M65.07 77.3457L83.4563 96.989V98.6548H75.2582L61.4414 80.3217" fill="#5BAA00"/>
<path opacity="0.1" d="M61.7341 80.0635L61.7931 80.0847L75.3761 96.9898H83.4563V98.6555H75.2582L61.4414 80.3224L61.7341 80.0635Z" fill="#5BAA00"/>
<path d="M63.8497 80.4765C63.1845 80.7722 62.4451 81.1509 62.2455 81.8621C62.2061 81.9869 62.1976 82.1196 62.2208 82.2486C62.2694 82.4002 62.3621 82.5333 62.4866 82.6302C62.6112 82.7272 62.7617 82.7834 62.9184 82.7916C63.2314 82.7993 63.5426 82.7414 63.8326 82.6215L67.7578 81.3036C67.8642 81.2688 67.9859 81.2166 68.0125 81.1104C68.0193 81.0435 68.006 80.9761 67.9745 80.9171C67.8528 80.6157 67.733 79.9992 67.4783 79.7886C67.2693 79.6185 66.8549 79.6784 66.6021 79.6823C65.6289 79.69 64.7146 80.09 63.8497 80.4765Z" fill="#333333"/>
<path d="M67.349 81.4608C68.0102 81.4589 68.6677 81.5626 69.2973 81.7681C69.9297 81.9768 70.4898 82.3659 70.9111 82.8889C71.0337 83.0351 71.121 83.2085 71.1658 83.3952C71.2038 83.5885 71.8234 83.7044 71.6866 83.8358C72.1029 83.7682 72.004 83.9672 72.426 83.9634C72.848 83.9595 73.3041 83.8493 73.557 83.5073C73.7326 83.2263 73.8109 82.8937 73.7793 82.5623C73.7849 82.3329 73.7421 82.1049 73.6539 81.8937C73.4638 81.4879 73.0266 81.2695 72.6237 81.0821L69.2289 79.5033C69.0319 79.3968 68.8205 79.3206 68.6016 79.2772C68.4174 79.2595 68.2317 79.264 68.0485 79.2907L66.5107 79.4704C66.847 79.6917 67.1208 79.9982 67.3051 80.3597C67.4895 80.7213 67.5779 81.1254 67.5619 81.5323" fill="#5BAA00"/>
</g>
<defs>
<clipPath id="clip0_903_188">
<rect width="223.878" height="140" fill="white"/>
</clipPath>
</defs>
</svg>
