<svg width="200" height="140" viewBox="0 0 200 140" fill="none" xmlns="http://www.w3.org/2000/svg">
<g clip-path="url(#clip0_409_9698)">
<path opacity="0.1" d="M189.742 136.329C189.742 137.668 185.107 138.922 177.019 140H24.0415C17.2352 140.015 10.5465 138.235 4.6553 134.843L4.5647 134.792C6.88899 133.949 11.0845 133.163 16.7948 132.454L17.0509 132.423C19.6115 132.111 22.4736 131.815 25.6015 131.535C25.6803 131.535 25.7611 131.523 25.8399 131.513C28.3217 131.294 30.9618 131.088 33.7602 130.896C33.8488 130.896 33.9355 130.88 34.0241 130.876C35.1036 130.799 36.2053 130.726 37.3294 130.657L37.7627 130.629C45.947 130.123 55.2501 129.72 65.3391 129.453H65.3509C66.7639 129.414 68.1919 129.379 69.6351 129.349C71.2398 129.311 72.8642 129.278 74.5082 129.249C75.763 129.222 77.0334 129.202 78.3079 129.183H78.3374C84.0871 129.096 90.0278 129.053 96.1025 129.053C111.124 129.053 125.322 129.326 137.902 129.816H137.938C139.872 129.89 141.771 129.972 143.623 130.057L145.198 130.131C147.288 130.231 149.323 130.337 151.304 130.451C174.607 131.77 189.742 133.912 189.742 136.329Z" fill="#333333"/>
<path d="M113.997 128.154C113.991 128.365 113.967 128.575 113.925 128.783C112.554 128.566 111.175 128.37 109.788 128.195C109.788 128.14 109.788 128.083 109.788 128.026C109.801 127.438 109.971 126.865 110.281 126.364C110.686 125.725 111.303 125.325 111.982 125.347C112.662 125.368 113.251 125.805 113.615 126.466C113.891 126.985 114.023 127.567 113.997 128.154V128.154Z" fill="#C8996B"/>
<path d="M114.111 124.804C114.159 123.288 113.255 122.03 112.091 121.993C110.928 121.957 109.946 123.156 109.897 124.672C109.849 126.187 110.753 127.446 111.917 127.483C113.08 127.519 114.062 126.32 114.111 124.804Z" fill="#C8996B"/>
<path d="M114.218 121.448C114.266 119.933 113.362 118.674 112.199 118.637C111.035 118.601 110.053 119.8 110.005 121.316C109.957 122.832 110.861 124.09 112.024 124.127C113.188 124.163 114.17 122.964 114.218 121.448Z" fill="#C8996B"/>
<path d="M114.324 118.093C114.372 116.577 113.468 115.318 112.304 115.282C111.141 115.245 110.159 116.444 110.11 117.96C110.062 119.476 110.966 120.734 112.13 120.771C113.293 120.808 114.275 119.609 114.324 118.093Z" fill="#C8996B"/>
<path d="M114.429 114.737C114.477 113.221 113.573 111.963 112.41 111.926C111.246 111.889 110.264 113.089 110.216 114.604C110.168 116.12 111.072 117.379 112.235 117.415C113.399 117.452 114.381 116.253 114.429 114.737Z" fill="#C8996B"/>
<path d="M105.153 91.4534C104.876 91.0797 104.626 90.6867 104.405 90.2774L109.971 89.5463L103.979 89.4032C103.445 88.1411 103.174 86.7838 103.185 85.4141C103.195 84.0445 103.486 82.6914 104.04 81.4376L111.943 85.8379L104.704 80.1851C105.434 79.0098 106.4 77.997 107.542 77.2099C108.683 76.4227 109.975 75.8782 111.337 75.6104C112.7 75.3425 114.103 75.357 115.459 75.653C116.815 75.9489 118.096 76.52 119.221 77.3306C120.345 78.1411 121.29 79.1737 121.995 80.3638C122.701 81.5539 123.152 82.876 123.321 84.2475C123.49 85.619 123.373 87.0105 122.978 88.3349C122.582 89.6594 121.916 90.8885 121.022 91.9454C121.453 92.5267 121.82 93.1531 122.115 93.8134L114.809 97.3022L122.556 94.9835C123.044 96.5854 123.122 98.283 122.785 99.9227C122.447 101.562 121.704 103.092 120.622 104.374C121.746 105.893 122.419 107.695 122.563 109.576C122.706 111.457 122.315 113.341 121.433 115.011C120.552 116.681 119.216 118.07 117.578 119.021C115.941 119.971 114.067 120.443 112.172 120.384C110.278 120.324 108.438 119.735 106.864 118.684C105.289 117.634 104.044 116.163 103.27 114.441C102.496 112.719 102.225 110.815 102.487 108.947C102.749 107.078 103.535 105.321 104.753 103.876C103.41 102.062 102.718 99.85 102.789 97.597C102.861 95.344 103.691 93.1803 105.147 91.4534H105.153Z" fill="#FAFAFA"/>
<path opacity="0.1" d="M122.985 98.2312C122.916 100.486 122.083 102.65 120.622 104.374C121.746 105.893 122.419 107.695 122.563 109.576C122.706 111.457 122.315 113.341 121.433 115.011C120.552 116.681 119.216 118.07 117.578 119.021C115.941 119.971 114.067 120.443 112.172 120.384C110.278 120.324 108.438 119.735 106.864 118.684C105.289 117.633 104.044 116.163 103.27 114.441C102.496 112.719 102.225 110.815 102.487 108.947C102.749 107.078 103.535 105.321 104.753 103.876C103.459 102.126 123.021 97.1042 122.985 98.2312Z" fill="#C8996B"/>
<path d="M84.0575 128.154C84.0512 128.365 84.0268 128.575 83.9846 128.783C82.6137 128.566 81.2348 128.37 79.8481 128.195C79.8481 128.14 79.8481 128.083 79.8481 128.026C79.861 127.438 80.031 126.865 80.3406 126.364C80.7463 125.725 81.3629 125.325 82.0424 125.347C82.722 125.368 83.3109 125.805 83.6753 126.466C83.951 126.985 84.0829 127.567 84.0575 128.154V128.154Z" fill="#C8996B"/>
<path d="M84.1685 124.805C84.2166 123.289 83.3125 122.03 82.1491 121.994C80.9856 121.957 80.0035 123.156 79.9553 124.672C79.9072 126.188 80.8113 127.447 81.9747 127.483C83.1382 127.52 84.1203 126.321 84.1685 124.805Z" fill="#C8996B"/>
<path d="M84.276 121.449C84.3241 119.934 83.42 118.675 82.2566 118.638C81.0932 118.602 80.111 119.801 80.0629 121.317C80.0147 122.833 80.9189 124.091 82.0823 124.128C83.2457 124.164 84.2279 122.965 84.276 121.449Z" fill="#C8996B"/>
<path d="M84.3815 118.094C84.4296 116.578 83.5255 115.319 82.3621 115.283C81.1986 115.246 80.2165 116.445 80.1683 117.961C80.1202 119.477 81.0243 120.735 82.1878 120.772C83.3512 120.809 84.3333 119.609 84.3815 118.094Z" fill="#C8996B"/>
<path d="M84.4869 114.738C84.5351 113.222 83.631 111.964 82.4675 111.927C81.3041 111.89 80.3219 113.09 80.2738 114.605C80.2257 116.121 81.1298 117.38 82.2932 117.416C83.4566 117.453 84.4388 116.254 84.4869 114.738Z" fill="#C8996B"/>
<path d="M75.2134 91.4534C74.936 91.0797 74.6858 90.6867 74.4649 90.2774L80.0314 89.5463L74.0394 89.4032C73.5047 88.1411 73.2343 86.7838 73.2448 85.4141C73.2553 84.0445 73.5465 82.6914 74.1005 81.4376L82.0031 85.8379L74.7643 80.1851C75.4945 79.0098 76.4604 77.997 77.6017 77.2099C78.743 76.4227 80.0351 75.8782 81.3974 75.6104C82.7597 75.3425 84.1628 75.357 85.5192 75.653C86.8755 75.9489 88.156 76.52 89.2806 77.3306C90.4052 78.1411 91.3498 79.1737 92.0554 80.3638C92.761 81.5539 93.2123 82.876 93.3813 84.2475C93.5503 85.619 93.4334 87.0105 93.0377 88.3349C92.642 89.6594 91.9761 90.8885 91.0816 91.9454C91.513 92.5267 91.8796 93.1531 92.1748 93.8134L84.869 97.3022L92.616 94.9835C93.1039 96.5854 93.1825 98.283 92.8448 99.9227C92.507 101.562 91.7636 103.092 90.6817 104.374C91.8065 105.893 92.4791 107.695 92.6226 109.576C92.7662 111.457 92.3748 113.341 91.4934 115.011C90.612 116.681 89.276 118.07 87.6383 119.021C86.0006 119.971 84.1273 120.443 82.2325 120.384C80.3377 120.324 78.4979 119.735 76.9236 118.684C75.3493 117.634 74.104 116.163 73.3301 114.441C72.5561 112.719 72.2848 110.815 72.5471 108.947C72.8095 107.078 73.5949 105.321 74.8135 103.876C73.4698 102.062 72.7781 99.85 72.8495 97.597C72.9209 95.344 73.7514 93.1803 75.2075 91.4534H75.2134Z" fill="#FAFAFA"/>
<path opacity="0.1" d="M93.0454 98.2312C92.9765 100.486 92.1435 102.65 90.6817 104.374C91.8065 105.893 92.4791 107.695 92.6226 109.576C92.7662 111.457 92.3748 113.341 91.4934 115.011C90.612 116.681 89.276 118.07 87.6383 119.021C86.0006 119.971 84.1273 120.443 82.2325 120.384C80.3377 120.324 78.4979 119.735 76.9236 118.684C75.3493 117.633 74.104 116.163 73.3301 114.441C72.5561 112.719 72.2848 110.815 72.5471 108.947C72.8095 107.078 73.5949 105.321 74.8135 103.876C73.5194 102.126 93.0809 97.1042 93.0454 98.2312Z" fill="#C8996B"/>
<path d="M165.841 130.298C165.826 130.698 165.778 131.097 165.697 131.489C163.058 131.07 160.399 130.695 157.722 130.364C157.722 130.258 157.722 130.151 157.722 130.041C157.747 128.909 158.075 127.804 158.671 126.84C159.459 125.611 160.641 124.841 161.947 124.88C163.253 124.919 164.389 125.764 165.098 127.036C165.633 128.038 165.89 129.164 165.841 130.298V130.298Z" fill="#C8996B"/>
<path d="M166.055 123.845C166.148 120.925 164.407 118.502 162.166 118.431C159.925 118.361 158.033 120.67 157.94 123.589C157.847 126.509 159.589 128.932 161.83 129.003C164.071 129.073 165.963 126.764 166.055 123.845Z" fill="#C8996B"/>
<path d="M166.26 117.384C166.353 114.465 164.611 112.041 162.37 111.971C160.129 111.901 158.238 114.21 158.145 117.129C158.052 120.048 159.794 122.472 162.035 122.542C164.276 122.613 166.167 120.303 166.26 117.384Z" fill="#C8996B"/>
<path d="M166.467 110.924C166.559 108.005 164.818 105.581 162.577 105.511C160.336 105.44 158.444 107.749 158.352 110.669C158.259 113.588 160 116.011 162.241 116.082C164.482 116.152 166.374 113.843 166.467 110.924Z" fill="#C8996B"/>
<path d="M166.441 104.169C166.529 101.249 164.782 98.8268 162.54 98.7598C160.298 98.6929 158.409 101.006 158.321 103.927C158.233 106.847 159.979 109.269 162.221 109.336C164.464 109.403 166.353 107.09 166.441 104.169Z" fill="#C8996B"/>
<path d="M148.813 59.6456C148.281 58.926 147.8 58.1709 147.373 57.3856L158.088 55.9783L146.555 55.702C145.525 53.2724 145.004 50.6593 145.024 48.0225C145.043 45.3857 145.603 42.7805 146.67 40.3665L161.886 48.8359L147.952 37.9537C149.361 35.6965 151.222 33.7522 153.419 32.2421C155.616 30.7319 158.102 29.6882 160.722 29.1761C163.342 28.6639 166.041 28.6942 168.648 29.2652C171.256 29.8361 173.718 30.9354 175.88 32.4946C178.043 34.0538 179.859 36.0394 181.216 38.3277C182.574 40.616 183.443 43.1579 183.769 45.7951C184.096 48.4323 183.874 51.1081 183.116 53.656C182.357 56.2038 181.08 58.569 179.363 60.604C180.193 61.7241 180.899 62.93 181.469 64.2007L167.403 70.9218L182.316 66.4528C183.256 69.5329 183.409 72.7976 182.761 75.9514C182.114 79.1052 180.686 82.0485 178.607 84.5147C180.772 87.4382 182.066 90.9088 182.342 94.5298C182.618 98.1507 181.865 101.776 180.168 104.991C178.471 108.206 175.899 110.881 172.746 112.71C169.594 114.539 165.988 115.448 162.34 115.333C158.692 115.219 155.151 114.085 152.12 112.063C149.09 110.04 146.692 107.209 145.202 103.894C143.712 100.579 143.19 96.9138 143.694 93.3173C144.199 89.7208 145.711 86.3382 148.056 83.5563C145.471 80.0628 144.14 75.8062 144.277 71.4697C144.414 67.1333 146.012 62.9684 148.813 59.6436V59.6456Z" fill="#FAFAFA"/>
<path opacity="0.1" d="M183.145 72.6917C183.016 77.0291 181.42 81.1962 178.615 84.5187C180.78 87.4421 182.074 90.9127 182.35 94.5337C182.626 98.1547 181.873 101.78 180.176 104.995C178.479 108.21 175.907 110.885 172.754 112.714C169.602 114.543 165.995 115.452 162.348 115.337C158.7 115.223 155.159 114.089 152.128 112.066C149.098 110.044 146.7 107.213 145.21 103.898C143.72 100.583 143.198 96.9177 143.702 93.3212C144.207 89.7247 145.719 86.3421 148.064 83.5602C145.555 80.187 183.214 70.5219 183.145 72.6917Z" fill="#FAFAFA"/>
<path d="M11.0864 130.643L13.1527 130.637H16.0659L19.7493 71.0944L56.227 10.5229L54.6413 8.82937V4.54077L15.1914 69.691L11.0864 130.643Z" fill="#F1C0C0"/>
<path opacity="0.1" d="M13.3733 130.637H16.0659L19.7493 71.0944L56.227 10.5228L54.6413 8.82935L17.0153 70.1869L13.3733 130.637Z" fill="#5BAA00"/>
<path d="M4.99805 131.139L99.5161 138.336L99.5968 138.342L191.07 132.744L191.139 132.74V128.896L90.3469 127.056L6.25671 126.976H5.64215L5.57518 127.407L4.99805 131.139Z" fill="#F1C0C0"/>
<path opacity="0.1" d="M4.99805 131.139L99.5161 138.336L99.5968 138.342L191.07 132.744L191.139 132.67V128.977H191.058L99.5161 132.019L6.25671 126.976H6.24292L6.07746 127.083L5.57518 127.407L4.99805 131.139Z" fill="#5BAA00"/>
<path opacity="0.1" d="M4.99805 131.139L99.5161 138.336V132.019L6.07746 127.083L5.57518 127.407L4.99805 131.139Z" fill="#5BAA00"/>
<path d="M54.6296 8.74885L96.2995 53.2538L95.0113 131.538L98.5509 131.964L98.61 131.972H102.15L102.573 56.6153L180.6 82.5507L181.916 128.73L184.765 129.047L185.73 129.155L183.496 79.348L101.929 50.8528L57.2041 4.58569H54.6296V8.74885Z" fill="#F1C0C0"/>
<path opacity="0.1" d="M102.252 55.1748L102.573 56.6154L180.6 82.5509L181.916 128.73L184.764 129.047L182.531 81.5904L102.252 55.1748Z" fill="#5BAA00"/>
<path opacity="0.1" d="M54.6296 8.74885L96.2995 53.2538L95.0113 131.538L98.5509 131.964L99.5161 50.692L54.6296 4.58569V8.74885Z" fill="#5BAA00"/>
<path d="M102.404 86.5924L131.022 92.2002L131.032 92.2021L181.156 102.028L183.451 101.113L183.443 100.952L183.293 97.7667L102.433 81.5081L102.404 86.5924Z" fill="#F1C0C0"/>
<path opacity="0.1" d="M131.032 92.2021L181.156 102.028L183.451 101.113L183.443 100.952L131.032 92.2021Z" fill="#5BAA00"/>
<path d="M132.948 66.7117L133.722 109.115L134.122 130.87L137.646 130.752L139.864 130.678L139.175 67.3252L137.646 66.8195L137.311 66.7117H132.948Z" fill="#F1C0C0"/>
<path opacity="0.1" d="M132.98 66.7019V66.7117L133.722 109.116L134.122 130.87L137.646 130.753V66.7019H132.98Z" fill="#5BAA00"/>
<path d="M77.7504 77.541C77.9571 77.6528 78.1547 77.7806 78.3413 77.9232C78.562 78.1155 78.7602 78.3318 78.9322 78.5681C79.7772 79.6559 80.5573 80.9202 80.4745 82.2922C80.4763 82.4918 80.4384 82.6898 80.363 82.8748C80.2876 83.0598 80.1763 83.2282 80.0353 83.3702C79.6866 83.6662 79.1863 83.6799 78.7293 83.6799C78.233 83.6799 77.711 83.6799 77.2816 83.4251C76.8522 83.1703 76.4937 82.6744 75.9855 82.6862C75.9138 82.698 75.8406 82.698 75.7688 82.6862C75.5935 82.6293 75.5581 82.4 75.4438 82.255C75.2468 81.9943 74.8312 82.059 74.522 82.1726C74.2127 82.2863 73.87 82.4568 73.5647 82.3255C73.3874 82.2325 73.2426 82.0883 73.1491 81.912C72.4183 80.7359 72.2627 79.3227 72.1248 77.9566C72.0401 77.1255 71.394 74.2913 73.1766 74.9361C73.9645 75.2184 74.7012 75.7829 75.4182 76.1964L77.7504 77.541Z" fill="#5BAA00"/>
<path d="M75.9894 77.8212C76.1486 77.9352 76.3415 77.9928 76.5375 77.985C76.7335 77.9772 76.9212 77.9044 77.0707 77.7781C77.364 77.5144 77.551 77.1535 77.5967 76.7628C77.7936 76.702 77.8941 76.9588 78.0202 77.1156C78.2408 77.3822 78.6899 77.3782 78.8908 77.6625C79.0306 77.8585 78.9991 78.1309 79.0976 78.3524C79.2256 78.6386 79.5428 78.7875 79.7594 79.0188C79.964 79.2715 80.1118 79.5649 80.1928 79.8793L80.5158 80.8436C80.6704 81.2447 80.7698 81.6646 80.8113 82.0922C80.8317 82.3059 80.8091 82.5215 80.7448 82.7265C80.6805 82.9314 80.5759 83.1216 80.437 83.2858C80.0037 83.7504 79.2926 83.7994 78.6643 83.7857C78.4544 83.7901 78.245 83.7657 78.0418 83.7131C77.4844 83.5407 77.1279 82.982 76.9801 82.4195C76.8324 81.857 76.8482 81.267 76.7615 80.6907C76.6679 80.1247 76.5024 79.5728 76.2691 79.0482C76.0957 78.6405 75.619 78.0329 75.6269 77.5997C75.7687 77.5997 75.8712 77.7291 75.9894 77.8212Z" fill="#5BAA00"/>
<path d="M76.6966 75.8356C76.6045 75.5573 76.5508 75.2678 76.537 74.9751C76.537 74.3871 76.8069 73.8344 77.0787 73.3091L74.8273 73.6129C74.5554 73.6501 74.2521 73.705 74.0985 73.9304C74.0401 74.0421 74.0096 74.1662 74.0096 74.292C74.0096 74.4179 74.0401 74.542 74.0985 74.6537C74.2113 74.8773 74.3011 75.1117 74.3664 75.3534C74.3715 75.5649 74.3959 75.7755 74.4392 75.9826C74.5093 76.1347 74.6075 76.2724 74.7288 76.3883C75.3729 77.0979 75.8555 77.9348 76.3361 78.7639C76.3223 78.7404 77.6932 77.6839 77.6381 77.339C77.6066 77.1429 77.2107 76.9077 77.0846 76.7196C76.9105 76.4465 76.7796 76.1483 76.6966 75.8356V75.8356Z" fill="#E6A2A4"/>
<path d="M96 68.1777V70.1084L62.7764 76.557L61.0528 77.5958H55.1062V76.508L87.7488 68.6599L96 68.1777Z" fill="#F1C0C0"/>
<path opacity="0.1" d="M96 70.1084L62.7764 76.557L61.0528 77.5958H55.1062L87.991 70.5925L96 70.1084Z" fill="#5BAA00"/>
<path d="M69.3257 122.985C68.9556 122.539 68.4445 122.23 67.8759 122.11C67.3072 121.99 66.7144 122.065 66.1938 122.322C66.0824 122.375 65.9842 122.451 65.9063 122.546C65.7093 122.82 65.8353 123.199 65.8531 123.538C65.8984 124.365 65.2365 125.037 64.6417 125.615C64.3226 125.925 63.9976 126.256 63.8538 126.678C63.71 127.099 63.8164 127.634 64.2024 127.854C64.3709 127.938 64.5542 127.988 64.7421 128.003C65.3717 128.125 66.0173 128.143 66.6528 128.056C67.2811 127.936 67.8977 127.581 68.1695 127.005C68.2219 126.849 68.3087 126.706 68.4236 126.587C68.7703 126.315 69.3021 126.634 69.696 126.44C70.021 126.28 70.0348 126.027 70.0388 125.694C70.0506 124.772 69.9127 123.73 69.3257 122.985Z" fill="#333333"/>
<path d="M74.0532 122.949C74.2955 123.584 74.3289 124.276 74.3605 124.955C74.3782 125.347 74.39 125.766 74.1773 126.097C73.9645 126.429 73.5489 126.603 73.151 126.685C72.3297 126.854 71.3783 126.695 70.8484 126.046C70.4426 125.55 70.3579 124.87 70.4328 124.227C70.4958 123.7 70.6298 123.083 70.2496 122.708C70.1511 122.608 70.0231 122.538 69.9325 122.43C69.7355 122.191 69.767 121.83 69.8734 121.536C70.0119 121.255 70.1157 120.958 70.1826 120.652C70.1984 120.507 72.8497 120.754 73.0939 120.874C73.4268 121.036 73.3756 121.309 73.476 121.638C73.6159 122.097 73.8838 122.51 74.0532 122.949Z" fill="#333333"/>
<path d="M74.5397 94.7914C75.0597 95.1266 75.2606 95.7852 75.3414 96.3967C75.564 98.0726 75.1739 99.766 75.1444 101.458C75.1168 103.827 75.8062 106.24 75.2173 108.535C74.8647 109.907 75.1641 111.475 74.8332 112.861C74.7347 113.273 74.5535 113.661 74.4589 114.072C74.262 114.964 74.4688 115.897 74.7465 116.77C74.8352 117.005 74.8915 117.251 74.9139 117.501C74.9006 117.886 74.8024 118.263 74.6264 118.606L73.4445 121.387C73.3125 121.699 72.7925 121.75 72.4596 121.791C71.8333 121.866 71.134 121.919 70.6357 121.532C70.1373 121.146 70.0172 120.499 69.9404 119.896C69.793 118.737 69.7272 117.569 69.7434 116.401C69.765 116.096 69.7378 115.79 69.6626 115.494C69.5543 115.158 69.3159 114.868 69.2509 114.513C69.1682 114.055 69.4026 113.604 69.4893 113.141C69.5487 112.719 69.5421 112.29 69.4696 111.869C69.3928 111.242 69.3041 110.615 69.2037 109.992C69.0618 109.119 69.2647 108.259 69.4006 107.385C69.5287 106.564 69.3652 105.727 69.2037 104.911C69.2176 105.573 69.1347 106.233 68.9574 106.871C68.8531 107.183 68.7034 107.481 68.6127 107.798C68.2089 109.223 69.0697 110.719 68.9476 112.195C68.8905 112.885 68.6187 113.567 68.6955 114.247C68.7487 114.745 68.9811 115.201 69.1406 115.676C69.3002 116.15 69.3829 116.693 69.1406 117.136C68.5005 118.34 68.9791 119.976 69.5523 121.211C69.6687 121.43 69.77 121.657 69.8556 121.889C70.025 122.446 69.8832 123.044 69.9285 123.624C69.7636 123.651 69.5946 123.64 69.4345 123.592C69.2744 123.544 69.1275 123.46 69.0047 123.347C68.9181 123.257 68.8471 123.151 68.7624 123.057C68.5258 122.833 68.2456 122.659 67.9391 122.546C67.7591 122.446 67.5541 122.399 67.3482 122.411C67.1317 122.471 66.937 122.591 66.7868 122.757C66.592 122.928 66.3853 123.084 66.1683 123.226C66.0759 123.297 65.9678 123.344 65.8531 123.365C65.7955 123.374 65.7365 123.365 65.6845 123.338C65.6325 123.312 65.5902 123.27 65.5636 123.218C65.5513 123.185 65.544 123.151 65.5419 123.116C65.4688 122.524 65.43 121.929 65.4257 121.333C65.4257 120.307 64.1926 119.602 64.037 118.588C63.9129 117.771 64.1434 116.938 64.0666 116.115C64.0292 115.691 63.911 115.276 63.9189 114.853C63.9189 114.578 63.9819 114.31 64.0036 114.037C64.0216 113.735 64.017 113.431 63.9898 113.13L63.9287 112.183C63.8696 111.248 63.8046 110.293 63.4343 109.439C62.9952 108.441 62.7352 107.374 62.6661 106.287C62.6267 105.601 62.6523 104.915 62.5735 104.227C62.5026 103.606 62.345 102.988 62.3903 102.365C62.4278 101.883 62.5873 101.416 62.6247 100.934C62.7016 100.007 62.347 99.1055 62.0693 98.2176C61.7915 97.3297 61.5867 96.3457 61.9511 95.4892C62.0032 95.3486 62.0898 95.2233 62.2032 95.1246C62.3429 95.0326 62.5019 94.9736 62.6681 94.9521C66.0476 94.2457 69.5117 94.0259 72.9541 94.2994C73.5152 94.3311 74.0599 94.5001 74.5397 94.7914Z" fill="#5BAA00"/>
<path d="M63.3574 73.9736C65.1002 73.9736 66.5129 72.5678 66.5129 70.8336C66.5129 69.0994 65.1002 67.6936 63.3574 67.6936C61.6147 67.6936 60.2019 69.0994 60.2019 70.8336C60.2019 72.5678 61.6147 73.9736 63.3574 73.9736Z" fill="#FBBEBE"/>
<path d="M62.7466 74.7557C62.792 74.9352 62.792 75.1231 62.7466 75.3026C62.697 75.428 62.6271 75.5445 62.5398 75.6476C62.2343 76.0397 61.8963 76.4055 61.5293 76.7413C61.7163 77.1568 62.0529 77.4876 62.4728 77.6684C62.8897 77.845 63.3271 77.9694 63.7748 78.0388C63.9983 78.0973 64.2308 78.1133 64.4603 78.0859C64.6717 78.033 64.8719 77.9427 65.0512 77.8193L66.8043 76.7746C67.0688 76.632 67.3137 76.4561 67.5331 76.2513C67.8546 75.9224 68.0366 75.4831 68.0413 75.0243C68.0494 74.9421 68.027 74.8598 67.9782 74.793C67.911 74.7348 67.8267 74.6997 67.7379 74.693C67.1214 74.5578 66.6349 74.0599 66.3591 73.4954C66.1098 72.9168 65.9485 72.3044 65.8805 71.6785L64.0112 72.6585C63.7334 72.8055 63.4577 72.9525 63.1701 73.0799C62.9869 73.1622 62.6166 73.2308 62.4866 73.3974C62.2384 73.7052 62.6816 74.3853 62.7466 74.7557Z" fill="#FBBEBE"/>
<path d="M61.5413 76.171C61.2752 76.3881 61.0674 76.6676 60.9366 76.9844C60.8145 77.3764 60.9366 77.79 61.0469 78.1781C61.5639 79.8322 61.9589 81.5217 62.2288 83.233C62.3942 84.4091 62.4553 85.6027 62.5361 86.7925C62.7015 89.219 62.9418 93.0882 63.2629 95.499C64.4447 95.552 65.597 95.209 66.769 95.0835C68.9594 94.8522 71.2147 95.3814 73.3598 94.8875C72.8398 92.8432 72.3198 89.3523 71.7998 87.3099C71.5696 86.5052 71.4102 85.6822 71.3231 84.8501C71.2778 84.2523 71.3053 83.6525 71.3132 83.0507C71.331 81.8747 71.266 80.6987 71.201 79.5226C71.1261 78.1506 71.0512 76.7786 70.7243 75.4359C70.7015 75.2649 70.6209 75.1066 70.4958 74.9871C70.2988 74.844 70.0427 74.895 69.8083 74.9263C69.0906 75.017 68.3642 74.8457 67.7638 74.4441C67.5037 74.2677 67.1551 74.0521 66.9128 74.2481C66.8094 74.3664 66.7412 74.511 66.7158 74.6656C66.6086 74.9429 66.4432 75.1942 66.2305 75.4028C66.0179 75.6114 65.763 75.7723 65.4828 75.875C64.9215 76.0773 64.3336 76.1974 63.7376 76.2317C63.5552 76.2707 63.365 76.2493 63.1959 76.171C62.9162 76.0004 62.8965 75.3869 62.5439 75.3458C62.2347 75.3105 61.7501 75.973 61.5413 76.171Z" fill="#5BAA00"/>
<path d="M66.2017 80.9573C65.4748 80.2654 65.1557 79.2619 64.6259 78.4093C64.2651 77.8359 63.8041 77.3314 63.2648 76.9196C62.9936 76.7414 62.745 76.5315 62.5242 76.2944C62.337 76.065 62.1952 75.7593 61.9116 75.6711C61.7944 75.6457 61.6727 75.649 61.5571 75.6808C61.4415 75.7125 61.3353 75.7717 61.2478 75.8533C61.0741 76.018 60.9097 76.1921 60.7553 76.3747C59.9202 77.2352 58.4527 77.3547 57.7909 78.3505C57.6123 78.5616 57.4909 78.8146 57.4383 79.0855C57.2477 80.5347 57.6243 82.0013 58.4901 83.182C58.6578 83.4556 58.9152 83.6633 59.2189 83.77C59.1777 84.1355 59.2264 84.5054 59.3607 84.848C59.7255 86.0885 60.1736 87.3033 60.7021 88.4839C60.5758 88.9458 60.4875 89.4171 60.4382 89.8932C60.3003 91.0908 60.4284 92.306 60.2983 93.5056C60.192 94.4856 59.9044 95.4402 59.8946 96.4221C59.8946 96.579 59.9083 96.7652 60.0442 96.8455C60.1165 96.8825 60.1975 96.8994 60.2786 96.8945L62.7014 96.967C64.1078 97.0082 65.528 97.0494 66.9127 96.7906C67.0971 96.7635 67.276 96.7072 67.4426 96.624C67.9114 96.3633 68.067 95.7753 68.1419 95.252C68.2396 94.5732 68.2785 93.8872 68.2581 93.2018C68.5516 94.125 68.9002 95.0795 69.7866 95.4794C70.2554 95.6911 70.7912 95.6754 71.3053 95.6616C72.4133 95.6125 73.5176 95.4993 74.6125 95.3226C74.6799 95.3309 74.7484 95.3234 74.8125 95.3006C74.8765 95.2779 74.9343 95.2405 74.9812 95.1916C75.0281 95.1426 75.0628 95.0834 75.0826 95.0187C75.1024 94.9539 75.1066 94.8855 75.095 94.8188L75.1069 93.7486C75.1305 91.5749 74.5888 89.4973 74.3781 87.3334C74.3111 86.6513 74.317 85.9613 74.1496 85.293C74.0806 85.0127 73.9802 84.7383 73.9191 84.456C73.8665 84.1797 73.8336 83.9 73.8206 83.6191L73.667 81.463C73.5941 80.4654 73.4897 79.503 73.4129 78.5073C73.3707 77.5377 73.2294 76.5749 72.9914 75.6338C72.82 75.0458 72.4635 74.3794 71.8469 74.3069C71.518 74.2696 71.1989 74.4127 70.8857 74.5127C70.1159 74.7538 69.2898 74.7504 68.522 74.5029C68.2848 74.4097 68.0376 74.3439 67.7853 74.3069C67.6583 74.2897 67.529 74.3064 67.4106 74.3553C67.2923 74.4042 67.1891 74.4835 67.1117 74.5852C67.0352 74.7383 66.9993 74.9083 67.0073 75.0791C66.9147 77.0372 66.7433 79.0541 66.2017 80.9573Z" fill="#333333"/>
<path d="M63.0326 81.0162C62.1245 80.0636 61.1928 79.0933 60.0228 78.4877C59.5619 78.2486 59.0379 78.0682 58.5278 78.1584C58.0176 78.2486 57.5429 78.6896 57.5665 79.2051C57.5823 79.5246 57.7773 79.8068 57.8383 80.1204C57.9093 80.4732 57.8068 80.8496 57.9171 81.1906C58.0068 81.4153 58.1407 81.6199 58.3111 81.7923L59.7057 83.4368C60.2966 84.1228 60.8875 84.8187 61.6478 85.293C62.4081 85.7673 63.393 85.9888 64.2282 85.6517C64.8224 85.3769 65.3165 84.9256 65.6425 84.36C65.9891 83.8112 66.2334 83.2114 66.5584 82.645C67.0642 81.7399 67.7317 80.9342 68.5281 80.2674C68.1184 80.1616 67.6043 80.0126 67.3463 79.6794C67.2728 79.5735 67.2102 79.4605 67.1592 79.3423L66.8401 78.6563C66.7315 78.6506 66.623 78.6674 66.5213 78.7055C66.4196 78.7436 66.327 78.8023 66.2491 78.8777C66.1123 79.0351 65.9656 79.1837 65.8099 79.3227C65.5322 79.5304 65.1559 79.5873 64.9038 79.8244C64.8063 79.9263 64.7179 80.0364 64.6399 80.1537C64.4492 80.4031 64.2071 80.6091 63.9299 80.7579C63.6527 80.9066 63.3467 80.9947 63.0326 81.0162V81.0162Z" fill="#5BAA00"/>
<path d="M68.6009 76.9177C69.2844 75.677 69.2529 74.1893 69.4479 72.7879C69.469 72.4167 69.5999 72.0601 69.8241 71.7628C70.2181 71.3198 70.9134 71.3139 71.5082 71.3707C71.6835 71.3903 71.9022 71.4727 71.8923 71.6471C71.8785 71.7096 71.8479 71.7672 71.8037 71.8137C71.2271 72.5542 70.8881 73.4503 70.8306 74.3853C71.1399 74.599 71.6185 74.1599 71.916 74.3853C72.113 74.55 72.0223 74.8753 71.9042 75.1105C71.6297 75.6554 71.3467 76.1964 71.0552 76.7335C70.8225 77.2068 70.519 77.6423 70.155 78.0251C69.9049 78.2643 69.6114 78.4524 69.3573 78.6876C68.7664 79.2384 68.4098 80.0165 67.7992 80.5536C67.7476 80.6092 67.6778 80.6447 67.6022 80.6536C67.5246 80.648 67.4513 80.6154 67.3954 80.5614C67.0904 80.3145 66.8374 80.0101 66.6509 79.6657C66.4184 79.2384 66.4539 79.113 66.8203 78.8111C67.5057 78.2721 68.1735 77.6939 68.6009 76.9177Z" fill="#E5A2A4"/>
<path d="M61.89 80.1732C62.0082 80.2458 62.154 80.3281 62.284 80.2673C62.3371 80.2354 62.3822 80.1918 62.416 80.1399C62.6411 79.8409 62.829 79.5158 62.9754 79.1717C63.0006 79.1231 63.0147 79.0695 63.0167 79.0149C63.0167 78.8894 62.9045 78.7973 62.8001 78.7248C62.2407 78.37 61.6392 78.0856 61.0096 77.878C60.4895 77.682 59.9459 77.5115 59.3944 77.5605C59.1871 77.5743 58.9849 77.6298 58.7997 77.7234C58.6145 77.817 58.4503 77.947 58.3169 78.1054C57.923 78.6091 58.5828 78.762 58.9965 78.9443C59.9538 79.3775 60.9899 79.6284 61.89 80.1732Z" fill="#333333"/>
<path opacity="0.1" d="M61.2696 83.5054C61.2629 83.5501 61.267 83.5958 61.2813 83.6387C61.2957 83.6816 61.32 83.7205 61.3523 83.7523C61.4095 83.474 61.3346 83.18 61.3937 82.8997C61.4804 82.4783 61.892 82.1608 61.9275 81.7374C61.1731 81.5904 61.2755 83.0506 61.2696 83.5054Z" fill="#5BAA00"/>
<path opacity="0.2" d="M96 68.1777V70.1084L87.9911 70.5925L87.7488 68.6599L96 68.1777Z" fill="#5BAA00"/>
<path d="M60.5171 71.3C61.0174 70.8943 60.7279 70.0436 61.0667 69.4988C61.2637 69.2008 61.5965 69.044 61.9235 68.9107C62.3181 68.727 62.7409 68.6104 63.1743 68.5658C63.3913 68.545 63.6103 68.5732 63.8149 68.6482C64.0195 68.7232 64.2045 68.8431 64.3561 68.9989C64.4842 69.144 64.5708 69.3204 64.691 69.4713C64.8398 69.6474 65.0337 69.7801 65.2522 69.8553C65.4707 69.9305 65.7056 69.9455 65.9319 69.8986C66.1939 69.8398 66.4657 69.6418 66.448 69.3753C66.4184 69.2131 66.3352 69.0655 66.2116 68.9558L65.6483 68.3345C65.0081 67.6289 64.2971 66.8801 63.3575 66.7037C62.7035 66.5802 62.0338 66.7547 61.4035 66.9644C61.1494 67.0487 60.8638 67.1741 60.7929 67.4309C60.7456 67.6073 60.8165 67.7994 60.7752 67.9778C60.6944 68.3325 60.2374 68.4521 60.0247 68.75C59.812 69.0479 59.877 69.4008 59.8159 69.73C59.7548 70.0593 59.5776 70.3808 59.5559 70.7218C59.5421 70.9276 59.6465 71.3098 59.8789 71.3843C60.1114 71.4588 60.3733 71.055 60.5171 71.3Z" fill="#C8996B"/>
<path d="M66.257 69.0932C66.0909 68.2308 65.7328 67.4164 65.209 66.7097C64.7433 66.0495 64.0955 65.5375 63.3437 65.2358C62.9679 65.0896 62.5637 65.0301 62.1615 65.0617C61.7593 65.0933 61.3695 65.2151 61.0214 65.4181C60.5046 65.7851 60.1024 66.2899 59.8612 66.8744C59.351 67.9681 59.1619 69.3048 59.7548 70.3554C59.9912 70.0693 60.397 70.1986 60.7555 70.0947C61.2046 69.9673 61.5847 69.6694 62.0122 69.4832C63.3023 68.9167 64.8781 69.3754 66.257 69.0932Z" fill="#FED253"/>
<path opacity="0.1" d="M60.0561 69.0324C60.0108 68.6796 59.9813 68.2699 60.2334 68.0191C60.2459 68.0037 60.2619 67.9914 60.28 67.9833C60.2981 67.9751 60.3179 67.9713 60.3378 67.972C60.3554 67.9777 60.3716 67.9869 60.3855 67.999C60.3994 68.0112 60.4106 68.026 60.4186 68.0426C60.5641 68.2711 60.6881 68.5126 60.7889 68.7639C60.6421 68.7302 60.4885 68.7412 60.348 68.7953C60.2076 68.8495 60.0867 68.9444 60.001 69.0677" fill="#5BAA00"/>
<path opacity="0.1" d="M64.6595 68.0366L64.5886 67.3368C64.5771 67.2792 64.5819 67.2195 64.6023 67.1643C64.632 67.1182 64.6779 67.0846 64.731 67.0701C64.7841 67.0556 64.8407 67.0613 64.8899 67.0859C64.9868 67.1394 65.0667 67.2188 65.1204 67.3153C65.2844 67.5657 65.4204 67.8332 65.5262 68.113C65.2089 68.0522 64.8825 68.0562 64.5669 68.1248" fill="#5BAA00"/>
<path opacity="0.1" d="M66.4225 96.4358V98.0352L65.0653 98.1254H57.927V96.4358H66.4225Z" fill="#5BAA00"/>
<path d="M66.4224 96.4358V98.1254H57.927L35.3577 69.9927V68.6638H40.089L66.4224 96.4358Z" fill="#F1C0C0"/>
<path opacity="0.1" d="M66.4224 96.4358V98.1254H57.927L35.3577 69.9927V68.6638H40.089L66.4224 96.4358Z" fill="#5BAA00"/>
<path opacity="0.1" d="M66.4224 96.4358V98.1254H57.927L35.3577 69.9927V68.6638L58.0491 96.4358H66.4224Z" fill="#5BAA00"/>
<path d="M38.3161 124.633C38.331 124.713 38.3292 124.794 38.3109 124.873C38.2926 124.952 38.2581 125.026 38.2097 125.091C38.1612 125.156 38.0999 125.21 38.0294 125.251C37.9589 125.291 37.8809 125.316 37.8001 125.325C37.2525 125.509 36.6714 125.692 36.2834 126.109C35.8953 126.527 35.8185 127.301 36.2834 127.64C36.521 127.783 36.7938 127.857 37.0713 127.854C37.9636 127.914 38.8933 127.903 39.7028 127.526C40.282 127.26 40.8276 126.805 41.4638 126.846C41.7927 126.866 42.1434 127.019 42.4368 126.87C42.7303 126.721 42.8131 126.305 42.815 125.958C42.8225 125.234 42.7128 124.513 42.49 123.824C42.4605 123.73 41.2077 123.657 41.058 123.628L39.5394 123.432C39.2518 123.394 38.6313 123.179 38.4048 123.418C38.1783 123.657 38.3161 124.349 38.3161 124.633Z" fill="#333333"/>
<path d="M47.3788 119.741C47.4431 120.094 47.5475 120.439 47.6901 120.768C47.9008 121.301 48.1707 121.868 48.6867 122.126C49.1555 122.36 49.7307 122.275 50.2074 122.054C50.4063 121.972 50.5807 121.84 50.7136 121.672C50.8674 121.405 50.9361 121.098 50.9106 120.792C50.9106 120.033 50.8653 119.249 50.5166 118.575C50.2172 117.987 49.6953 117.481 49.6874 116.83L47.8929 117.175C47.7969 117.184 47.7054 117.22 47.629 117.279C47.5721 117.339 47.5326 117.413 47.5148 117.493C47.3232 118.226 47.277 118.99 47.3788 119.741V119.741Z" fill="#333333"/>
<path d="M25.9501 101.12C25.8753 101.752 25.9068 102.428 26.2377 102.973C26.5686 103.518 27.2659 103.878 27.8687 103.661C27.8995 103.653 27.9285 103.639 27.9539 103.62C27.9793 103.6 28.0005 103.576 28.0164 103.549C28.0324 103.483 28.0233 103.413 27.9908 103.353C27.7247 102.646 27.7466 101.864 28.0518 101.173C28.0912 101.083 28.1759 100.977 28.2685 101.013C28.3072 101.032 28.3384 101.064 28.3571 101.103C28.4525 101.267 28.5002 101.454 28.495 101.644C28.4672 101.815 28.4619 101.99 28.4793 102.163C28.5167 102.332 28.6979 102.49 28.8555 102.418C28.901 102.39 28.9404 102.353 28.9712 102.31C29.0021 102.266 29.0237 102.217 29.0347 102.165C29.474 100.901 29.275 99.519 29.0741 98.196C29.0758 98.1656 29.0708 98.1352 29.0593 98.107C29.0479 98.0788 29.0304 98.0534 29.0081 98.0326C28.9857 98.0119 28.9591 97.9963 28.93 97.9869C28.9009 97.9775 28.8701 97.9746 28.8397 97.9784C27.91 97.8863 27.4018 97.6648 26.87 98.5253C26.413 99.2505 25.9501 100.248 25.9501 101.12Z" fill="#333333"/>
<path d="M36.819 97.9039C36.5433 99.0447 36.2655 100.199 36.2478 101.371C36.2526 102.101 36.3079 102.83 36.4133 103.553L36.6201 105.25C36.691 105.823 36.7599 106.393 36.8604 106.959C36.9245 107.251 36.9594 107.549 36.9648 107.847C36.9455 108.142 36.8986 108.434 36.8249 108.719C36.7011 109.32 36.6319 109.93 36.6181 110.542C36.5964 111.522 36.7186 112.502 36.7954 113.482C36.9488 115.435 36.9257 117.398 36.7264 119.347C36.6469 119.873 36.7617 120.41 37.0495 120.858C37.1663 120.999 37.2624 121.157 37.3351 121.325C37.4828 121.773 37.1381 122.222 37.0495 122.683C36.9928 123.042 37.0817 123.409 37.2966 123.703C37.5116 123.997 37.835 124.194 38.1959 124.251C39.7717 124.437 41.3908 124.353 42.811 125.07C42.9607 124.635 42.6337 124.141 42.7834 123.698C42.8779 123.424 43.138 123.245 43.3152 123.014C43.5534 122.662 43.6721 122.243 43.654 121.819C43.661 121.265 43.5621 120.715 43.3625 120.198C43.1951 119.766 42.9548 119.341 42.9686 118.878C42.9686 118.651 43.0493 118.412 42.9567 118.202C42.8932 118.082 42.807 117.975 42.7026 117.887C42.114 117.245 41.7522 116.429 41.6725 115.564C41.5957 114.705 41.6234 113.841 41.7552 112.988C41.8517 112.177 41.9817 111.32 42.4998 110.687C42.2595 108.768 42.4007 106.82 42.9154 104.954C42.9666 104.782 43.0474 104.582 43.2246 104.541C43.2951 104.533 43.3662 104.543 43.432 104.569C43.4978 104.595 43.5564 104.636 43.6028 104.69C43.9121 104.978 44.0598 105.395 44.1937 105.795C44.3415 106.228 44.4912 106.691 44.3789 107.134C44.3316 107.33 44.2371 107.502 44.1819 107.69C44.0621 108.069 44.0831 108.477 44.241 108.841C44.318 108.974 44.3663 109.122 44.3828 109.274C44.3646 109.405 44.3246 109.532 44.2647 109.651C44.1916 109.882 44.1684 110.127 44.1966 110.369C44.2247 110.61 44.3036 110.843 44.4281 111.052C44.6792 111.468 44.989 111.846 45.348 112.175C45.1765 112.927 45.2208 113.712 45.476 114.441C45.4945 114.474 45.5062 114.51 45.5106 114.547C45.515 114.584 45.5119 114.622 45.5016 114.658C45.4662 114.733 45.3756 114.76 45.3047 114.813C45.1077 114.974 45.2298 115.278 45.3618 115.488C45.7235 116.063 46.1229 116.615 46.5574 117.138C46.9514 117.606 46.9159 118.51 47.5029 118.679C47.7496 118.732 48.0047 118.732 48.2514 118.679C48.8305 118.59 49.4766 118.424 49.7602 117.914C49.8764 117.704 49.9237 117.45 50.1049 117.293C50.2861 117.136 50.5205 117.109 50.621 116.92C50.7215 116.732 50.6092 116.485 50.6427 116.268C50.6762 116.05 50.8672 115.876 50.9283 115.646C51.074 115.117 50.4536 114.682 50.3689 114.141C50.2468 113.357 51.2395 112.769 51.1981 111.985C51.1115 110.282 51.0563 108.571 50.9677 106.867C50.8564 105.342 50.8406 103.81 50.9204 102.283C50.9893 101.332 51.1174 100.336 50.7668 99.4524C50.2625 98.2058 48.8719 97.506 47.5265 97.3727C46.1812 97.2395 44.8398 97.557 43.5063 97.7647C41.2931 98.1042 39.0445 98.151 36.819 97.9039V97.9039Z" fill="#5BAA00"/>
<path d="M40.8176 79.1697C42.5604 79.1697 43.9732 77.7638 43.9732 76.0297C43.9732 74.2955 42.5604 72.8896 40.8176 72.8896C39.0749 72.8896 37.6621 74.2955 37.6621 76.0297C37.6621 77.7638 39.0749 79.1697 40.8176 79.1697Z" fill="#FBBEBE"/>
<path d="M39.5334 79.7558C39.4262 80.0041 39.246 80.2144 39.0164 80.3589C38.7868 80.5034 38.5186 80.5753 38.2472 80.5653C38.1329 81.0357 38.4067 81.51 38.7199 81.8805C39.3703 82.6335 40.2107 83.2003 41.1545 83.5225C42.0984 83.8446 43.1115 83.9104 44.0894 83.7131C44.47 83.6453 44.831 83.4955 45.1472 83.2741C45.5734 82.9199 45.8596 82.4268 45.9548 81.8824C46.0454 81.3418 46.0712 80.7924 46.0316 80.2458C46.0426 80.1378 46.0116 80.0298 45.9449 79.9439C45.8661 79.8832 45.7688 79.8514 45.6692 79.8538C45.0034 79.795 44.3081 79.7695 43.7231 79.4441C43.138 79.1187 42.7224 78.3837 43.0041 77.78C42.9588 77.8741 41.8085 77.9192 41.6568 77.9388C41.1821 78.0054 40.7074 78.0799 40.2346 78.1662C40.0075 78.1786 39.783 78.2207 39.5669 78.2916C39.2813 78.4386 39.3877 78.3661 39.4546 78.6327C39.5551 79.0403 39.7028 79.3324 39.5334 79.7558Z" fill="#FBBEBE"/>
<path d="M41.9346 81.6648C41.5096 81.6697 41.0856 81.623 40.6719 81.5257C40.2543 81.4286 39.8862 81.1842 39.6359 80.8377C39.4901 80.6181 39.3956 80.3418 39.1631 80.2183C38.783 80.0223 38.3496 80.3535 38.0463 80.6573C37.7701 80.957 37.45 81.2134 37.0969 81.4178C36.6753 81.6393 36.1829 81.7177 35.785 81.9784C35.4742 82.2121 35.2074 82.4988 34.9971 82.8252L32.206 86.6081C31.0852 88.1291 30.1102 89.7618 29.1115 91.3671C28.2468 92.7568 27.7938 94.3562 27.1418 95.8556C27.0902 95.9474 27.0688 96.053 27.0807 96.1574C27.1044 96.2594 27.2285 96.3417 27.3151 96.2829C27.0216 96.573 27.2797 97.0669 27.2107 97.4746C27.1324 97.7599 26.9689 98.0148 26.7419 98.2057C27.1755 98.1494 27.6156 98.17 28.042 98.2665C28.4826 98.3907 28.8984 98.5897 29.2711 98.8545C29.5094 98.8172 29.4878 98.3958 29.665 98.239C29.7714 98.1469 29.929 98.1587 30.0688 98.1312C30.5948 98.0293 30.8035 97.4001 31.2073 97.0454C31.5442 96.7494 32.0208 96.6533 32.3774 96.375C32.9565 95.9222 33.0806 95.1167 33.3839 94.4483C33.6419 93.8818 34.0477 93.3879 34.2742 92.8077C34.422 92.4314 34.4929 92.0237 34.7036 91.6768C35.0405 91.1162 35.6747 90.8183 36.2794 90.5497C36.6616 90.3792 37.0673 90.2028 37.479 90.2302C37.4573 91.1417 37.3411 92.0394 37.5401 92.9292C37.609 93.2429 37.7055 93.5486 37.7882 93.8603C38.1645 95.2637 38.2531 96.7259 38.2708 98.1724C39.1758 97.9663 40.1002 97.856 41.0285 97.8431C41.7592 97.8215 42.4881 97.9156 43.2188 97.9019C44.0855 97.8862 44.9423 97.7196 45.809 97.6608C46.6757 97.602 47.5818 97.6608 48.348 98.0528C48.2858 96.8106 48.3207 95.5655 48.4524 94.3287L48.6612 92.3804C48.7083 91.8144 48.7959 91.2524 48.9232 90.6987C49.0374 90.2518 49.2029 89.8206 49.329 89.3757C49.7721 87.8076 49.6914 86.1337 49.6067 84.501C49.5634 83.6621 49.2384 82.8369 48.8562 82.0902C48.7179 81.8128 48.5599 81.5455 48.3835 81.2904C47.9217 80.6574 47.3063 80.151 46.5947 79.8185C45.8831 79.486 45.0985 79.3383 44.314 79.3892C44.2138 79.3923 44.115 79.4135 44.0225 79.4519C43.8562 79.5578 43.7264 79.7117 43.6502 79.8929C43.2427 80.6218 42.6514 81.2325 41.9346 81.6648Z" fill="#5BAA00"/>
<path d="M38.0423 77.0705C38.131 76.8745 38.3693 76.802 38.5151 76.6452C38.7948 76.3473 38.6687 75.871 38.712 75.4692C38.7829 74.8811 39.2734 74.3892 39.8348 74.1794C40.4073 73.9966 41.0165 73.9582 41.6076 74.0677C41.8921 74.0884 42.167 74.1793 42.4073 74.3323C42.5097 74.4068 42.6042 74.5028 42.7008 74.5715C42.8767 74.6773 43.0872 74.7105 43.2874 74.664C43.4876 74.6174 43.6616 74.4949 43.7723 74.3225C43.075 73.4875 42.3029 72.6055 41.2432 72.3487C40.8796 72.2749 40.5091 72.2401 40.1381 72.2449C39.6477 72.2351 39.1414 72.2272 38.6884 72.4134C38.0719 72.6663 37.6385 73.2484 37.4159 73.8756C37.2213 74.5114 37.1172 75.1712 37.1067 75.8357C37.0663 76.2791 37.0663 76.7252 37.1067 77.1685C37.1828 77.774 37.4089 78.3512 37.7646 78.8483C37.8127 78.9255 37.8807 78.9884 37.9616 79.0306C38.8598 79.4226 37.9694 77.2332 38.0423 77.0705Z" fill="#C8996B"/>
<path d="M43.67 73.8383C43.5616 72.9152 42.8998 72.1527 42.1966 71.5392C41.6298 71.0072 40.9547 70.6028 40.217 70.3534C39.4744 70.1358 38.6196 70.1828 37.9833 70.6238C37.4712 70.9786 37.1462 71.5431 36.896 72.1115C36.5674 72.7823 36.4047 73.5215 36.4213 74.2676C36.4706 75.0085 36.833 75.7592 37.4791 76.1336C37.7115 75.7925 38.1153 75.6161 38.5033 75.4769C40.1946 74.8384 41.9193 74.2914 43.67 73.8383V73.8383Z" fill="#FED253"/>
<path opacity="0.1" d="M37.6957 73.4542C37.7587 73.4542 37.8001 73.5189 37.8316 73.5718C37.992 73.8204 38.1297 74.0828 38.2433 74.3558C38.0128 74.4048 37.6169 74.4597 37.5026 74.2578C37.4416 74.1559 37.5145 73.4444 37.6957 73.4542Z" fill="#5BAA00"/>
<path opacity="0.1" d="M42.1847 73.0113C42.1374 73.0564 42.0822 72.9643 42.0822 72.8976V72.1371C42.081 72.116 42.0857 72.0949 42.096 72.0764C42.1042 72.0671 42.1142 72.0595 42.1253 72.0541C42.1365 72.0487 42.1486 72.0456 42.161 72.045C42.3206 72.0274 42.4526 72.1626 42.555 72.292C42.7104 72.5016 42.8456 72.7254 42.9588 72.9604L42.1256 72.9349" fill="#5BAA00"/>
<path d="M52.5829 85.6045C52.7642 85.4333 52.9577 85.2754 53.162 85.1321C53.7076 84.7695 54.3675 84.6265 54.9801 84.3952C55.5927 84.1639 56.2151 83.7895 56.4535 83.1819C56.5728 82.8019 56.6117 82.4015 56.5677 82.0059C56.5734 81.8402 56.5439 81.6752 56.481 81.5217C56.4061 81.3861 56.2993 81.2704 56.1698 81.1846C55.3386 80.5731 54.2237 80.5241 53.1916 80.5868C50.916 80.7272 48.6856 81.2812 46.6107 82.2215C46.5009 82.2575 46.4048 82.3259 46.3349 82.4175C46.2945 82.5024 46.2762 82.5961 46.2817 82.6899C46.245 83.2679 46.3206 83.8476 46.5043 84.3971C46.7761 85.0949 47.3355 85.6574 47.5699 86.3689C47.6763 86.6884 47.7118 87.0275 47.8043 87.349C47.8803 87.6809 48.0776 87.973 48.3578 88.1683C49.1359 88.6308 49.8706 88.0095 50.4103 87.5273L52.5829 85.6045Z" fill="#5BAA00"/>
<path d="M42.3935 88.3192L41.3948 86.1514C41.2484 85.851 41.122 85.5413 41.0166 85.2243C40.9024 84.846 40.8472 84.454 40.7408 84.0737C40.3902 82.8075 39.5058 81.753 39.0745 80.5123C39.0472 80.4003 38.9916 80.2971 38.9129 80.2124C38.85 80.1681 38.778 80.1381 38.7021 80.1246C38.6262 80.111 38.5482 80.1142 38.4737 80.134C37.8709 80.2379 37.4002 80.6946 36.8486 80.9533C36.5926 81.0709 36.3168 81.1493 36.0607 81.2846C35.9328 81.3449 35.8193 81.432 35.7282 81.5399C35.6371 81.6478 35.5705 81.774 35.5329 81.9098C35.4718 82.2097 35.6215 82.4978 35.7476 82.7899C36.2833 83.9934 36.4055 85.338 36.4291 86.6551C36.4468 87.5411 36.4015 88.4917 35.8756 89.2032C34.8651 90.5752 35.5112 92.5902 35.8894 94.2503C35.9347 94.4463 35.9879 94.658 36.0194 94.8658C36.0527 95.1258 36.0679 95.3877 36.0647 95.6498C36.0647 96.5299 36.0154 97.4374 35.6451 98.2351C36.0107 98.4287 36.4137 98.5423 36.827 98.5683C37.9707 98.7134 39.1191 98.8153 40.2721 98.8741C40.6333 98.9079 40.9975 98.8894 41.3534 98.8192C41.7761 98.7055 42.1487 98.455 42.4123 98.1071C42.6759 97.7593 42.8155 97.334 42.8091 96.8984C42.8721 97.4413 42.9883 98.0313 43.3842 98.4076C43.7802 98.7839 44.3573 98.8408 44.895 98.8702C46.4127 98.9503 47.9344 98.9077 49.4451 98.7428C49.5416 98.7384 49.6364 98.7165 49.7248 98.6781C50.0164 98.533 50.0321 98.1332 50.0085 97.8117C49.9651 97.21 49.9198 96.6083 49.847 96.0104C49.7852 95.6293 49.7536 95.244 49.7524 94.8579C49.7824 94.4608 49.8484 94.0672 49.9494 93.6819C50.2133 92.4588 50.4221 91.2103 50.3335 89.9578C50.2985 89.6527 50.2859 89.3455 50.2961 89.0385C50.3473 88.3466 50.7136 87.6881 50.6447 87.0001C50.4477 84.9773 50.2882 82.9016 49.7209 80.9494C49.6185 80.6005 49.4885 80.2261 49.1832 80.0262C48.7892 79.7636 48.2357 79.9008 47.7846 79.7342C47.573 79.6362 47.3717 79.5173 47.1839 79.3794C46.7757 79.1254 46.3078 78.9821 45.8267 78.9639C45.4643 78.9501 45.0605 79.0305 44.8419 79.3206C44.7406 79.4839 44.6736 79.6659 44.6449 79.8557C44.3593 81.0513 44.0244 82.2332 43.6896 83.4151L43.3685 84.5481L42.5077 87.5901C42.423 87.9135 42.4801 88.0134 42.3935 88.3192Z" fill="#333333"/>
<path d="M47.4302 76.4512L66.4835 96.3751V98.0647H57.988L43.6699 79.4697" fill="#F1C0C0"/>
<path opacity="0.1" d="M47.4302 76.4512L66.4835 96.3751V98.0647H57.988L43.6699 79.4697" fill="#5BAA00"/>
<path opacity="0.1" d="M43.9733 79.207L44.0343 79.2286L58.1101 96.3751H66.4835V98.0647H57.988L43.6699 79.4697L43.9733 79.207Z" fill="#5BAA00"/>
<path d="M46.1657 79.6265C45.4762 79.9264 44.71 80.3105 44.5032 81.0318C44.4624 81.1584 44.4536 81.2931 44.4776 81.4239C44.528 81.5776 44.624 81.7126 44.7531 81.8109C44.8822 81.9093 45.0381 81.9663 45.2005 81.9746C45.5248 81.9825 45.8474 81.9237 46.1479 81.8021L50.2154 80.4654C50.3257 80.4301 50.4518 80.3772 50.4794 80.2694C50.4865 80.2016 50.4727 80.1332 50.44 80.0734C50.3139 79.7676 50.1898 79.1424 49.9259 78.9287C49.7092 78.7562 49.2798 78.817 49.0178 78.8209C48.0093 78.8287 47.0619 79.2345 46.1657 79.6265Z" fill="#333333"/>
<path d="M49.7918 80.624C50.477 80.622 51.1583 80.7272 51.8107 80.9357C52.4661 81.1474 53.0465 81.542 53.483 82.0725C53.6102 82.2208 53.7006 82.3967 53.747 82.586C53.7864 82.782 54.4285 82.8996 54.2867 83.0329C54.7181 82.9643 54.6156 83.1662 55.0529 83.1623C55.4902 83.1584 55.963 83.0466 56.2249 82.6997C56.4069 82.4147 56.488 82.0774 56.4554 81.7412C56.4611 81.5085 56.4168 81.2773 56.3254 81.0631C56.1284 80.6515 55.6754 80.43 55.2578 80.2398L51.7398 78.6385C51.5357 78.5305 51.3167 78.4532 51.0898 78.4092C50.8989 78.3912 50.7065 78.3958 50.5166 78.4229L48.9231 78.6052C49.2716 78.8296 49.5553 79.1405 49.7463 79.5072C49.9373 79.8739 50.029 80.2838 50.0124 80.6965" fill="#5BAA00"/>
</g>
<defs>
<clipPath id="clip0_409_9698">
<rect width="200" height="140" fill="white"/>
</clipPath>
</defs>
</svg>
