<svg width="196" height="140" viewBox="0 0 196 140" fill="none" xmlns="http://www.w3.org/2000/svg">
<g clip-path="url(#clip0_903_272)">
<path d="M91.2371 104.063H1.9161C1.64087 104.063 1.37702 103.954 1.1824 103.762C0.987784 103.57 0.878289 103.309 0.87793 103.037V21.0679C0.878291 20.7959 0.987788 20.5352 1.1824 20.3429C1.37702 20.1505 1.64087 20.0423 1.9161 20.042H91.2371C91.5123 20.0423 91.7762 20.1505 91.9708 20.3429C92.1654 20.5352 92.2749 20.7959 92.2753 21.0679V103.037C92.2749 103.309 92.1655 103.57 91.9708 103.762C91.7762 103.954 91.5123 104.062 91.2371 104.063V104.063Z" fill="#C8996B"/>
<path d="M105.317 116.321H15.9962C15.7209 116.32 15.4571 116.212 15.2625 116.02C15.0679 115.828 14.9584 115.567 14.958 115.295V33.3257C14.9584 33.0537 15.0679 32.793 15.2625 32.6007C15.4571 32.4084 15.7209 32.3002 15.9962 32.2998H105.317C105.592 32.3002 105.856 32.4084 106.051 32.6007C106.245 32.793 106.355 33.0537 106.355 33.3257V115.295C106.355 115.567 106.246 115.827 106.051 116.02C105.856 116.212 105.592 116.32 105.317 116.321V116.321Z" fill="white"/>
<path d="M105.317 116.321H15.9962C15.7209 116.32 15.4571 116.212 15.2625 116.02C15.0679 115.828 14.9584 115.567 14.958 115.295V33.3257C14.9584 33.0537 15.0679 32.793 15.2625 32.6007C15.4571 32.4084 15.7209 32.3002 15.9962 32.2998H105.317C105.592 32.3002 105.856 32.4084 106.051 32.6007C106.245 32.793 106.355 33.0537 106.355 33.3257V115.295C106.355 115.567 106.246 115.827 106.051 116.02C105.856 116.212 105.592 116.32 105.317 116.321V116.321ZM15.9962 32.7094C15.8312 32.7097 15.6731 32.7746 15.5565 32.8899C15.4399 33.0051 15.3742 33.1614 15.3738 33.3244V115.295C15.3742 115.458 15.4399 115.614 15.5565 115.729C15.6731 115.844 15.8312 115.909 15.9962 115.91H105.317C105.482 115.909 105.64 115.844 105.757 115.729C105.874 115.614 105.939 115.458 105.94 115.295V33.3257C105.939 33.1627 105.873 33.0065 105.757 32.8912C105.64 32.776 105.482 32.7111 105.317 32.7107L15.9962 32.7094Z" fill="#E6E6E6"/>
<path d="M88.6892 69.0464H32.6251C32.3498 69.0461 32.086 68.9379 31.8913 68.7456C31.6967 68.5532 31.5872 68.2925 31.5869 68.0205V43.7075C31.5872 43.4355 31.6967 43.1748 31.8913 42.9825C32.086 42.7901 32.3498 42.6819 32.6251 42.6816H88.6892C88.9644 42.6819 89.2283 42.7901 89.4229 42.9825C89.6175 43.1748 89.727 43.4355 89.7273 43.7075V68.0205C89.727 68.2925 89.6176 68.5532 89.4229 68.7456C89.2283 68.9379 88.9644 69.0461 88.6892 69.0464Z" fill="#5BAA00"/>
<path d="M41.3197 53.0781C41.133 53.0785 40.954 53.152 40.8222 53.2826C40.6903 53.4132 40.6162 53.5901 40.6162 53.7746C40.6162 53.9591 40.6903 54.136 40.8222 54.2666C40.954 54.3972 41.133 54.4707 41.3197 54.4711H79.9944C80.1811 54.4707 80.36 54.3972 80.4919 54.2666C80.6238 54.136 80.6978 53.9591 80.6978 53.7746C80.6978 53.5901 80.6238 53.4132 80.4919 53.2826C80.36 53.152 80.1811 53.0785 79.9944 53.0781H41.3197Z" fill="white"/>
<path d="M41.3197 57.2568C41.133 57.2572 40.954 57.3307 40.8222 57.4613C40.6903 57.5919 40.6162 57.7688 40.6162 57.9533C40.6162 58.1378 40.6903 58.3148 40.8222 58.4453C40.954 58.5759 41.133 58.6495 41.3197 58.6498H61.0639C61.2506 58.6495 61.4295 58.5759 61.5614 58.4453C61.6933 58.3148 61.7674 58.1378 61.7674 57.9533C61.7674 57.7688 61.6933 57.5919 61.5614 57.4613C61.4295 57.3307 61.2506 57.2572 61.0639 57.2568H41.3197Z" fill="white"/>
<path d="M24.3988 78.0078C24.2121 78.0082 24.0332 78.0817 23.9013 78.2123C23.7694 78.3429 23.6953 78.5198 23.6953 78.7043C23.6953 78.8888 23.7694 79.0657 23.9013 79.1963C24.0332 79.3269 24.2121 79.4004 24.3988 79.4008H96.914C97.1007 79.4004 97.2797 79.3269 97.4115 79.1963C97.5434 79.0657 97.6175 78.8888 97.6175 78.7043C97.6175 78.5198 97.5434 78.3429 97.4115 78.2123C97.2797 78.0817 97.1007 78.0082 96.914 78.0078H24.3988Z" fill="#E6E6E6"/>
<path d="M24.3988 82.1875C24.2121 82.1879 24.0332 82.2614 23.9013 82.392C23.7694 82.5225 23.6953 82.6995 23.6953 82.884C23.6953 83.0685 23.7694 83.2454 23.9013 83.376C24.0332 83.5066 24.2121 83.5801 24.3988 83.5805H77.9836C78.1702 83.5801 78.3492 83.5066 78.4811 83.376C78.613 83.2454 78.687 83.0685 78.687 82.884C78.687 82.6995 78.613 82.5225 78.4811 82.392C78.3492 82.2614 78.1702 82.1879 77.9836 82.1875H24.3988Z" fill="#E6E6E6"/>
<path d="M24.3988 86.2715C24.2121 86.2718 24.0332 86.3454 23.9013 86.476C23.7694 86.6065 23.6953 86.7835 23.6953 86.968C23.6953 87.1525 23.7694 87.3294 23.9013 87.46C24.0332 87.5906 24.2121 87.6641 24.3988 87.6645H96.914C97.1007 87.6641 97.2797 87.5906 97.4115 87.46C97.5434 87.3294 97.6175 87.1525 97.6175 86.968C97.6175 86.7835 97.5434 86.6065 97.4115 86.476C97.2797 86.3454 97.1007 86.2718 96.914 86.2715H24.3988Z" fill="#E6E6E6"/>
<path d="M24.3988 90.4512C24.2121 90.4515 24.0332 90.5251 23.9013 90.6556C23.7694 90.7862 23.6953 90.9632 23.6953 91.1477C23.6953 91.3321 23.7694 91.5091 23.9013 91.6397C24.0332 91.7702 24.2121 91.8438 24.3988 91.8441H77.9836C78.1702 91.8438 78.3492 91.7702 78.4811 91.6397C78.613 91.5091 78.687 91.3321 78.687 91.1477C78.687 90.9632 78.613 90.7862 78.4811 90.6556C78.3492 90.5251 78.1702 90.4515 77.9836 90.4512H24.3988Z" fill="#E6E6E6"/>
<path d="M96.466 106.711H75.2149C74.9397 106.711 74.6758 106.603 74.4812 106.411C74.2865 106.218 74.1771 105.957 74.1768 105.685V102.321C74.1771 102.049 74.2865 101.788 74.4812 101.596C74.6758 101.403 74.9397 101.295 75.2149 101.295H96.466C96.7413 101.295 97.0052 101.403 97.1998 101.596C97.3944 101.788 97.5039 102.049 97.5042 102.321V105.685C97.5039 105.957 97.3944 106.218 97.1998 106.411C97.0052 106.603 96.7413 106.711 96.466 106.711V106.711Z" fill="#5BAA00"/>
<path d="M142.143 33.4791L106.238 51.6279L106.475 52.0861L142.38 33.9373L142.143 33.4791Z" fill="#E5E5E5"/>
<path d="M106.473 99.2352L106.236 99.6934L142.144 117.837L142.381 117.379L106.473 99.2352Z" fill="#E5E5E5"/>
<path d="M195.878 27.0221C195.877 32.0018 194.484 36.8846 191.854 41.1322C189.224 45.3799 185.458 48.8274 180.971 51.0948C180.739 51.2132 180.505 51.329 180.271 51.4371C180.133 51.504 179.994 51.5658 179.856 51.6276C179.518 51.7794 179.174 51.9261 178.828 52.0625C177.596 52.5603 176.327 52.9656 175.033 53.2746C174.851 53.321 174.663 53.3621 174.479 53.4033C174.012 53.5062 173.543 53.5954 173.07 53.6709C170.487 54.0983 167.856 54.1589 165.257 53.8511C164.718 53.7893 164.183 53.7104 163.652 53.6143C163.4 53.568 163.147 53.5191 162.897 53.4676C162.863 53.4599 162.829 53.4522 162.795 53.4471C161.898 53.2604 161.011 53.0267 160.139 52.7471C159.67 52.5978 159.204 52.4382 158.748 52.2632C158.511 52.1732 158.277 52.0805 158.045 51.9853C157.931 51.939 157.816 51.8901 157.704 51.8412C153.172 49.9104 149.253 46.8035 146.362 42.8499C143.472 38.8964 141.718 34.2436 141.287 29.3849C140.856 24.5263 141.764 19.6429 143.914 15.2526C146.064 10.8624 149.376 7.12894 153.499 4.44818C157.622 1.76743 162.403 0.239317 167.334 0.0258913C172.265 -0.187534 177.162 0.921687 181.507 3.23592C185.851 5.55016 189.481 8.98314 192.011 13.1708C194.542 17.3585 195.878 22.1448 195.878 27.0221V27.0221Z" fill="#F1F1F1"/>
<path d="M195.878 112.978C195.872 117.332 194.804 121.621 192.766 125.481C190.727 129.341 187.778 132.659 184.167 135.154C184.099 135.201 184.031 135.247 183.964 135.291C183.568 135.561 183.164 135.821 182.75 136.065C182.487 136.225 182.219 136.379 181.951 136.531C181.628 136.711 181.302 136.884 180.971 137.051C180.896 137.09 180.82 137.128 180.742 137.164C180.466 137.303 180.187 137.437 179.904 137.563C179.888 137.571 179.872 137.576 179.857 137.584C179.763 137.625 179.667 137.669 179.568 137.71C178.956 137.977 178.331 138.224 177.692 138.446C177.648 138.464 177.601 138.479 177.554 138.495C176.093 139.002 174.59 139.381 173.062 139.627C172.773 139.678 172.481 139.72 172.19 139.758C172.143 139.766 172.093 139.774 172.046 139.779C171.648 139.83 171.247 139.872 170.843 139.905C170.796 139.91 170.749 139.913 170.702 139.915C170.4 139.941 170.096 139.959 169.788 139.972C169.372 139.99 168.955 140 168.533 140C167.942 140 167.354 139.982 166.77 139.946C166.262 139.913 165.757 139.869 165.257 139.807C164.952 139.771 164.647 139.73 164.348 139.684C164.017 139.635 163.686 139.578 163.361 139.516C163.199 139.485 163.038 139.452 162.876 139.419C162.85 139.413 162.822 139.408 162.796 139.403C162.535 139.349 162.278 139.292 162.022 139.228C161.01 138.987 160.014 138.686 159.038 138.327C158.704 138.204 158.374 138.075 158.045 137.941C157.944 137.9 157.842 137.856 157.743 137.813C157.564 137.738 157.387 137.658 157.209 137.578C157.077 137.519 156.944 137.458 156.811 137.396C156.53 137.267 156.254 137.131 155.978 136.989C155.756 136.878 155.535 136.76 155.319 136.642C155.313 136.639 155.311 136.637 155.306 136.634C151.085 134.33 147.556 130.963 145.076 126.876C142.596 122.789 141.255 118.127 141.186 113.362C141.118 108.598 142.326 103.9 144.688 99.7452C147.049 95.5906 150.481 92.1269 154.634 89.7054C158.787 87.2839 163.514 85.9906 168.337 85.9567C173.159 85.9229 177.904 87.1496 182.092 89.5125C186.279 91.8754 189.76 95.2905 192.181 99.4115C194.603 103.533 195.878 108.213 195.878 112.978V112.978Z" fill="#F1F1F1"/>
<path d="M168.366 22.2588C166.4 22.2611 164.515 23.034 163.124 24.4081C161.734 25.7821 160.952 27.645 160.949 29.5882V35.057C160.95 35.318 161.055 35.5681 161.242 35.7524C161.429 35.9367 161.683 36.0402 161.947 36.04H174.786C175.05 36.0402 175.303 35.9367 175.49 35.7524C175.678 35.5681 175.783 35.318 175.783 35.057V29.5882C175.781 27.6451 174.999 25.7823 173.608 24.4083C172.218 23.0343 170.333 22.2613 168.366 22.2588V22.2588Z" fill="#2F2E41"/>
<path d="M164.577 45.2684L163.866 42.1029C163.766 41.6531 163.533 41.2428 163.197 40.9243C162.897 40.6672 162.547 40.4752 162.168 40.3607C162.124 40.3504 162.079 40.3401 162.033 40.3323C162.013 40.3268 161.993 40.3225 161.973 40.3195C161.654 40.2646 161.326 40.2756 161.012 40.3518C160.697 40.4279 160.402 40.5675 160.145 40.7618C159.887 40.9562 159.674 41.201 159.517 41.481C159.36 41.7609 159.263 42.0699 159.233 42.3886L158.629 46.1228L157.704 51.8412C157.816 51.8901 157.931 51.939 158.045 51.9853C158.277 52.0805 158.511 52.1732 158.748 52.2632C159.204 52.4382 159.67 52.5978 160.139 52.747C161.011 53.0267 161.898 53.2604 162.796 53.447C162.829 53.4522 162.863 53.4599 162.897 53.4676C163.147 53.5191 163.4 53.568 163.652 53.6143L164.915 46.7765L164.577 45.2684Z" fill="#2F2E41"/>
<path d="M166.536 35.9573C169.539 35.9573 171.974 33.5517 171.974 30.5841C171.974 27.6166 169.539 25.2109 166.536 25.2109C163.533 25.2109 161.099 27.6166 161.099 30.5841C161.099 33.5517 163.533 35.9573 166.536 35.9573Z" fill="#FFB7B7"/>
<path d="M172.413 48.5673L171.251 39.5188L171.006 37.6015H171.004L170.894 37.5989C170.525 37.5861 170.165 37.5835 169.811 37.5963C167.637 37.6055 165.506 38.1883 163.636 39.2846C163.147 39.5795 162.68 39.9098 162.24 40.2728L162.219 40.2934L162.167 40.3603L160.321 42.7074L160.318 42.7537L160.139 52.7467C161.011 53.0264 161.898 53.2601 162.795 53.4467C162.829 53.4519 162.863 53.4596 162.897 53.4673C163.147 53.5188 163.399 53.5677 163.652 53.614C164.183 53.7092 164.718 53.7881 165.256 53.8508C167.856 54.1586 170.487 54.0979 173.069 53.6706L172.413 48.5673Z" fill="#5BAA00"/>
<path d="M174.314 39.5783C173.459 38.5813 172.297 37.8874 171.006 37.6019H171.004C170.66 37.5253 170.309 37.4796 169.957 37.4655L169.866 37.4629L169.811 37.5967L165.436 48.0195L164.73 45.2349L163.636 39.2849L163.628 39.2412L163.464 39.3364C162.957 39.6249 162.478 39.9583 162.032 40.3324C160.257 41.8131 159.073 43.8691 158.691 46.1331C158.579 46.804 158.538 47.4844 158.568 48.1636L158.748 52.2633C159.204 52.4383 159.67 52.5978 160.139 52.7471C161.011 53.0268 161.898 53.2604 162.795 53.4471C162.829 53.4522 162.863 53.4599 162.897 53.4677C163.147 53.5191 163.399 53.568 163.652 53.6143C164.183 53.7096 164.718 53.7885 165.256 53.8511C167.856 54.159 170.487 54.0983 173.069 53.671C173.543 53.5963 174.013 53.5071 174.478 53.4033C174.663 53.3621 174.85 53.321 175.033 53.2746L174.639 52.1294L175.681 44.1798C175.788 43.3611 175.721 42.5294 175.486 41.7373C175.251 40.9453 174.851 40.2101 174.314 39.5783V39.5783Z" fill="#2F2E41"/>
<path d="M175.606 39.7992C175.42 39.2327 175.02 38.759 174.489 38.4767C173.958 38.1943 173.338 38.1251 172.757 38.2834C172.663 38.3072 172.571 38.3373 172.481 38.3735C172.049 38.5475 171.679 38.845 171.42 39.2278C171.16 39.6106 171.021 40.0614 171.022 40.5224L171.033 45.3323L172.413 48.5672L174.478 53.4029C174.663 53.3617 174.851 53.3206 175.033 53.2742C176.327 52.9652 177.595 52.56 178.828 52.0621C179.174 51.9257 179.518 51.779 179.856 51.6272C179.994 51.5654 180.132 51.5036 180.27 51.4367L175.606 39.7992Z" fill="#2F2E41"/>
<path d="M166.171 24.2275H165.061C163.505 24.2281 162.014 24.8392 160.914 25.9265C159.814 27.0138 159.196 28.4883 159.196 30.0257V30.1338H167.048L167.129 29.0194L167.53 30.1338H168.739L168.9 27.9257L169.697 30.1338H172.036V30.0257C172.034 28.4888 171.416 27.0152 170.316 25.9282C169.217 24.8412 167.726 24.2296 166.171 24.2275Z" fill="#2F2E41"/>
<path d="M163.788 122.984C162.872 122.919 161.952 123.036 161.082 123.328C160.213 123.619 159.411 124.079 158.724 124.681C158.037 125.283 157.478 126.015 157.081 126.833C156.684 127.652 156.457 128.54 156.412 129.446L155.978 136.989C156.254 137.131 156.53 137.267 156.811 137.396C156.944 137.458 157.076 137.519 157.209 137.579C157.386 137.658 157.564 137.738 157.743 137.813C157.842 137.857 157.944 137.9 158.045 137.942C158.373 138.075 158.704 138.204 159.038 138.328C160.013 138.686 161.01 138.987 162.022 139.228C162.277 139.293 162.535 139.349 162.796 139.403C162.822 139.408 162.85 139.414 162.876 139.419C163.038 139.452 163.199 139.486 163.361 139.517L163.913 122.992L163.788 122.984Z" fill="#2F2E41"/>
<path d="M170.843 139.905C171.247 139.872 171.648 139.831 172.046 139.779C172.093 139.774 172.142 139.766 172.189 139.759C172.481 139.72 172.773 139.679 173.062 139.627C173.085 138.93 173.077 138.428 173.077 138.366L174.372 125.038L171.674 123.484L171.148 123.18L162.991 122.92L162.923 122.977L159.006 126.332L157.743 137.813C157.842 137.857 157.944 137.9 158.045 137.942C158.373 138.075 158.704 138.204 159.038 138.328C160.013 138.686 161.01 138.987 162.022 139.228C162.277 139.293 162.535 139.349 162.796 139.403C162.822 139.409 162.85 139.414 162.876 139.419C163.038 139.452 163.199 139.486 163.361 139.517C163.686 139.578 164.017 139.635 164.348 139.684C164.647 139.73 164.952 139.771 165.257 139.807C165.757 139.869 166.262 139.913 166.77 139.946C167.353 139.982 167.941 140 168.533 140C168.955 140 169.371 139.99 169.788 139.972C170.095 139.959 170.4 139.941 170.702 139.916L170.843 139.905Z" fill="#2F2E41"/>
<path d="M176.299 126.185L171.679 123.396L171.674 123.483L170.843 139.905C171.246 139.871 171.647 139.83 172.046 139.779C172.093 139.773 172.142 139.766 172.189 139.758C172.481 139.719 172.772 139.678 173.062 139.627C174.59 139.38 176.093 139.002 177.554 138.494C177.601 138.479 177.648 138.464 177.692 138.446L178.02 129.237C178.043 128.622 177.895 128.012 177.591 127.474C177.288 126.936 176.841 126.49 176.299 126.185V126.185Z" fill="#2F2E41"/>
<path d="M166.158 121.142C169.324 121.142 171.89 118.606 171.89 115.478C171.89 112.35 169.324 109.814 166.158 109.814C162.993 109.814 160.427 112.35 160.427 115.478C160.427 118.606 162.993 121.142 166.158 121.142Z" fill="#9F616A"/>
<path d="M164.086 107.115C169.858 105.47 171.497 110.198 171.497 110.198C174.279 112.022 172.537 114.309 172.537 114.309C173.239 114.463 171.836 118.523 171.367 118.42C171.118 118.366 170.475 119.123 169.931 119.842C169.744 119.841 169.558 119.859 169.374 119.894L170.431 116.031C170.431 116.031 166.869 115.492 165.777 113.796C164.732 112.173 161.292 111.661 160.313 112.745C160.255 112.433 160.136 112.136 159.963 111.869C159.83 111.666 159.655 111.493 159.45 111.36C160.316 107.725 164.086 107.115 164.086 107.115Z" fill="#2F2E41"/>
<path opacity="0.2" d="M170.702 139.915C170.4 139.941 170.095 139.959 169.788 139.972L170.59 135.617V135.918L170.702 139.915Z" fill="black"/>
</g>
<defs>
<clipPath id="clip0_903_272">
<rect width="195" height="140" fill="white" transform="translate(0.87793)"/>
</clipPath>
</defs>
</svg>
