<svg width="168" height="140" viewBox="0 0 168 140" fill="none" xmlns="http://www.w3.org/2000/svg">
<g clip-path="url(#clip0_903_331)">
<path d="M129.123 129.877H53.4997C53.0309 129.876 52.5815 129.691 52.25 129.362C51.9185 129.033 51.732 128.588 51.7314 128.123V76.9015C51.732 76.4364 51.9185 75.9906 52.25 75.6618C52.5815 75.333 53.0309 75.148 53.4997 75.1475H129.123C129.592 75.148 130.041 75.333 130.373 75.6618C130.704 75.9906 130.891 76.4364 130.891 76.9015V128.123C130.891 128.588 130.704 129.033 130.373 129.362C130.041 129.691 129.592 129.876 129.123 129.877Z" fill="white"/>
<path d="M129.123 129.877H53.4997C53.0309 129.876 52.5815 129.691 52.25 129.362C51.9185 129.033 51.732 128.588 51.7314 128.123V76.9015C51.732 76.4364 51.9185 75.9906 52.25 75.6618C52.5815 75.333 53.0309 75.148 53.4997 75.1475H129.123C129.592 75.148 130.041 75.333 130.373 75.6618C130.704 75.9906 130.891 76.4364 130.891 76.9015V128.123C130.891 128.588 130.704 129.033 130.373 129.362C130.041 129.691 129.592 129.876 129.123 129.877ZM53.4997 75.5372C53.1351 75.5376 52.7855 75.6815 52.5277 75.9373C52.2698 76.193 52.1248 76.5398 52.1244 76.9015V128.123C52.1248 128.484 52.2698 128.831 52.5277 129.087C52.7855 129.343 53.1351 129.486 53.4997 129.487H129.123C129.488 129.486 129.837 129.343 130.095 129.087C130.353 128.831 130.498 128.484 130.498 128.123V76.9015C130.498 76.5398 130.353 76.193 130.095 75.9373C129.837 75.6815 129.488 75.5376 129.123 75.5372H53.4997Z" fill="#3F3D56"/>
<path d="M100.065 129.568H82.5576V100.818C82.5584 100.136 82.8318 99.4824 83.3179 99.0002C83.804 98.5181 84.4631 98.2469 85.1505 98.2461H97.4726C98.16 98.2469 98.8191 98.5181 99.3052 99.0002C99.7913 99.4824 100.065 100.136 100.065 100.818V129.568Z" fill="#F2F2F2"/>
<path d="M124.998 64.2285H115V47.6544C115.001 47.1894 115.187 46.7435 115.519 46.4147C115.85 46.0859 116.299 45.9009 116.768 45.9004H123.23C123.699 45.9009 124.148 46.0859 124.48 46.4147C124.811 46.7435 124.998 47.1894 124.998 47.6544V64.2285Z" fill="white"/>
<path d="M124.998 64.2285H115V47.6544C115.001 47.1894 115.187 46.7435 115.519 46.4147C115.85 46.0859 116.299 45.9009 116.768 45.9004H123.23C123.699 45.9009 124.148 46.0859 124.48 46.4147C124.811 46.7435 124.998 47.1894 124.998 47.6544V64.2285ZM115.393 63.8388H124.605V47.6544C124.605 47.2927 124.46 46.9459 124.202 46.6902C123.944 46.4344 123.595 46.2906 123.23 46.2902H116.768C116.404 46.2906 116.054 46.4344 115.796 46.6902C115.538 46.9459 115.393 47.2927 115.393 47.6544V63.8388Z" fill="#3F3D56"/>
<path d="M120.299 42.9952C118.565 42.9412 117.022 41.3725 117.009 39.6518C116.997 37.931 118.518 36.3407 120.251 36.262C124.11 36.087 127.269 31.9795 126.42 28.2416C125.571 24.5038 120.941 22.1374 117.379 23.6208C114.647 24.7588 111.886 21.1732 112.579 18.3154C113.271 15.4576 115.891 13.5385 118.316 11.8486C120.74 10.1587 123.334 8.17458 123.919 5.29326C124.504 2.41194 121.508 -1.03956 118.869 0.296052" fill="#C8996B"/>
<path d="M75.1625 106.598H60.3735C59.7835 106.597 59.218 106.364 58.8008 105.95C58.3837 105.537 58.1491 104.976 58.1484 104.39V92.2968C58.1491 91.7117 58.3837 91.1507 58.8009 90.737C59.218 90.3232 59.7835 90.0905 60.3734 90.0898H75.1625C75.7524 90.0905 76.3179 90.3232 76.735 90.737C77.1521 91.1507 77.3868 91.7117 77.3874 92.2968V104.39C77.3868 104.976 77.1522 105.537 76.735 105.95C76.3179 106.364 75.7524 106.597 75.1625 106.598V106.598Z" fill="#F2F2F2"/>
<path d="M122.592 106.598H107.803C107.213 106.597 106.648 106.364 106.231 105.95C105.813 105.537 105.579 104.976 105.578 104.39V92.2968C105.579 91.7117 105.813 91.1507 106.231 90.737C106.648 90.3232 107.213 90.0905 107.803 90.0898H122.592C123.182 90.0905 123.748 90.3232 124.165 90.737C124.582 91.1507 124.816 91.7117 124.817 92.2968V104.39C124.817 104.976 124.582 105.537 124.165 105.95C123.748 106.364 123.182 106.597 122.592 106.598V106.598Z" fill="#F2F2F2"/>
<path d="M46.085 76.2008V68.3201C46.085 67.7147 46.2463 67.1201 46.5526 66.5964C46.8589 66.0728 47.2993 65.6388 47.8292 65.3384L91.9731 40.312C92.521 40.0014 93.1442 39.8452 93.7751 39.8604C94.4061 39.8756 95.0209 40.0615 95.553 40.3982L134.937 65.3147C135.427 65.6251 135.831 66.0531 136.111 66.5591C136.39 67.0652 136.537 67.6331 136.537 68.2102V76.2008C136.537 77.1116 136.172 77.9852 135.523 78.6292C134.874 79.2733 133.993 79.6351 133.075 79.6351H49.5472C48.629 79.6351 47.7483 79.2733 47.099 78.6292C46.4497 77.9852 46.085 77.1116 46.085 76.2008V76.2008Z" fill="#5BAA00"/>
<path opacity="0.2" d="M133.075 76.1267H49.5472C48.629 76.1266 47.7483 75.7648 47.099 75.1208C46.4497 74.4767 46.085 73.6032 46.085 72.6924V75.8106C46.085 76.7214 46.4497 77.5949 47.099 78.239C47.7483 78.883 48.629 79.2449 49.5472 79.2449H133.075C133.993 79.2449 134.874 78.883 135.523 78.239C136.172 77.5949 136.537 76.7214 136.537 75.8106V72.6924C136.537 73.6032 136.172 74.4767 135.523 75.1208C134.874 75.7648 133.993 76.1266 133.075 76.1267V76.1267Z" fill="black"/>
<path d="M139.856 103.094C139.856 97.0506 144.796 82.71 150.888 82.71C156.981 82.71 161.92 97.0506 161.92 103.094C161.92 105.996 160.758 108.779 158.689 110.832C156.62 112.884 153.814 114.037 150.888 114.037C147.962 114.037 145.156 112.884 143.088 110.832C141.019 108.779 139.856 105.996 139.856 103.094V103.094Z" fill="#F2F2F2"/>
<path d="M150.889 129.643C150.837 129.643 150.787 129.623 150.75 129.586C150.713 129.55 150.692 129.5 150.692 129.449V90.1568C150.692 90.1051 150.713 90.0555 150.75 90.019C150.787 89.9824 150.837 89.9619 150.889 89.9619C150.941 89.9619 150.991 89.9824 151.028 90.019C151.065 90.0555 151.085 90.1051 151.085 90.1568V129.449C151.085 129.5 151.065 129.55 151.028 129.586C150.991 129.623 150.941 129.643 150.889 129.643V129.643Z" fill="#3F3D56"/>
<path d="M150.889 107.582C150.85 107.582 150.813 107.57 150.781 107.549C150.749 107.528 150.723 107.498 150.708 107.463C150.693 107.428 150.689 107.39 150.696 107.352C150.702 107.315 150.72 107.28 150.747 107.252L156.355 101.415C156.372 101.396 156.394 101.382 156.417 101.371C156.441 101.361 156.466 101.355 156.492 101.355C156.518 101.354 156.544 101.358 156.568 101.368C156.592 101.377 156.614 101.391 156.632 101.408C156.651 101.426 156.666 101.447 156.676 101.471C156.687 101.494 156.693 101.519 156.693 101.545C156.694 101.57 156.689 101.596 156.68 101.62C156.671 101.643 156.657 101.665 156.639 101.684L151.031 107.521C151.013 107.54 150.991 107.555 150.966 107.566C150.942 107.576 150.915 107.582 150.889 107.582V107.582Z" fill="#3F3D56"/>
<path d="M150.889 97.7403C150.84 97.7404 150.792 97.7221 150.756 97.6892L145.91 93.2941C145.891 93.2769 145.875 93.256 145.864 93.2328C145.853 93.2096 145.847 93.1845 145.846 93.1589C145.845 93.1333 145.849 93.1077 145.857 93.0836C145.866 93.0595 145.88 93.0374 145.897 93.0184C145.915 92.9995 145.936 92.9842 145.959 92.9734C145.983 92.9625 146.008 92.9564 146.034 92.9553C146.06 92.9542 146.085 92.9581 146.11 92.9669C146.134 92.9757 146.156 92.9892 146.175 93.0065L151.021 97.4016C151.051 97.4281 151.071 97.4628 151.08 97.501C151.089 97.5393 151.086 97.5794 151.072 97.616C151.058 97.6526 151.033 97.6841 151 97.7063C150.967 97.7284 150.928 97.7403 150.889 97.7403V97.7403Z" fill="#3F3D56"/>
<path d="M5.20508 91.0698C5.20508 82.1797 12.4707 61.084 21.4333 61.084C30.3959 61.084 37.6615 82.1797 37.6615 91.0698C37.6615 95.339 35.9517 99.4333 32.9083 102.452C29.865 105.471 25.7373 107.167 21.4333 107.167C17.1293 107.167 13.0016 105.471 9.95821 102.452C6.91483 99.4333 5.20508 95.339 5.20508 91.0698V91.0698Z" fill="#5BAA00"/>
<path d="M21.4338 130.033C21.3817 130.033 21.3317 130.013 21.2949 129.976C21.258 129.94 21.2373 129.89 21.2373 129.838V72.0386C21.2373 71.987 21.258 71.9374 21.2948 71.9008C21.3317 71.8643 21.3817 71.8438 21.4338 71.8438C21.4859 71.8438 21.5359 71.8643 21.5727 71.9008C21.6096 71.9374 21.6303 71.987 21.6303 72.0386V129.838C21.6303 129.89 21.6096 129.94 21.5727 129.976C21.5359 130.013 21.4859 130.033 21.4338 130.033V130.033Z" fill="#3F3D56"/>
<path d="M21.4338 97.5792C21.3953 97.5792 21.3577 97.568 21.3256 97.547C21.2935 97.526 21.2683 97.4961 21.2532 97.461C21.238 97.4259 21.2336 97.3872 21.2404 97.3497C21.2473 97.3121 21.265 97.2774 21.2916 97.2498L29.541 88.663C29.577 88.6256 29.6264 88.6038 29.6785 88.6026C29.7306 88.6014 29.7811 88.6207 29.8188 88.6563C29.8566 88.692 29.8785 88.7411 29.8797 88.7928C29.881 88.8444 29.8615 88.8945 29.8255 88.9319L21.576 97.5187C21.5577 97.5378 21.5356 97.5531 21.5112 97.5634C21.4867 97.5738 21.4604 97.5792 21.4338 97.5792V97.5792Z" fill="#3F3D56"/>
<path d="M21.434 83.1013C21.385 83.1014 21.3377 83.0832 21.3015 83.0503L14.1723 76.5848C14.1338 76.5499 14.1109 76.5013 14.1086 76.4497C14.1063 76.3981 14.1247 76.3476 14.1599 76.3095C14.195 76.2713 14.244 76.2486 14.2961 76.2463C14.3482 76.244 14.399 76.2623 14.4375 76.2972L21.5667 82.7627C21.5959 82.7892 21.6164 82.8238 21.6254 82.8621C21.6344 82.9003 21.6316 82.9404 21.6172 82.977C21.6029 83.0137 21.5777 83.0451 21.545 83.0673C21.5123 83.0895 21.4736 83.1013 21.434 83.1013H21.434Z" fill="#3F3D56"/>
<path d="M143.182 129.625C143.201 129.639 143.221 129.652 143.239 129.666H159.215C159.528 128.408 159.639 127.148 159.171 126.054C158.505 124.496 156.533 123.523 154.966 124.192C154.594 124.355 154.271 124.609 154.026 124.93C153.413 123.843 152.314 123.023 151.046 123.023C149.457 123.025 148.136 124.314 147.704 125.802C147.01 124.64 145.639 123.828 144.298 124.177C142.056 124.762 141.348 128.218 143.182 129.625Z" fill="#C8996B"/>
<path d="M5.93432 129.972C5.97183 130.001 6.01146 130.027 6.04945 130.055H38.2999C38.9318 127.515 39.155 124.973 38.2111 122.765C36.8661 119.619 32.8859 117.655 29.7215 119.006C28.9718 119.335 28.3187 119.848 27.8237 120.496C26.5871 118.3 24.3688 116.645 21.8084 116.646C18.6006 116.649 15.9334 119.251 15.063 122.257C13.6614 119.91 10.893 118.27 8.18701 118.975C3.6612 120.155 2.23165 127.134 5.93432 129.972Z" fill="#C8996B"/>
<path d="M167.877 129.487L0.87793 129.801L0.878673 130.191L167.878 129.877L167.877 129.487Z" fill="#3F3D56"/>
<path d="M57.2307 121.556C57.2706 121.402 57.2759 121.241 57.2463 121.085C57.2167 120.929 57.1529 120.781 57.0595 120.651C56.966 120.522 56.8451 120.415 56.7053 120.337C56.5654 120.259 56.4101 120.213 56.2502 120.201L50.0107 112.463L48.4668 113.89L55.0582 121.282C55.0559 121.549 55.1527 121.809 55.3302 122.01C55.5078 122.212 55.7538 122.342 56.0216 122.376C56.2894 122.41 56.5604 122.345 56.7832 122.194C57.0061 122.043 57.1653 121.816 57.2307 121.556V121.556Z" fill="#FFB8B8"/>
<path d="M51.2071 113.691L49.2352 115.189C49.179 115.232 49.1143 115.262 49.0454 115.278C48.9765 115.293 48.9051 115.294 48.8359 115.28C48.7667 115.265 48.7014 115.236 48.6445 115.195C48.5876 115.153 48.5404 115.1 48.5061 115.039L47.3049 112.891C47.0868 112.605 46.9919 112.245 47.041 111.889C47.0901 111.534 47.2792 111.213 47.5669 110.996C47.8545 110.778 48.2173 110.683 48.5756 110.731C48.9339 110.778 49.2586 110.965 49.4784 111.25L51.2505 112.954C51.3012 113.003 51.3407 113.062 51.3663 113.127C51.392 113.193 51.4031 113.263 51.399 113.333C51.3949 113.403 51.3756 113.471 51.3425 113.533C51.3093 113.595 51.2632 113.649 51.207 113.691H51.2071Z" fill="#3F3D56"/>
<path d="M47.8962 109.02C49.2811 109.02 50.4038 107.907 50.4038 106.533C50.4038 105.159 49.2811 104.046 47.8962 104.046C46.5113 104.046 45.3887 105.159 45.3887 106.533C45.3887 107.907 46.5113 109.02 47.8962 109.02Z" fill="#FFB8B8"/>
<path d="M53.249 138.796H54.5007L54.3815 136.473H52.5342L53.249 138.796Z" fill="#FFB8B8"/>
<path d="M52.9297 138.391L55.3946 138.391H55.3947C55.601 138.391 55.8053 138.431 55.9959 138.509C56.1865 138.588 56.3596 138.702 56.5055 138.847C56.6514 138.992 56.7671 139.163 56.846 139.352C56.925 139.542 56.9656 139.744 56.9656 139.949V139.999L52.9298 140L52.9297 138.391Z" fill="#2F2E41"/>
<path d="M39.9033 137.039L40.9682 137.691L42.098 135.652L40.8095 134.853L39.9033 137.039Z" fill="#FFB8B8"/>
<path d="M39.8475 136.527L41.9446 137.812L41.9447 137.812C42.1202 137.92 42.2726 138.061 42.3933 138.227C42.5139 138.393 42.6004 138.581 42.6479 138.78C42.6953 138.979 42.7027 139.185 42.6697 139.387C42.6367 139.589 42.5639 139.783 42.4555 139.957L42.4287 140L38.9951 137.896L39.8475 136.527Z" fill="#2F2E41"/>
<path d="M53.1584 138.115C53.0653 138.115 52.9745 138.087 52.8979 138.034C52.8214 137.982 52.7627 137.908 52.7298 137.821L48.2023 127.084C48.1926 127.058 48.1757 127.035 48.1536 127.018C48.1315 127 48.105 126.989 48.0771 126.986C48.0491 126.983 48.0207 126.987 47.9951 126.998C47.9694 127.01 47.9475 127.028 47.9317 127.052L41.7118 136.77C41.651 136.861 41.5594 136.927 41.4537 136.956C41.3481 136.985 41.2354 136.976 41.1362 136.929L40.2851 136.535C40.1761 136.484 40.0915 136.393 40.0495 136.281C40.0074 136.169 40.0113 136.045 40.0602 135.936L45.1559 124.669C45.0447 124.4 43.9594 121.643 45.6269 120.281L45.6386 120.274L50.1603 118.273L50.2743 121.714L54.7811 137.225C54.7981 137.283 54.8032 137.344 54.796 137.405C54.7888 137.465 54.7695 137.523 54.7392 137.576C54.709 137.629 54.6684 137.675 54.6199 137.712C54.5713 137.749 54.5158 137.776 54.4566 137.792L53.2761 138.1C53.2377 138.11 53.1981 138.115 53.1584 138.115V138.115Z" fill="#2F2E41"/>
<path d="M50.2275 113.241C50.0553 112.555 49.8112 111.864 49.4841 111.545C49.3639 111.429 49.2509 111.306 49.1457 111.176C48.9257 110.901 48.649 110.676 48.334 110.516C48.4492 110.452 48.5168 110.376 48.5168 110.295C48.5168 110.071 48.014 109.89 47.3938 109.89C46.7735 109.89 46.2707 110.071 46.2707 110.295C46.2722 110.321 46.2789 110.346 46.2904 110.37C46.3018 110.393 46.3178 110.414 46.3375 110.431C45.9324 110.595 45.5805 110.866 45.32 111.214C45.0595 111.563 44.9003 111.975 44.86 112.407C44.7149 113.948 44.6726 115.918 45.1809 117.164C45.6073 118.194 45.6412 119.343 45.2763 120.396C45.2516 120.47 45.2485 120.548 45.2676 120.623C45.2866 120.698 45.327 120.766 45.3838 120.819C45.4406 120.872 45.5115 120.908 45.5882 120.922C45.6648 120.936 45.744 120.928 45.8162 120.899L50.3029 119.106C50.3785 119.076 50.4432 119.024 50.4888 118.957C50.5343 118.89 50.5587 118.811 50.5587 118.73V116.006C50.5623 115.075 50.451 114.146 50.2275 113.241Z" fill="#3F3D56"/>
<path d="M41.6443 124.46C41.8004 124.424 41.9468 124.354 42.0729 124.256C42.1991 124.158 42.3021 124.033 42.3745 123.892C42.447 123.75 42.4872 123.594 42.4923 123.435C42.4975 123.276 42.4674 123.118 42.4043 122.972L45.9148 113.789L44.1346 113.333L40.8875 122.421C40.647 122.543 40.4597 122.747 40.3612 122.997C40.2627 123.246 40.2598 123.522 40.3531 123.774C40.4463 124.025 40.6293 124.234 40.8673 124.36C41.1052 124.486 41.3817 124.522 41.6442 124.46L41.6443 124.46Z" fill="#FFB8B8"/>
<path d="M45.8999 115.531L43.6505 114.487C43.5865 114.457 43.5297 114.414 43.484 114.361C43.4382 114.307 43.4047 114.245 43.3855 114.177C43.3664 114.11 43.3622 114.039 43.3731 113.97C43.384 113.9 43.4099 113.834 43.4489 113.776L44.816 111.728C44.9714 111.404 45.2497 111.155 45.59 111.035C45.9303 110.914 46.3048 110.933 46.6315 111.086C46.9582 111.238 47.2106 111.513 47.3334 111.85C47.4561 112.187 47.4393 112.559 47.2865 112.884L46.5796 115.229C46.5593 115.297 46.5247 115.359 46.4781 115.411C46.4315 115.464 46.3739 115.506 46.3095 115.535C46.245 115.563 46.175 115.578 46.1043 115.577C46.0337 115.577 45.964 115.561 45.8999 115.531V115.531Z" fill="#3F3D56"/>
<path d="M50.1989 105.921C50.312 105.934 50.4266 105.914 50.5279 105.862C50.7128 105.742 50.6946 105.469 50.632 105.259C50.4761 104.755 50.1946 104.298 49.8136 103.93C49.4326 103.562 48.9644 103.296 48.4521 103.155C48.0951 103.061 47.6434 103.064 47.4392 103.37C46.926 103.03 46.3072 102.885 45.6952 102.96C45.0831 103.034 44.5183 103.324 44.103 103.776C43.6973 104.248 43.4268 104.82 43.3198 105.431C43.1055 106.472 42.1879 108.62 42.6962 109.556C43.0345 110.178 44.5911 109.693 45.2496 109.965C45.5776 110.106 45.9356 110.165 46.2921 110.137C46.6486 110.108 46.9925 109.993 47.2933 109.801C47.5877 109.599 47.809 109.309 47.9245 108.974C48.0399 108.638 48.0435 108.274 47.9347 107.936C47.8194 107.688 47.6865 107.448 47.5369 107.218C47.3868 106.985 47.3255 106.707 47.3643 106.434C47.4564 106.018 49.4356 105.906 50.1989 105.921Z" fill="#2F2E41"/>
</g>
<defs>
<clipPath id="clip0_903_331">
<rect width="167" height="140" fill="white" transform="translate(0.87793)"/>
</clipPath>
</defs>
</svg>
