<svg width="159" height="140" viewBox="0 0 159 140" fill="none" xmlns="http://www.w3.org/2000/svg">
<g clip-path="url(#clip0_903_303)">
<path d="M137.043 12.8728L4.65234 50.3457L8.15898 62.0379L140.549 24.565L137.043 12.8728Z" fill="#C8996B"/>
<path d="M20.47 104.053L0.95675 38.9894C0.812084 38.5071 0.870598 37.9886 1.11941 37.5481C1.36822 37.1077 1.78695 36.7813 2.28349 36.6407L131.464 0.0761995C131.961 -0.0638684 132.494 -0.00683137 132.947 0.234797C133.401 0.476426 133.737 0.882901 133.882 1.365L151.169 59.0063L150.634 59.1578L133.347 1.51644C133.243 1.17222 133.003 0.882049 132.679 0.709483C132.356 0.536918 131.975 0.496031 131.62 0.595786L2.43934 37.1603C2.08467 37.2607 1.78557 37.4939 1.60785 37.8085C1.43013 38.1231 1.38833 38.4934 1.49166 38.838L21.0049 103.901L20.47 104.053Z" fill="#C8996B"/>
<path d="M122.577 59.2743C122.185 59.2739 121.804 59.1502 121.49 58.9218C121.177 58.6933 120.948 58.3724 120.838 58.0069L117.565 47.0942C117.431 46.6463 117.486 46.1652 117.717 45.7563C117.948 45.3475 118.336 45.0443 118.797 44.9133L130.03 41.7338C130.491 41.6039 130.986 41.6569 131.407 41.8813C131.828 42.1057 132.14 42.4831 132.275 42.9308L135.548 53.8435C135.682 54.2914 135.627 54.7725 135.396 55.1814C135.165 55.5902 134.777 55.8934 134.316 56.0244L123.083 59.2039C122.918 59.2505 122.748 59.2743 122.577 59.2743V59.2743Z" fill="#5BAA00"/>
<path d="M20.1687 39.1902C20.135 39.078 20.095 38.9678 20.0488 38.86C19.7348 38.1194 19.1501 37.5177 18.4071 37.1706C17.6641 36.8234 16.8152 36.7552 16.0236 36.9791C15.232 37.203 14.5535 37.7032 14.1185 38.3835C13.6834 39.0639 13.5226 39.8765 13.6668 40.6651C13.687 40.7802 13.714 40.894 13.7476 41.0061C13.951 41.6807 14.3739 42.2731 14.9529 42.6946C15.5319 43.1161 16.2359 43.3441 16.9595 43.3443C17.2754 43.345 17.5897 43.3013 17.8927 43.2144C18.7432 42.973 19.4604 42.4138 19.8871 41.6594C20.3137 40.905 20.415 40.017 20.1687 39.1902V39.1902ZM17.7367 42.6948C17.0275 42.8948 16.2655 42.8134 15.618 42.4684C14.9704 42.1234 14.4901 41.543 14.2824 40.8545C14.2498 40.7424 14.2237 40.6285 14.2043 40.5135C14.0998 39.8638 14.2425 39.1993 14.6058 38.6444C14.969 38.0894 15.5278 37.682 16.1778 37.4982C16.8278 37.3145 17.5244 37.3671 18.1374 37.6461C18.7504 37.9251 19.2378 38.4115 19.5084 39.0142C19.5589 39.1201 19.6008 39.2296 19.6338 39.3417C19.8394 40.0308 19.7551 40.7709 19.3994 41.3996C19.0437 42.0283 18.4457 42.4941 17.7367 42.6948V42.6948Z" fill="#5BAA00"/>
<path d="M11.9689 41.5097C11.7906 40.9149 11.8077 40.2809 12.0179 39.6961C12.228 39.1112 12.6207 38.6045 13.1412 38.2467C12.6535 38.2236 12.1672 38.3141 11.7228 38.5105C11.2784 38.707 10.8888 39.0038 10.5864 39.3762C10.2839 39.7485 10.0775 40.1857 9.98418 40.6513C9.8909 41.1169 9.91349 41.5974 10.0501 42.0528C10.1866 42.5082 10.4333 42.9253 10.7694 43.2694C11.1055 43.6134 11.5214 43.8745 11.9823 44.0308C12.4433 44.1871 12.9361 44.2341 13.4196 44.1679C13.903 44.1018 14.3633 43.9243 14.7618 43.6504C14.1249 43.6202 13.5136 43.3977 13.013 43.014C12.5123 42.6303 12.1474 42.1044 11.9689 41.5097V41.5097Z" fill="#5BAA00"/>
<path d="M98.5677 54.9227C98.5084 54.7156 98.4076 54.5219 98.2712 54.3527C98.1348 54.1834 97.9653 54.042 97.7726 53.9364C97.5798 53.8308 97.3675 53.7632 97.1479 53.7374C96.9282 53.7116 96.7054 53.7281 96.4923 53.7861L77.9976 58.8117L76.0059 59.3529H88.5139L90.5057 58.8117L97.4004 56.9389C97.8302 56.8216 98.1946 56.5434 98.4134 56.1654C98.6322 55.7874 98.6877 55.3404 98.5677 54.9227V54.9227Z" fill="#CCCCCC"/>
<path d="M85.4826 51.1691C85.3621 50.7514 85.0757 50.3973 84.6865 50.1847C84.2973 49.972 83.8371 49.9182 83.4071 50.0352L55.6555 57.5749C55.2677 57.6817 54.9319 57.9195 54.7087 58.2455C54.4855 58.5715 54.3895 58.9643 54.4381 59.353H61.6226L63.6171 58.8117L84.3154 53.188C84.7455 53.0703 85.11 52.7916 85.3288 52.4131C85.5477 52.0346 85.603 51.5872 85.4826 51.1691V51.1691Z" fill="#CCCCCC"/>
<path d="M156.928 58.8105H22.3758C21.8588 58.8111 21.3631 59.0109 20.9976 59.366C20.632 59.7212 20.4264 60.2027 20.4258 60.705V138.105C20.4263 138.608 20.632 139.089 20.9975 139.444C21.3631 139.8 21.8588 139.999 22.3758 140H156.928C157.445 139.999 157.941 139.799 158.306 139.444C158.672 139.089 158.878 138.608 158.878 138.105V60.705C158.878 60.2027 158.672 59.7212 158.306 59.3661C157.941 59.0109 157.445 58.8111 156.928 58.8105V58.8105ZM158.321 138.105C158.321 138.464 158.174 138.808 157.913 139.062C157.652 139.316 157.297 139.458 156.928 139.459H22.3758C22.0064 139.458 21.6522 139.316 21.391 139.062C21.1299 138.808 20.9831 138.464 20.9829 138.105V60.705C20.9831 60.3461 21.1299 60.002 21.3911 59.7483C21.6523 59.4946 22.0064 59.352 22.3758 59.3518H156.928C157.297 59.352 157.652 59.4946 157.913 59.7483C158.174 60.002 158.321 60.3461 158.321 60.705V138.105Z" fill="#C8996B"/>
<path d="M35.4689 69.3662C34.8077 69.3662 34.1614 69.1758 33.6117 68.8189C33.0619 68.4621 32.6335 67.9549 32.3804 67.3615C32.1274 66.768 32.0612 66.1151 32.1902 65.4851C32.3192 64.8551 32.6376 64.2765 33.1051 63.8223C33.5726 63.3681 34.1683 63.0588 34.8167 62.9335C35.4652 62.8082 36.1373 62.8725 36.7482 63.1183C37.359 63.3641 37.8811 63.7803 38.2484 64.3144C38.6157 64.8485 38.8118 65.4764 38.8118 66.1187C38.8108 66.9797 38.4583 67.8051 37.8316 68.414C37.2049 69.0228 36.3552 69.3652 35.4689 69.3662V69.3662ZM35.4689 63.4124C34.9179 63.4124 34.3793 63.5711 33.9212 63.8684C33.4631 64.1658 33.106 64.5885 32.8952 65.083C32.6843 65.5775 32.6292 66.1217 32.7367 66.6466C32.8441 67.1716 33.1095 67.6538 33.4991 68.0323C33.8887 68.4108 34.385 68.6685 34.9254 68.773C35.4658 68.8774 36.0259 68.8238 36.535 68.619C37.044 68.4141 37.4791 68.0673 37.7852 67.6222C38.0913 67.1772 38.2546 66.6539 38.2546 66.1187C38.2538 65.4012 37.96 64.7133 37.4378 64.2059C36.9155 63.6986 36.2075 63.4132 35.4689 63.4124V63.4124Z" fill="#5BAA00"/>
<path d="M30.2721 66.1185C30.2722 65.4991 30.4711 64.895 30.8413 64.3906C31.2115 63.8862 31.7344 63.5065 32.3371 63.3044C31.8756 63.1497 31.3826 63.1044 30.8994 63.1722C30.4162 63.2401 29.9566 63.4191 29.559 63.6945C29.1615 63.9698 28.8374 64.3334 28.6137 64.7551C28.3901 65.1767 28.2734 65.6442 28.2734 66.1185C28.2734 66.5929 28.3901 67.0603 28.6137 67.482C28.8374 67.9037 29.1615 68.2673 29.559 68.5426C29.9566 68.818 30.4162 68.997 30.8994 69.0649C31.3826 69.1327 31.8756 69.0874 32.3371 68.9327C31.7344 68.7306 31.2115 68.3509 30.8413 67.8465C30.4711 67.3421 30.2722 66.738 30.2721 66.1185V66.1185Z" fill="#5BAA00"/>
<path d="M49.0189 104.488C48.3542 104.487 47.7169 104.23 47.2469 103.774C46.7769 103.317 46.5125 102.698 46.5117 102.052V94.7452C46.5117 94.0993 46.7759 93.4797 47.246 93.023C47.7162 92.5662 48.354 92.3096 49.0189 92.3096C49.6838 92.3096 50.3216 92.5662 50.7917 93.023C51.2619 93.4797 51.5261 94.0993 51.5261 94.7452V102.052C51.5253 102.698 51.2609 103.317 50.7909 103.774C50.3209 104.23 49.6836 104.487 49.0189 104.488V104.488Z" fill="#5BAA00"/>
<path d="M55.7054 104.488C55.0407 104.487 54.4034 104.23 53.9334 103.774C53.4634 103.317 53.199 102.698 53.1982 102.052V94.7452C53.1982 94.0993 53.4624 93.4797 53.9326 93.023C54.4028 92.5662 55.0405 92.3096 55.7054 92.3096C56.3704 92.3096 57.0081 92.5662 57.4783 93.023C57.9484 93.4797 58.2126 94.0993 58.2126 94.7452V102.052C58.2118 102.698 57.9475 103.317 57.4774 103.774C57.0074 104.23 56.3701 104.487 55.7054 104.488V104.488Z" fill="#5BAA00"/>
<path d="M62.39 104.488C61.7253 104.487 61.088 104.23 60.618 103.774C60.148 103.317 59.8836 102.698 59.8828 102.052V94.7452C59.8828 94.0993 60.147 93.4797 60.6172 93.023C61.0873 92.5662 61.725 92.3096 62.39 92.3096C63.0549 92.3096 63.6927 92.5662 64.1628 93.023C64.633 93.4797 64.8972 94.0993 64.8972 94.7452V102.052C64.8964 102.698 64.632 103.317 64.162 103.774C63.692 104.23 63.0547 104.487 62.39 104.488V104.488Z" fill="#5BAA00"/>
<path d="M72.6976 104.488C72.0329 104.487 71.3956 104.23 70.9256 103.774C70.4556 103.317 70.1912 102.698 70.1904 102.052V94.7452C70.1904 94.0993 70.4546 93.4797 70.9248 93.023C71.395 92.5662 72.0327 92.3096 72.6976 92.3096C73.3626 92.3096 74.0003 92.5662 74.4705 93.023C74.9406 93.4797 75.2048 94.0993 75.2048 94.7452V102.052C75.204 102.698 74.9396 103.317 74.4696 103.774C73.9996 104.23 73.3623 104.487 72.6976 104.488V104.488Z" fill="#5BAA00"/>
<path d="M79.3832 104.488C78.7184 104.487 78.0812 104.23 77.6112 103.774C77.1411 103.317 76.8767 102.698 76.876 102.052V94.7452C76.876 94.0993 77.1401 93.4797 77.6103 93.023C78.0805 92.5662 78.7182 92.3096 79.3832 92.3096C80.0481 92.3096 80.6858 92.5662 81.156 93.023C81.6262 93.4797 81.8903 94.0993 81.8903 94.7452V102.052C81.8896 102.698 81.6252 103.317 81.1552 103.774C80.6851 104.23 80.0479 104.487 79.3832 104.488V104.488Z" fill="#5BAA00"/>
<path d="M86.0697 104.488C85.405 104.487 84.7677 104.23 84.2977 103.774C83.8277 103.317 83.5633 102.698 83.5625 102.052V94.7452C83.5625 94.0993 83.8267 93.4797 84.2968 93.023C84.767 92.5662 85.4047 92.3096 86.0697 92.3096C86.7346 92.3096 87.3723 92.5662 87.8425 93.023C88.3127 93.4797 88.5769 94.0993 88.5769 94.7452V102.052C88.5761 102.698 88.3117 103.317 87.8417 103.774C87.3717 104.23 86.7344 104.487 86.0697 104.488V104.488Z" fill="#5BAA00"/>
<path d="M96.3763 104.488C95.7116 104.487 95.0744 104.23 94.6043 103.774C94.1343 103.317 93.8699 102.698 93.8691 102.052V94.7452C93.8691 94.0993 94.1333 93.4797 94.6035 93.023C95.0737 92.5662 95.7114 92.3096 96.3763 92.3096C97.0413 92.3096 97.679 92.5662 98.1492 93.023C98.6194 93.4797 98.8835 94.0993 98.8835 94.7452V102.052C98.8827 102.698 98.6184 103.317 98.1483 103.774C97.6783 104.23 97.041 104.487 96.3763 104.488V104.488Z" fill="#5BAA00"/>
<path d="M103.063 104.488C102.398 104.487 101.761 104.23 101.291 103.774C100.821 103.317 100.556 102.698 100.556 102.052V94.7452C100.556 94.0993 100.82 93.4797 101.29 93.023C101.76 92.5662 102.398 92.3096 103.063 92.3096C103.728 92.3096 104.366 92.5662 104.836 93.023C105.306 93.4797 105.57 94.0993 105.57 94.7452V102.052C105.569 102.698 105.305 103.317 104.835 103.774C104.365 104.23 103.728 104.487 103.063 104.488V104.488Z" fill="#5BAA00"/>
<path d="M109.748 104.488C109.084 104.487 108.446 104.23 107.976 103.774C107.506 103.317 107.242 102.698 107.241 102.052V94.7452C107.241 94.0993 107.505 93.4797 107.976 93.023C108.446 92.5662 109.083 92.3096 109.748 92.3096C110.413 92.3096 111.051 92.5662 111.521 93.023C111.991 93.4797 112.256 94.0993 112.256 94.7452V102.052C112.255 102.698 111.99 103.317 111.52 103.774C111.05 104.23 110.413 104.487 109.748 104.488V104.488Z" fill="#5BAA00"/>
<path d="M120.055 104.488C119.39 104.487 118.753 104.23 118.283 103.774C117.813 103.317 117.549 102.698 117.548 102.052V94.7452C117.548 94.0993 117.812 93.4797 118.282 93.023C118.752 92.5662 119.39 92.3096 120.055 92.3096C120.72 92.3096 121.358 92.5662 121.828 93.023C122.298 93.4797 122.562 94.0993 122.562 94.7452V102.052C122.561 102.698 122.297 103.317 121.827 103.774C121.357 104.23 120.72 104.487 120.055 104.488V104.488Z" fill="#5BAA00"/>
<path d="M126.742 104.488C126.077 104.487 125.44 104.23 124.97 103.774C124.5 103.317 124.235 102.698 124.234 102.052V94.7452C124.234 94.0993 124.499 93.4797 124.969 93.023C125.439 92.5662 126.077 92.3096 126.742 92.3096C127.407 92.3096 128.044 92.5662 128.514 93.023C128.985 93.4797 129.249 94.0993 129.249 94.7452V102.052C129.248 102.698 128.984 103.317 128.514 103.774C128.044 104.23 127.406 104.487 126.742 104.488V104.488Z" fill="#5BAA00"/>
<path d="M133.427 104.488C132.762 104.487 132.125 104.23 131.655 103.774C131.185 103.317 130.921 102.698 130.92 102.052V94.7452C130.92 94.0993 131.184 93.4797 131.654 93.023C132.124 92.5662 132.762 92.3096 133.427 92.3096C134.092 92.3096 134.73 92.5662 135.2 93.023C135.67 93.4797 135.934 94.0993 135.934 94.7452V102.052C135.934 102.698 135.669 103.317 135.199 103.774C134.729 104.23 134.092 104.487 133.427 104.488V104.488Z" fill="#5BAA00"/>
<path d="M66.017 131.596H29.9581C29.5113 131.596 29.0828 131.424 28.7669 131.117C28.4509 130.81 28.2734 130.394 28.2734 129.96C28.2734 129.526 28.4509 129.11 28.7669 128.803C29.0828 128.496 29.5113 128.323 29.9581 128.323H66.017C66.4638 128.323 66.8923 128.496 67.2083 128.803C67.5242 129.11 67.7017 129.526 67.7017 129.96C67.7017 130.394 67.5242 130.81 67.2083 131.117C66.8923 131.424 66.4638 131.596 66.017 131.596Z" fill="#E6E6E6"/>
<path d="M54.4558 124.559H41.5186C41.0718 124.559 40.6433 124.387 40.3274 124.08C40.0115 123.773 39.834 123.357 39.834 122.923C39.834 122.489 40.0115 122.072 40.3274 121.765C40.6433 121.459 41.0718 121.286 41.5186 121.286H54.4558C54.9026 121.286 55.3311 121.459 55.647 121.765C55.9629 122.072 56.1404 122.489 56.1404 122.923C56.1404 123.357 55.9629 123.773 55.647 124.08C55.3311 124.387 54.9026 124.559 54.4558 124.559V124.559Z" fill="#E6E6E6"/>
<path d="M158.22 74.9893H20.8818V75.5305H158.22V74.9893Z" fill="#C8996B"/>
</g>
<defs>
<clipPath id="clip0_903_303">
<rect width="158" height="140" fill="white" transform="translate(0.87793)"/>
</clipPath>
</defs>
</svg>
