<svg width="194" height="140" viewBox="0 0 194 140" fill="none" xmlns="http://www.w3.org/2000/svg">
<g clip-path="url(#clip0_903_366)">
<path d="M157.113 133.662H119.855C114.267 133.662 109.721 128.956 109.721 123.172V21.2245C109.721 15.4402 114.267 10.7344 119.855 10.7344H157.113C162.701 10.7344 167.247 15.4402 167.247 21.2245C167.941 62.1634 169.123 108.009 167.247 123.172C167.247 128.956 162.701 133.662 157.113 133.662V133.662Z" fill="#3F3D56"/>
<path d="M167.768 48.2344C167.531 48.2344 167.339 48.4334 167.339 48.6782V62.8792C167.339 63.1239 167.531 63.323 167.768 63.323C168.004 63.323 168.196 63.1239 168.196 62.8792V48.6782C168.196 48.4334 168.004 48.2344 167.768 48.2344Z" fill="#3F3D56"/>
<path d="M163.745 22.5048L166.283 123.171C166.283 128.205 162.497 132.324 157.71 132.643H157.708C157.637 132.648 157.566 132.652 157.493 132.654C157.367 132.661 157.241 132.663 157.112 132.663C157.112 132.663 156.64 132.628 155.779 132.561C154.908 132.494 153.641 132.395 152.061 132.264C151.588 132.226 151.088 132.184 150.561 132.139C149.51 132.051 148.357 131.953 147.12 131.842C146.627 131.8 146.117 131.753 145.596 131.707C142.933 131.469 139.952 131.192 136.807 130.877C136.275 130.826 135.739 130.773 135.199 130.717C135.058 130.702 110.686 124.36 110.686 123.171V21.2249C110.686 15.9816 114.791 11.7324 119.856 11.7324H125.331C126.206 11.7324 126.909 12.438 126.984 13.3411C126.99 13.401 126.997 13.4609 127.008 13.5209C127.166 14.4284 127.97 15.0608 128.862 15.0608H148.106C148.998 15.0608 149.802 14.4284 149.961 13.5209C149.971 13.461 149.978 13.401 149.984 13.3411C150.059 12.438 150.762 11.7324 151.637 11.7324H157.112C162.177 11.7324 163.745 17.2615 163.745 22.5048V22.5048Z" fill="white"/>
<path d="M109.507 37.583C109.27 37.583 109.078 37.782 109.078 38.0268V41.577C109.078 41.8218 109.27 42.0208 109.507 42.0208C109.743 42.0208 109.936 41.8218 109.936 41.577V38.0268C109.936 37.782 109.743 37.583 109.507 37.583V37.583Z" fill="#3F3D56"/>
<path d="M109.507 48.2344C109.27 48.2344 109.078 48.4334 109.078 48.6782V55.5568C109.078 55.8015 109.27 56.0006 109.507 56.0006C109.743 56.0006 109.936 55.8015 109.936 55.5568V48.6782C109.936 48.4334 109.743 48.2344 109.507 48.2344Z" fill="#3F3D56"/>
<path d="M109.507 57.9971C109.27 57.9971 109.078 58.1961 109.078 58.4409V65.3195C109.078 65.5642 109.27 65.7633 109.507 65.7633C109.743 65.7633 109.936 65.5642 109.936 65.3195V58.4409C109.936 58.1961 109.743 57.9971 109.507 57.9971Z" fill="#3F3D56"/>
<path d="M125.191 13.2861H116.974C116.935 13.2861 116.902 13.3195 116.902 13.3608V14.321C116.902 14.3622 116.935 14.3956 116.974 14.3956H125.191C125.23 14.3956 125.263 14.3622 125.263 14.321V13.3608C125.263 13.3195 125.23 13.2861 125.191 13.2861Z" fill="#E6E6E6"/>
<path d="M152.992 14.3952C153.466 14.3952 153.85 13.9979 153.85 13.5077C153.85 13.0175 153.466 12.6201 152.992 12.6201C152.519 12.6201 152.135 13.0175 152.135 13.5077C152.135 13.9979 152.519 14.3952 152.992 14.3952Z" fill="#E6E6E6"/>
<path d="M155.35 14.3952C155.823 14.3952 156.207 13.9979 156.207 13.5077C156.207 13.0175 155.823 12.6201 155.35 12.6201C154.876 12.6201 154.492 13.0175 154.492 13.5077C154.492 13.9979 154.876 14.3952 155.35 14.3952Z" fill="#E6E6E6"/>
<path d="M157.708 14.3952C158.182 14.3952 158.566 13.9979 158.566 13.5077C158.566 13.0175 158.182 12.6201 157.708 12.6201C157.234 12.6201 156.851 13.0175 156.851 13.5077C156.851 13.9979 157.234 14.3952 157.708 14.3952Z" fill="#E6E6E6"/>
<path d="M137.584 64.2808C144.322 64.2808 149.785 58.6265 149.785 51.6516C149.785 44.6767 144.322 39.0225 137.584 39.0225C130.845 39.0225 125.383 44.6767 125.383 51.6516C125.383 58.6265 130.845 64.2808 137.584 64.2808Z" fill="#5BAA00"/>
<path d="M138.316 99.2417H83.9987C81.8121 99.2417 80.0332 97.4002 80.0332 95.137V52.6232C80.0332 50.36 81.8121 48.5186 83.9987 48.5186H138.316C140.502 48.5186 142.281 50.36 142.281 52.6232V95.137C142.281 97.4002 140.502 99.2417 138.316 99.2417V99.2417Z" fill="white"/>
<path d="M138.316 99.2417H83.9987C81.8121 99.2417 80.0332 97.4002 80.0332 95.137V52.6232C80.0332 50.36 81.8121 48.5186 83.9987 48.5186H138.316C140.502 48.5186 142.281 50.36 142.281 52.6232V95.137C142.281 97.4002 140.502 99.2417 138.316 99.2417V99.2417ZM83.9987 49.204C82.1773 49.204 80.6954 50.7379 80.6954 52.6232V95.137C80.6954 97.0223 82.1773 98.5562 83.9987 98.5562H138.316C140.137 98.5562 141.619 97.0223 141.619 95.137V52.6232C141.619 50.7379 140.137 49.204 138.316 49.204H83.9987V49.204Z" fill="#3F3D56"/>
<path d="M132.348 53.6599C132.896 53.6599 133.341 53.1995 133.341 52.6317C133.341 52.0638 132.896 51.6035 132.348 51.6035C131.799 51.6035 131.354 52.0638 131.354 52.6317C131.354 53.1995 131.799 53.6599 132.348 53.6599Z" fill="#3F3D56"/>
<path d="M134.997 53.6599C135.546 53.6599 135.991 53.1995 135.991 52.6317C135.991 52.0638 135.546 51.6035 134.997 51.6035C134.449 51.6035 134.004 52.0638 134.004 52.6317C134.004 53.1995 134.449 53.6599 134.997 53.6599Z" fill="#3F3D56"/>
<path d="M137.646 53.6599C138.194 53.6599 138.639 53.1995 138.639 52.6317C138.639 52.0638 138.194 51.6035 137.646 51.6035C137.097 51.6035 136.652 52.0638 136.652 52.6317C136.652 53.1995 137.097 53.6599 137.646 53.6599Z" fill="#3F3D56"/>
<path d="M85.6617 69.2529C85.3878 69.2529 85.165 69.4835 85.165 69.767C85.165 69.9052 85.2166 70.0331 85.3102 70.1275C85.4046 70.2275 85.5283 70.2811 85.6617 70.2811H136.983C137.257 70.2811 137.48 70.0505 137.48 69.767C137.48 69.6288 137.428 69.5009 137.335 69.4066C137.24 69.3065 137.117 69.2529 136.983 69.2529H85.6617V69.2529Z" fill="#E6E6E6"/>
<path d="M127.712 69.082V70.4529H85.6612C85.4791 70.4529 85.3136 70.3775 85.1944 70.2507C85.0718 70.1273 84.999 69.956 84.999 69.7675C84.999 69.3905 85.297 69.082 85.6612 69.082H127.712L127.712 69.082Z" fill="#5BAA00"/>
<path d="M136.155 66.5113H129.532C128.802 66.5113 128.208 65.8965 128.208 65.1404C128.208 64.3844 128.802 63.7695 129.532 63.7695H136.155C136.885 63.7695 137.479 64.3844 137.479 65.1404C137.479 65.8965 136.885 66.5113 136.155 66.5113Z" fill="#E6E6E6"/>
<path d="M92.7815 59.3141H86.1594C85.4291 59.3141 84.835 58.6992 84.835 57.9432C84.835 57.1871 85.4291 56.5723 86.1594 56.5723H92.7815C93.5118 56.5723 94.1059 57.1871 94.1059 57.9432C94.1059 58.6992 93.5118 59.3141 92.7815 59.3141Z" fill="#E6E6E6"/>
<path d="M85.6617 84.6758C85.3878 84.6758 85.165 84.9064 85.165 85.1899C85.165 85.3281 85.2166 85.4559 85.3102 85.5503C85.4046 85.6504 85.5283 85.704 85.6617 85.704H136.983C137.257 85.704 137.48 85.4734 137.48 85.1899C137.48 85.0516 137.428 84.9238 137.335 84.8294C137.24 84.7293 137.117 84.6758 136.983 84.6758H85.6617V84.6758Z" fill="#E6E6E6"/>
<path d="M102.217 84.5049V85.8758H85.6612C85.4791 85.8758 85.3136 85.8004 85.1944 85.6736C85.0718 85.5502 84.999 85.3788 84.999 85.1903C84.999 84.8133 85.297 84.5049 85.6612 84.5049H102.217V84.5049Z" fill="#5BAA00"/>
<path d="M136.155 81.9342H129.532C128.802 81.9342 128.208 81.3193 128.208 80.5633C128.208 79.8072 128.802 79.1924 129.532 79.1924H136.155C136.885 79.1924 137.479 79.8072 137.479 80.5633C137.479 81.3193 136.885 81.9342 136.155 81.9342Z" fill="#E6E6E6"/>
<path d="M49.3623 71.3513C50.7137 69.358 50.8156 67.0206 49.59 66.1306C48.3643 65.2405 46.2756 66.1349 44.9239 68.129C44.3734 68.9179 44.0135 69.8318 43.8741 70.7942L38.251 79.3144L42.17 81.9605L47.2973 73.2802C48.1246 72.8172 48.8327 72.1557 49.3623 71.3513V71.3513Z" fill="#F1CEAA"/>
<path d="M15.334 81.8916C19.0713 90.1646 25.68 103.46 30.1424 104.9C31.6805 105.397 33.2363 104.243 34.7149 102.187C38.9966 96.2456 42.6392 82.7652 43.3774 79.9163C43.4677 79.5696 43.514 79.3802 43.514 79.3802L39.8053 76.9579L39.4836 76.748L33.8599 84.7519L32.1278 87.2153C32.1278 87.2153 32.2094 85.9882 32.4011 84.0129L23.5337 79.5171C23.5337 79.5171 18.6637 80.3565 15.334 81.8916V81.8916Z" fill="#C8996B"/>
<path d="M34.1104 80.2021C39.3436 80.2021 43.586 75.8109 43.586 70.394C43.586 64.9772 39.3436 60.5859 34.1104 60.5859C28.8771 60.5859 24.6348 64.9772 24.6348 70.394C24.6348 75.8109 28.8771 80.2021 34.1104 80.2021Z" fill="#F1CEAA"/>
<path d="M28.9135 133.662H21.8042C21.2743 133.094 20.7514 132.517 20.2378 131.935C19.7079 131.338 19.192 130.737 18.6807 130.128C23.3288 129.135 27.1681 128.444 27.1681 128.444C27.1681 128.444 27.2727 128.769 27.4679 129.354C27.7631 130.253 28.2628 131.762 28.9135 133.662V133.662Z" fill="#2F2E41"/>
<path d="M37.085 79.1756L33.312 86.0462L22.541 81.9127L26.7279 73.2451L37.085 79.1756Z" fill="#F1CEAA"/>
<path d="M43.6963 70.0517L45.6796 69.8236L46.1203 68.4551H48.2172L48.3239 69.1394L51.6294 69.8236L50.9657 79.6456L49.4257 81.2284L45.2388 80.7722L44.7981 73.017H43.6963V70.0517Z" fill="#2F2E41"/>
<path d="M50.5283 72.7888L69.0388 72.1045L69.4795 81.0002L49.8672 79.8597L50.5283 72.7888Z" fill="#2F2E41"/>
<path d="M37.7467 69.3675L38.4078 72.5608L39.5972 69.3675L41.103 67.9585L41.7132 65.4899C41.7132 65.4899 45.4594 69.1394 45.0186 66.4023C44.5779 63.6651 44.1372 61.3842 41.9336 61.1561C39.7299 60.928 38.1874 61.4794 37.0856 60.9756C35.9838 60.4718 35.9838 56.8223 34.0005 58.1909C32.0172 59.5594 31.5765 60.4718 30.034 60.6999C28.4914 60.928 22.9824 58.8752 23.2027 63.6651C23.4231 68.4551 25.4063 69.8237 24.7453 73.2451C24.0842 76.6666 30.2543 77.1227 30.2543 77.1227C30.2543 77.1227 32.458 77.1227 32.458 73.9294C32.458 70.7361 37.7467 69.3675 37.7467 69.3675H37.7467Z" fill="#2F2E41"/>
<path d="M34.8882 109.928V109.931L31.0302 115.379L30.9745 118.507L30.8048 127.874L27.4675 129.353L26.2915 133.662H20.9671C20.6859 133.328 20.6347 133.414 20.6789 133.662H0.87793C1.63557 130.924 2.98587 124.756 4.30126 118.507C6.1303 109.813 7.88727 100.958 7.88727 100.958C7.88727 100.958 10.7528 84.7632 13.8369 82.7112C14.2738 82.4178 14.7828 82.1483 15.3336 81.8933C16.1656 81.5084 17.0952 81.1692 18.0179 80.8734C18.4943 80.7218 18.9684 80.5823 19.4309 80.4548C19.7376 80.3706 20.0398 80.2912 20.328 80.2166C20.4744 80.1806 20.6161 80.1445 20.7556 80.1108C21.0345 80.041 21.3017 79.9785 21.5504 79.9231C21.6411 79.9015 21.7294 79.8823 21.8154 79.863C21.8804 79.8486 21.9432 79.8365 22.0059 79.8221C22.078 79.8053 22.1477 79.7908 22.2151 79.7764C22.2825 79.762 22.3499 79.7475 22.4126 79.7355C22.4847 79.7211 22.5544 79.7066 22.6218 79.6922C22.6892 79.6778 22.752 79.6658 22.8124 79.6537C22.8728 79.6417 22.9309 79.6297 22.9844 79.62C23.0378 79.6104 23.0866 79.6008 23.1331 79.5912C23.2028 79.5767 23.2656 79.5647 23.3167 79.5551C23.3516 79.5503 23.3818 79.5431 23.4097 79.5383C23.491 79.5238 23.5328 79.5166 23.5328 79.5166L23.663 79.584H23.6653L32.4014 84.0151L33.8563 84.7536H33.8586L33.9864 84.8162L34.3304 84.9918L34.3583 86.2812L34.7139 102.187L34.8882 109.928L34.8882 109.928Z" fill="#C8996B"/>
<path d="M52.1454 79.2764C51.9133 76.8532 50.5172 75.013 49.0273 75.1661C47.5374 75.3193 46.5183 77.4077 46.7508 79.8317C46.8309 80.8014 47.1341 81.7371 47.6352 82.5605L48.7441 92.815L53.382 92.1738L51.7964 82.1328C52.1314 81.2232 52.2511 80.2437 52.1454 79.2764V79.2764Z" fill="#F1CEAA"/>
<path d="M32.4588 86.9305C32.4588 86.9305 39.29 83.5091 41.9344 90.1238C44.5788 96.7386 47.4986 102.356 47.4986 102.356L48.3249 89.4395H53.0905C53.0905 89.4395 61.5467 116.583 54.9358 118.408C48.3249 120.232 24.7461 103.125 24.7461 103.125L32.4588 86.9305V86.9305Z" fill="#C8996B"/>
</g>
<defs>
<clipPath id="clip0_903_366">
<rect width="193" height="140" fill="white" transform="translate(0.87793)"/>
</clipPath>
</defs>
</svg>
