<svg width="172" height="140" viewBox="0 0 172 140" fill="none" xmlns="http://www.w3.org/2000/svg">
<g clip-path="url(#clip0_903_407)">
<path d="M49.5915 94.1828C60.4348 94.1828 69.225 85.2571 69.225 74.2467C69.225 63.2362 60.4348 54.3105 49.5915 54.3105C38.7482 54.3105 29.958 63.2362 29.958 74.2467C29.958 85.2571 38.7482 94.1828 49.5915 94.1828Z" fill="#E6E6E6"/>
<path d="M44.2872 103.358L49.1168 106.397V85.8554L43.7034 82.4492C43.2559 82.1676 42.9288 81.7256 42.7871 81.2107V81.2107C43.3043 81.1104 43.8397 81.211 44.2872 81.4926L49.1168 84.5315V76.5661C49.1168 75.0252 49.3029 73.49 49.671 71.9951C50.039 73.49 50.2251 75.0252 50.2251 76.5661V89.5671L57.3501 85.0839C57.919 84.7259 58.5773 84.5415 59.2465 84.5526C58.9584 85.1661 58.5028 85.6825 57.9339 86.0405L50.2251 90.891V139.88H49.1168V107.721L43.7034 104.315C43.2559 104.033 42.9288 103.591 42.7871 103.076V103.076C43.3043 102.976 43.8397 103.076 44.2872 103.358V103.358Z" fill="#CCCCCC"/>
<path d="M20.5114 95.8752C31.3547 95.8752 40.1449 86.9495 40.1449 75.939C40.1449 64.9286 31.3547 56.0029 20.5114 56.0029C9.66814 56.0029 0.87793 64.9286 0.87793 75.939C0.87793 86.9495 9.66814 95.8752 20.5114 95.8752Z" fill="#E6E6E6"/>
<path d="M25.8157 105.051L20.9861 108.09V87.5488L26.3995 84.1426C26.847 83.861 27.1741 83.4189 27.3158 82.904C26.7986 82.8037 26.2632 82.9043 25.8157 83.186L20.9861 86.2248V78.2595C20.9861 76.7185 20.8 75.1834 20.432 73.6885C20.0639 75.1834 19.8778 76.7185 19.8778 78.2595V91.2604L12.7528 86.7772C12.1839 86.4193 11.5257 86.2349 10.8564 86.246C11.1445 86.8594 11.6001 87.3759 12.169 87.7339L19.8778 92.5844V139.578H20.9861V109.414L26.3995 106.008C26.847 105.726 27.1741 105.284 27.3158 104.769C26.7986 104.669 26.2633 104.77 25.8157 105.051Z" fill="#CCCCCC"/>
<path d="M34.7736 68.6499C53.443 68.6499 68.5775 53.2821 68.5775 34.3249C68.5775 15.3678 53.443 0 34.7736 0C16.1042 0 0.969727 15.3678 0.969727 34.3249C0.969727 53.2821 16.1042 68.6499 34.7736 68.6499Z" fill="#5BAA00"/>
<path d="M43.9064 84.4482L35.5912 89.6803V54.3132L44.9116 48.4486C45.6822 47.9637 46.2452 47.2026 46.4892 46.3161L46.4893 46.3161H46.4892C45.5988 46.1434 44.677 46.3166 43.9065 46.8015L35.5912 52.0336V38.3193C35.5912 35.6662 35.2707 33.0231 34.637 30.4492C34.0033 33.0231 33.6829 35.6662 33.6829 38.3193V60.7036L21.4155 52.9847C20.436 52.3684 19.3026 52.0509 18.1504 52.0701C18.6463 53.1263 19.4308 54.0155 20.4103 54.6318L33.6829 62.9832V139.652H35.5912V91.9599L44.9116 86.0953C45.6822 85.6104 46.2452 84.8493 46.4892 83.9628L46.4893 83.9628H46.4893C45.5988 83.7901 44.677 83.9633 43.9064 84.4482V84.4482Z" fill="#CCCCCC"/>
<path d="M171.877 139.59H7.65918V140H171.877V139.59Z" fill="#3F3D56"/>
<path d="M130.742 33.0209H130.284V9.64731C130.284 7.52639 129.454 5.49234 127.977 3.99263C126.5 2.49292 124.497 1.65039 122.408 1.65039H71.145C69.0563 1.65039 67.0531 2.49292 65.5762 3.99263C64.0992 5.49234 63.2695 7.52639 63.2694 9.64731V19.8881H63.0957C62.973 19.8881 62.8554 19.9376 62.7687 20.0257C62.6819 20.1138 62.6332 20.2333 62.6332 20.3578V24.9378C62.6332 25.0624 62.6819 25.1818 62.7687 25.2699C62.8554 25.358 62.973 25.4075 63.0957 25.4075H63.2694V29.9916H63.0553C62.9946 29.9916 62.9344 30.0037 62.8783 30.0273C62.8222 30.0509 62.7712 30.0855 62.7282 30.1291C62.6853 30.1727 62.6512 30.2245 62.628 30.2815C62.6047 30.3385 62.5928 30.3996 62.5928 30.4612V39.1289C62.5928 39.2534 62.6415 39.3729 62.7283 39.461C62.815 39.5491 62.9327 39.5985 63.0553 39.5985H63.2694V42.9602H63.0755C63.0148 42.9602 62.9546 42.9723 62.8985 42.9959C62.8424 43.0195 62.7914 43.0541 62.7485 43.0977C62.7055 43.1413 62.6714 43.1931 62.6482 43.2501C62.6249 43.3071 62.613 43.3681 62.613 43.4298V52.1796C62.613 52.3041 62.6617 52.4236 62.7485 52.5117C62.8352 52.5998 62.9529 52.6493 63.0755 52.6493H63.2694V131.948C63.2694 134.069 64.0992 136.103 65.5761 137.603C67.0531 139.103 69.0563 139.945 71.145 139.945H122.408C124.497 139.945 126.5 139.103 127.977 137.603C129.454 136.103 130.284 134.069 130.284 131.948V49.784H130.742C130.865 49.784 130.982 49.7345 131.069 49.6465C131.156 49.5584 131.205 49.4389 131.205 49.3144V33.4906C131.205 33.366 131.156 33.2465 131.069 33.1584C130.982 33.0704 130.865 33.0209 130.742 33.0209Z" fill="#3F3D56"/>
<path d="M98.8884 7.81074H91.0936C90.8596 7.81049 90.6353 7.71601 90.4698 7.54801C90.3043 7.38002 90.2112 7.15222 90.2109 6.91461V6.57191C90.2112 6.33429 90.3043 6.1065 90.4698 5.93851C90.6353 5.77051 90.8596 5.67602 91.0936 5.67578H98.8884C99.1224 5.67602 99.3468 5.77051 99.5122 5.93851C99.6777 6.1065 99.7708 6.33429 99.7711 6.57191V6.91461C99.7708 7.15222 99.6777 7.38001 99.5123 7.54801C99.3468 7.71601 99.1224 7.81049 98.8884 7.81074V7.81074Z" fill="white"/>
<path d="M102.163 7.83992C102.758 7.83992 103.241 7.34956 103.241 6.74467C103.241 6.13978 102.758 5.64941 102.163 5.64941C101.567 5.64941 101.084 6.13978 101.084 6.74467C101.084 7.34956 101.567 7.83992 102.163 7.83992Z" fill="white"/>
<path d="M120.823 5.25195H113.148V6.18927C113.148 7.36968 112.686 8.50175 111.864 9.33642C111.042 10.1711 109.927 10.64 108.765 10.64H84.3117C83.7363 10.6403 83.1666 10.5255 82.6349 10.3022C82.1033 10.0788 81.6202 9.75138 81.2131 9.33847C80.8061 8.92556 80.4832 8.43529 80.2628 7.89566C80.0424 7.35602 79.9288 6.77759 79.9285 6.19338V5.25195H72.7316C71.32 5.25195 69.9662 5.82135 68.9681 6.83488C67.9699 7.84842 67.4092 9.22306 67.4092 10.6564V10.6564V130.937C67.4092 132.37 67.9699 133.745 68.9681 134.759C69.9662 135.772 71.32 136.342 72.7316 136.342H120.823C122.234 136.342 123.588 135.772 124.585 134.759C125.583 133.746 126.144 132.372 126.144 130.939V10.6564C126.144 9.94696 126.007 9.2444 125.74 8.58885C125.472 7.93329 125.081 7.33759 124.587 6.83573C124.093 6.33388 123.507 5.93572 122.861 5.66397C122.216 5.39223 121.524 5.25222 120.825 5.25195H120.823Z" fill="white"/>
<path d="M107.077 121.746H86.4737C85.0005 121.746 83.5876 121.151 82.5459 120.093C81.5042 119.036 80.9189 117.601 80.9189 116.105C80.9189 114.609 81.5042 113.175 82.5459 112.117C83.5876 111.059 85.0005 110.465 86.4737 110.465H107.077C108.55 110.465 109.963 111.059 111.005 112.117C112.046 113.175 112.631 114.609 112.631 116.105C112.631 117.601 112.046 119.036 111.005 120.093C109.963 121.151 108.55 121.746 107.077 121.746V121.746Z" fill="#5BAA00"/>
<path d="M115.157 75.4155H78.3945C77.8856 75.4155 77.3975 75.2102 77.0376 74.8448C76.6778 74.4794 76.4756 73.9838 76.4756 73.467C76.4756 72.9503 76.6778 72.4547 77.0376 72.0893C77.3975 71.7238 77.8856 71.5186 78.3945 71.5186H115.157C115.666 71.5186 116.154 71.7238 116.514 72.0893C116.873 72.4547 117.076 72.9503 117.076 73.467C117.076 73.9838 116.873 74.4794 116.514 74.8448C116.154 75.2102 115.666 75.4155 115.157 75.4155V75.4155Z" fill="#C8996B"/>
<path d="M115.157 81.1587H78.3945C77.8856 81.1587 77.3975 80.9534 77.0376 80.588C76.6778 80.2226 76.4756 79.727 76.4756 79.2102C76.4756 78.6934 76.6778 78.1978 77.0376 77.8324C77.3975 77.467 77.8856 77.2617 78.3945 77.2617H115.157C115.666 77.2617 116.154 77.467 116.514 77.8324C116.873 78.1978 117.076 78.6934 117.076 79.2102C117.076 79.727 116.873 80.2226 116.514 80.588C116.154 80.9534 115.666 81.1587 115.157 81.1587V81.1587Z" fill="#C8996B"/>
<path d="M115.157 86.9009H78.3945C77.8856 86.9009 77.3975 86.6956 77.0376 86.3302C76.6778 85.9647 76.4756 85.4692 76.4756 84.9524C76.4756 84.4356 76.6778 83.94 77.0376 83.5746C77.3975 83.2092 77.8856 83.0039 78.3945 83.0039H115.157C115.666 83.0039 116.154 83.2092 116.514 83.5746C116.873 83.94 117.076 84.4356 117.076 84.9524C117.076 85.4692 116.873 85.9647 116.514 86.3302C116.154 86.6956 115.666 86.9009 115.157 86.9009V86.9009Z" fill="#C8996B"/>
<path d="M115.157 92.644H78.3945C77.8856 92.644 77.3975 92.4387 77.0376 92.0733C76.6778 91.7079 76.4756 91.2123 76.4756 90.6956C76.4756 90.1788 76.6778 89.6832 77.0376 89.3178C77.3975 88.9524 77.8856 88.7471 78.3945 88.7471H115.157C115.666 88.7471 116.154 88.9524 116.514 89.3178C116.873 89.6832 117.076 90.1788 117.076 90.6956C117.076 91.2123 116.873 91.7079 116.514 92.0733C116.154 92.4387 115.666 92.644 115.157 92.644V92.644Z" fill="#C8996B"/>
<path d="M90.11 98.3872H78.3945C77.8856 98.3872 77.3975 98.1819 77.0376 97.8165C76.6778 97.4511 76.4756 96.9555 76.4756 96.4387C76.4756 95.9219 76.6778 95.4263 77.0376 95.0609C77.3975 94.6955 77.8856 94.4902 78.3945 94.4902H90.11C90.6189 94.4902 91.107 94.6955 91.4669 95.0609C91.8267 95.4263 92.0289 95.9219 92.0289 96.4387C92.0289 96.9555 91.8267 97.4511 91.4669 97.8165C91.107 98.1819 90.6189 98.3872 90.11 98.3872H90.11Z" fill="#C8996B"/>
<path d="M120.911 59.4477H72.6408C72.2141 59.4472 71.805 59.2748 71.5032 58.9685C71.2015 58.6621 71.0317 58.2467 71.0312 57.8134V21.436C71.0317 21.0027 71.2015 20.5873 71.5032 20.2809C71.805 19.9746 72.2141 19.8022 72.6408 19.8018H120.911C121.337 19.8022 121.746 19.9746 122.048 20.2809C122.35 20.5873 122.52 21.0027 122.52 21.436V57.8134C122.52 58.2467 122.35 58.6621 122.048 58.9685C121.746 59.2748 121.337 59.4472 120.911 59.4477V59.4477Z" fill="#E6E6E6"/>
<g opacity="0.1">
<path d="M129.46 49.064C129.46 48.7823 129.46 48.4993 129.46 48.2148C129.449 48.4342 129.449 48.6539 129.46 48.8732C129.458 48.9368 129.46 49.0004 129.46 49.064Z" fill="black"/>
</g>
<path d="M137.512 65.192C140.439 65.192 142.812 62.7826 142.812 59.8104C142.812 56.8382 140.439 54.4287 137.512 54.4287C134.585 54.4287 132.212 56.8382 132.212 59.8104C132.212 62.7826 134.585 65.192 137.512 65.192Z" fill="#FFB8B8"/>
<path d="M151.297 103.45C151.504 103.257 151.667 103.021 151.774 102.758C151.882 102.495 151.931 102.211 151.918 101.927C151.906 101.642 151.832 101.364 151.702 101.111C151.573 100.859 151.39 100.638 151.167 100.466L150.445 93.9473L146.42 95.0628L148.379 100.929C148.118 101.329 148.01 101.812 148.076 102.286C148.141 102.761 148.376 103.195 148.736 103.506C149.096 103.816 149.555 103.982 150.027 103.972C150.499 103.961 150.951 103.776 151.297 103.45V103.45Z" fill="#FFB8B8"/>
<path d="M154.237 136.451L156.459 134.992L151.974 125.598L148.695 127.751L154.237 136.451Z" fill="#FFB8B8"/>
<path d="M162.077 134.273L155.096 138.859L153.351 136.12L157.736 133.24C158.077 133.016 158.458 132.862 158.857 132.788C159.257 132.714 159.667 132.72 160.064 132.806C160.461 132.893 160.837 133.058 161.172 133.292C161.506 133.526 161.791 133.825 162.012 134.171L162.077 134.273V134.273Z" fill="#2F2E41"/>
<path d="M134.565 137.406H137.211L138.47 127.045H134.565V137.406Z" fill="#FFB8B8"/>
<path d="M142.312 139.9H133.998V136.638H139.22C140.04 136.638 140.827 136.969 141.407 137.558C141.987 138.147 142.313 138.946 142.312 139.778V139.9V139.9Z" fill="#2F2E41"/>
<path d="M145.182 70.4961C144.83 71.6593 146.077 72.9256 146.479 74.0689C146.882 75.2121 147.424 76.3122 147.641 77.5087C147.79 78.3313 151.165 96.5011 151.003 97.6076C149.964 97.2915 148.845 97.3957 147.88 97.8984C147.206 96.696 146.801 95.3576 146.694 93.9783C146.653 93.1604 146.661 92.3408 146.717 91.5239C146.821 89.2124 145.835 86.8976 145.802 84.5844C145.812 83.7827 145.75 82.9816 145.615 82.1915C145.507 81.6481 145.517 80.6311 145.401 80.0894C145.216 79.2286 146.011 78.8314 145.967 77.9491L145.725 73.13C145.674 72.2858 144.84 71.2505 145.182 70.4961Z" fill="#2F2E41"/>
<path d="M133.217 90.7147C132.367 92.0621 130.576 92.3536 129.324 93.3188C127.41 94.8022 132.292 128.131 133.904 134.052C138.157 133.404 138.306 133.406 138.795 133.188C139.284 132.97 139.727 116.041 140.76 112.552C142.694 114.403 148.781 130.31 150.066 133.836C155.17 132.54 150.066 133.836 156.658 132.108C156.603 130.886 146.916 91.0623 146.563 87.9248C142.132 88.821 137.636 89.8207 133.217 90.7147Z" fill="#2F2E41"/>
<path d="M132.643 65.6882C132.118 67.2685 132.833 73.417 132.885 74.7996C132.961 76.0547 132.961 77.3133 132.885 78.5684C132.704 80.742 132.067 82.9305 132.494 85.0675C132.774 86.4817 133.272 87.7961 133.388 89.2352C133.466 90.2323 133.442 91.2459 133.753 92.1915C134.898 91.693 145.055 89.9793 145.801 88.9826C145.29 86.4784 145.785 83.8927 145.446 81.3585C145.249 79.8978 144.763 78.492 144.534 77.038C144.251 75.2433 144.371 73.3821 143.855 71.639C143.569 70.7564 143.206 69.9016 142.77 69.0848C142.326 68.1559 141.77 67.3929 141.579 67.3932C141.096 67.4198 132.674 65.5474 132.643 65.6882Z" fill="#5BAA00"/>
<path d="M130.699 103.314C130.699 103.314 132.459 99.7459 132.548 97.7053C132.579 96.9725 134.556 94.0561 135.446 93.3947C137.557 91.8244 139.114 81.2989 138.4 78.7447C137.166 74.3295 135.088 70.2133 132.978 66.1553C132.915 66.004 132.814 65.8726 132.684 65.7748C132.255 65.5039 131.79 66.0373 131.497 66.4544C130.504 67.8686 128.867 68.6247 127.368 69.4605C125.869 70.2964 124.336 71.4098 123.882 73.0832C123.578 74.2065 123.815 75.398 124.046 76.5363C124.277 77.6746 125.084 78.5786 125.694 79.5374C126.402 80.5956 128.24 85.2884 128.226 85.8454C128.262 89.2885 128.296 92.7433 127.885 96.1632C127.655 98.0958 127.452 101.979 127.452 101.979L130.699 103.314Z" fill="#2F2E41"/>
<path d="M146.692 99.6245C143.45 92.1317 143.631 83.6052 141.571 75.6953C140.959 73.3472 140.141 70.9876 140.288 68.5631C140.314 68.1294 140.404 67.6425 140.761 67.3998C141.078 67.1838 141.51 67.242 141.859 67.3998C142.208 67.5577 142.505 67.8153 142.841 67.9914C143.383 68.2723 144.013 68.352 144.533 68.6694C145.306 69.1414 145.7 70.0387 146.045 70.8829C146.783 72.6859 147.518 74.5387 147.577 76.4929C147.701 80.2884 146.044 83.9359 146.908 87.6267C147.094 88.3545 147.317 89.0722 147.575 89.777C148.442 92.3229 149.152 94.9207 149.703 97.5556C149.799 98.0059 146.827 99.9402 146.692 99.6245Z" fill="#2F2E41"/>
<path d="M136.4 97.8514C136.443 97.5701 136.425 97.2825 136.347 97.0089C136.27 96.7354 136.133 96.4825 135.949 96.2681C135.764 96.0537 135.536 95.8831 135.279 95.7681C135.022 95.6532 134.744 95.5967 134.464 95.6028L129.892 90.9688L127.434 94.3914L132.571 97.7324C132.612 98.21 132.825 98.6557 133.168 98.9849C133.511 99.3142 133.962 99.5041 134.434 99.5188C134.905 99.5335 135.366 99.3718 135.729 99.0645C136.091 98.7572 136.33 98.3256 136.4 97.8514V97.8514Z" fill="#FFB8B8"/>
<path d="M121.833 87.3282C121.908 88.0244 127.668 95.3675 130.798 97.7639C130.616 96.8184 133.07 93.7342 133.863 93.2523C131.88 91.3524 127.736 86.9458 127.599 86.705C127.15 85.8259 127.599 84.7757 127.99 83.8667C129.222 80.9769 129.803 77.6983 129.013 74.6523C128.715 73.509 128.194 72.3641 127.247 71.6612C126.833 71.3554 126.273 71.146 125.813 71.3787C125.621 71.4913 125.453 71.6435 125.322 71.8257C123.854 73.6387 121.777 86.8114 121.833 87.3282Z" fill="#2F2E41"/>
<path d="M135.252 64.5193C135.562 63.1861 133.998 60.3174 134.307 58.9843C134.517 58.0814 136.607 58.6951 137.095 57.9109C137.583 57.1268 138.401 56.4914 139.314 56.481C140.364 56.4691 141.397 57.2599 142.392 56.9181C143.397 56.5725 143.719 55.1741 143.274 54.1952C142.83 53.2162 141.872 52.5924 140.926 52.1036C139.314 51.2712 137.438 50.6633 135.713 51.2141C134.671 51.547 133.799 52.2684 132.955 52.9739C132.186 53.617 131.405 54.2748 130.867 55.1265C129.814 56.7949 129.878 59.043 130.777 60.8015C131.677 62.5599 133.317 63.8504 135.124 64.5994" fill="#2F2E41"/>
</g>
<defs>
<clipPath id="clip0_903_407">
<rect width="171" height="140" fill="white" transform="translate(0.87793)"/>
</clipPath>
</defs>
</svg>
