<svg width="16" height="16" viewBox="0 0 16 16" xmlns="http://www.w3.org/2000/svg">
<path fill-rule="evenodd" clip-rule="evenodd" d="M5.87741 1.25838C5.81974 1.19591 5.74069 1.12567 5.6332 1.0739C5.52225 1.02047 5.40878 1 5.3 1C5.08374 1 4.8709 1.08144 4.7151 1.25024C4.56264 1.4154 4.5 1.62531 4.5 1.825C4.5 2.05666 4.58328 2.23822 4.71706 2.38558L9.61639 8L4.71706 13.6144C4.58328 13.7618 4.5 13.9433 4.5 14.175C4.5 14.3747 4.56264 14.5846 4.7151 14.7498C4.8709 14.9186 5.08374 15 5.3 15C5.40878 15 5.52225 14.9795 5.6332 14.9261C5.74069 14.8743 5.81974 14.8041 5.87741 14.7416L5.88652 14.7317L11.2827 8.5608C11.4166 8.41341 11.5 8.23178 11.5 8C11.5 7.76822 11.4166 7.58659 11.2827 7.4392L5.87741 1.25838Z"/>
</svg>
