<svg width="24" height="24" viewBox="0 0 24 24" fill="none" xmlns="http://www.w3.org/2000/svg">
<path d="M21 21V3C21 1.7595 19.9905 0.75 18.75 0.75H5.25C4.0095 0.75 3 1.7595 3 3V21C3 22.2405 4.0095 23.25 5.25 23.25H18.75C19.9905 23.25 21 22.2405 21 21ZM4.5 21V3C4.5 2.58675 4.83675 2.25 5.25 2.25H18.75C19.164 2.25 19.5 2.58675 19.5 3V21C19.5 21.4132 19.164 21.75 18.75 21.75H5.25C4.83675 21.75 4.5 21.4132 4.5 21Z" fill="#5BAA00"/>
<path d="M16.5 3.75H7.5C6.67275 3.75 6 4.42275 6 5.25V6.75C6 7.57725 6.67275 8.25 7.5 8.25H16.5C17.3273 8.25 18 7.57725 18 6.75V5.25C18 4.42275 17.3273 3.75 16.5 3.75ZM7.5 6.75V5.25H16.5L16.5007 6.75H7.5Z" fill="#5BAA00"/>
<path d="M9.75 11.25H9V10.5C9 10.086 8.664 9.75 8.25 9.75C7.836 9.75 7.5 10.086 7.5 10.5V11.25H6.75C6.336 11.25 6 11.586 6 12C6 12.414 6.336 12.75 6.75 12.75H7.5V13.5C7.5 13.914 7.836 14.25 8.25 14.25C8.664 14.25 9 13.914 9 13.5V12.75H9.75C10.164 12.75 10.5 12.414 10.5 12C10.5 11.586 10.164 11.25 9.75 11.25Z" fill="#5BAA00"/>
<path d="M17.25 11.25H14.25C13.8353 11.25 13.5 11.586 13.5 12C13.5 12.414 13.8353 12.75 14.25 12.75H17.25C17.6647 12.75 18 12.414 18 12C18 11.586 17.6647 11.25 17.25 11.25Z" fill="#5BAA00"/>
<path d="M17.25 16.125H14.25C13.8353 16.125 13.5 16.461 13.5 16.875C13.5 17.289 13.8353 17.625 14.25 17.625H17.25C17.6647 17.625 18 17.289 18 16.875C18 16.461 17.6647 16.125 17.25 16.125Z" fill="#5BAA00"/>
<path d="M17.25 18.375H14.25C13.8353 18.375 13.5 18.711 13.5 19.125C13.5 19.539 13.8353 19.875 14.25 19.875H17.25C17.6647 19.875 18 19.539 18 19.125C18 18.711 17.6647 18.375 17.25 18.375Z" fill="#5BAA00"/>
<path d="M9.84113 16.4094C9.54788 16.1161 9.07388 16.1161 8.78063 16.4094L8.25038 16.9396L7.72013 16.4094C7.42688 16.1161 6.95288 16.1161 6.65963 16.4094C6.36638 16.7026 6.36638 17.1766 6.65963 17.4699L7.18988 18.0001L6.65963 18.5304C6.36638 18.8236 6.36638 19.2976 6.65963 19.5909C6.80588 19.7371 6.99788 19.8106 7.18988 19.8106C7.38188 19.8106 7.57388 19.7371 7.72013 19.5909L8.25038 19.0606L8.78063 19.5909C8.92688 19.7371 9.11887 19.8106 9.31087 19.8106C9.50287 19.8106 9.69488 19.7371 9.84113 19.5909C10.1344 19.2976 10.1344 18.8236 9.84113 18.5304L9.31087 18.0001L9.84113 17.4699C10.1344 17.1766 10.1344 16.7026 9.84113 16.4094Z" fill="#5BAA00"/>
</svg>
