<svg width="16" height="16" viewBox="0 0 16 16" fill="none" xmlns="http://www.w3.org/2000/svg">
<path fill-rule="evenodd" clip-rule="evenodd" d="M13.5812 14.1998L2.41841 14.1998C1.85027 14.1975 1.30996 13.9459 0.915209 13.5079C0.521064 13.0705 0.301796 12.482 0.299806 11.8714L0.299805 4.12884C0.301796 3.51831 0.521064 2.92912 0.915209 2.49175C1.30996 2.0537 1.84947 1.80209 2.41761 1.79981L13.5812 1.7998C14.1493 1.80209 14.6896 2.0537 15.0844 2.49175C15.4785 2.92912 15.6978 3.51766 15.6998 4.12819L15.6998 11.8708C15.6978 12.4813 15.4785 13.0705 15.0844 13.5079C14.6896 13.9459 14.1493 14.1975 13.5812 14.1998ZM6.73893 8.86351L1.74632 5.56985V11.8708C1.74632 12.0807 1.82167 12.2784 1.95032 12.4212C2.07835 12.5633 2.24727 12.6385 2.41841 12.6385H13.5812C13.7523 12.6385 13.9213 12.5633 14.0493 12.4212C14.1779 12.2784 14.2533 12.0807 14.2533 11.8708V5.54763L9.26086 8.86396C8.88052 9.11266 8.44517 9.24495 8.00023 9.24495C7.55529 9.24495 7.11927 9.11222 6.73893 8.86351ZM9.15139 8.69656C8.80258 8.92466 8.4051 9.04495 8.00023 9.04495C7.59536 9.04495 7.19788 8.92466 6.84907 8.69656L1.54632 5.19831V11.8708C1.54632 12.1274 1.6382 12.3736 1.80175 12.5551C1.9653 12.7366 2.18712 12.8385 2.41841 12.8385H13.5812C13.8125 12.8385 14.0343 12.7366 14.1979 12.5551C14.3614 12.3736 14.4533 12.1274 14.4533 11.8708V5.17467L9.15139 8.69656ZM15.4998 11.8708C15.498 12.4348 15.2952 12.9751 14.9358 13.374C14.5764 13.7728 14.0895 13.9978 13.5812 13.9998H2.41841C1.91013 13.9978 1.42319 13.7728 1.06378 13.374C0.704371 12.9751 0.501643 12.4348 0.499805 11.8708V4.12884C0.50008 4.04444 0.504853 3.96057 0.513975 3.87763C0.514108 3.87643 0.514242 3.87522 0.514377 3.87401C0.524746 3.78106 0.540579 3.68928 0.561667 3.59922C0.64721 3.23392 0.819224 2.89702 1.06378 2.62564C1.42319 2.22681 1.91013 2.00184 2.41841 1.9998H13.5812C14.0895 2.00184 14.5764 2.22681 14.9358 2.62564C15.1916 2.90941 15.368 3.26482 15.4491 3.64944C15.4633 3.71648 15.4745 3.78441 15.4828 3.85301C15.483 3.85504 15.4833 3.85708 15.4835 3.85912C15.494 3.94808 15.4995 4.03815 15.4998 4.12884V11.8708ZM1.63446 3.70487C1.67644 3.60928 1.73271 3.52115 1.80175 3.44454C1.9653 3.26305 2.18712 3.1611 2.41841 3.1611H13.5812C13.8125 3.1611 14.0343 3.26305 14.1979 3.44454C14.2619 3.51557 14.3149 3.5965 14.3557 3.68409C14.3846 3.74604 14.4074 3.81132 14.4237 3.87878L8.59326 7.71334C8.40833 7.8385 8.19591 7.90471 7.9793 7.90471C7.7627 7.90471 7.55027 7.8385 7.36535 7.71334L1.57056 3.90222C1.58538 3.83398 1.60682 3.76781 1.63446 3.70487ZM1.80455 3.81673C1.83929 3.72782 1.88869 3.64682 1.95032 3.57843C2.07835 3.43635 2.24727 3.3611 2.41841 3.3611H13.5812C13.7523 3.3611 13.9213 3.43635 14.0493 3.57843C14.106 3.64132 14.1523 3.71488 14.1864 3.79545L8.48336 7.54624L8.48116 7.54771C8.32824 7.6512 8.15466 7.70471 7.9793 7.70471C7.80395 7.70471 7.63037 7.6512 7.47745 7.54771L1.80455 3.81673Z" fill="#5BAA00"/>
<path fill-rule="evenodd" clip-rule="evenodd" d="M15.4998 11.8708C15.498 12.4348 15.2952 12.9751 14.9358 13.374C14.5764 13.7728 14.0895 13.9978 13.5812 13.9998H2.41841C1.91013 13.9978 1.42319 13.7728 1.06378 13.374C0.704371 12.9751 0.501643 12.4348 0.499805 11.8708V4.12884C0.50008 4.04444 0.504853 3.96057 0.513975 3.87763L0.514377 3.87401C0.524746 3.78106 0.540579 3.68928 0.561667 3.59922C0.64721 3.23392 0.819224 2.89702 1.06378 2.62564C1.42319 2.22681 1.91013 2.00184 2.41841 1.9998H13.5812C14.0895 2.00184 14.5764 2.22681 14.9358 2.62564C15.1916 2.90941 15.368 3.26482 15.4491 3.64944C15.4633 3.71648 15.4745 3.78441 15.4828 3.85301L15.4835 3.85912C15.494 3.94808 15.4995 4.03815 15.4998 4.12884V11.8708ZM8.00023 9.04495C8.4051 9.04495 8.80258 8.92466 9.15139 8.69656L14.4533 5.17467V11.8708C14.4533 12.1274 14.3614 12.3736 14.1979 12.5551C14.0343 12.7366 13.8125 12.8385 13.5812 12.8385H2.41841C2.18712 12.8385 1.9653 12.7366 1.80175 12.5551C1.6382 12.3736 1.54632 12.1274 1.54632 11.8708V5.19831L6.84907 8.69656C7.19788 8.92466 7.59536 9.04495 8.00023 9.04495ZM1.63446 3.70487C1.67644 3.60928 1.73271 3.52115 1.80175 3.44454C1.9653 3.26305 2.18712 3.1611 2.41841 3.1611H13.5812C13.8125 3.1611 14.0343 3.26305 14.1979 3.44454C14.2619 3.51557 14.3149 3.5965 14.3557 3.68409C14.3846 3.74604 14.4074 3.81132 14.4237 3.87878L8.59326 7.71334C8.40833 7.8385 8.19591 7.90471 7.9793 7.90471C7.7627 7.90471 7.55027 7.8385 7.36535 7.71334L1.57056 3.90222C1.58538 3.83398 1.60682 3.76781 1.63446 3.70487Z" fill="#5BAA00"/>
</svg>
