<svg width="98" height="98" viewBox="0 0 98 98" fill="none" xmlns="http://www.w3.org/2000/svg">
<g clip-path="url(#clip0_523_4872)">
<path d="M95.1282 76.9455H86.5149V49.4689L89.925 51.3299C90.3617 51.5676 90.8327 51.6805 91.297 51.6805C92.3139 51.6805 93.2993 51.1392 93.8205 50.1837C94.5794 48.7922 94.0665 47.0479 92.6743 46.2882L8.45605 0.351355C7.06461 -0.40829 5.32026 0.10462 4.56137 1.49681C3.80172 2.88824 4.31463 4.63259 5.70682 5.39223L11.867 8.75157V42.4922H3.25367C1.66783 42.4922 0.382568 43.7775 0.382568 45.3633V95.1291C0.382568 96.7142 1.66783 98.0002 3.25367 98.0002H95.1282C96.714 98.0002 97.9993 96.7142 97.9993 95.1291V79.8166C97.9993 78.2307 96.714 76.9455 95.1282 76.9455V76.9455ZM80.7727 76.9455H75.0305V68.3322C75.0305 66.7463 73.7452 65.4611 72.1594 65.4611H63.5461V36.9407L80.7727 46.3368V76.9455ZM52.0616 65.4611V56.8477C52.0616 55.2627 50.7764 53.9766 49.1905 53.9766H40.5772V24.4125L57.8038 33.8087V65.4611H52.0616ZM17.6084 11.8844L34.835 21.2805V53.9766H29.0928V45.3633C29.0928 43.7783 27.8076 42.4922 26.2217 42.4922H17.6084V11.8844ZM92.2571 92.258H6.12477V48.2344H23.3506V56.8477C23.3506 58.4336 24.6366 59.7188 26.2217 59.7188H46.3194V68.3322C46.3194 69.918 47.6047 71.2033 49.1905 71.2033H69.2883V79.8166C69.2883 81.4024 70.5735 82.6877 72.1594 82.6877H92.2571V92.258Z" fill="#C8996B"/>
</g>
<defs>
<clipPath id="clip0_523_4872">
<rect width="98" height="98" fill="white"/>
</clipPath>
</defs>
</svg>
