<svg width="16" height="16" viewBox="0 0 16 16" xmlns="http://www.w3.org/2000/svg">
<path d="M8.687 1.26162C8.50133 1.08609 8.25551 0.988281 8 0.988281C7.74449 0.988281 7.49867 1.08609 7.313 1.26162L2.469 5.83962C2.32068 5.97998 2.20258 6.14914 2.12194 6.33673C2.04129 6.52433 1.9998 6.72642 2 6.93062V12.5006C2.00027 12.8983 2.15842 13.2796 2.43969 13.5606C2.72097 13.8417 3.10235 13.9996 3.5 13.9996H5C5.39783 13.9996 5.77936 13.8416 6.06066 13.5603C6.34197 13.279 6.5 12.8974 6.5 12.4996V9.99962C6.5 9.86702 6.55268 9.73984 6.64645 9.64607C6.74022 9.5523 6.86739 9.49962 7 9.49962H9C9.13261 9.49962 9.25979 9.5523 9.35355 9.64607C9.44732 9.73984 9.5 9.86702 9.5 9.99962V12.4996C9.5 12.8974 9.65804 13.279 9.93934 13.5603C10.2206 13.8416 10.6022 13.9996 11 13.9996H12.5C12.8978 13.9996 13.2794 13.8416 13.5607 13.5603C13.842 13.279 14 12.8974 14 12.4996V6.92962C13.9999 6.72552 13.9582 6.52358 13.8774 6.33615C13.7966 6.14873 13.6784 5.97977 13.53 5.83962L8.687 1.25962V1.26162Z"/>
</svg>