<svg width="68" height="68" viewBox="0 0 68 68" xmlns="http://www.w3.org/2000/svg">
<path d="M37.7775 0.893033C37.1503 0.318486 36.3306 -0.000131322 35.4802 1.49054e-06H32.5199C31.6697 -0.000795384 30.8501 0.317955 30.2237 0.893033L0.735516 27.9083C0.267352 28.3382 0.000664062 28.9445 0 29.58V65.7333C0 66.9852 1.01482 68 2.26671 68H65.7334C66.9853 68 68.0001 66.9852 68.0001 65.7333V29.58C67.9999 28.9441 67.733 28.3373 67.2646 27.9072L37.7775 0.893033ZM36.2452 2.56474L61.2 25.4275V29.1505L35.1333 5.1692V2.26671H35.4801C35.7636 2.26618 36.0368 2.37256 36.2452 2.56474V2.56474ZM22.6667 61.2V49.8667H45.3334V61.2H22.6667ZM6.8 61.2V49.8667H15.8667V61.2H6.8ZM6.8 45.3333H15.8667V47.6H6.8V45.3333ZM15.8667 43.0667H6.8V32.2309L15.8667 23.8897V43.0667ZM18.1333 48.7333V21.8042L20.4 19.7189V61.2H18.1333V48.7333ZM31.7333 22.6667H45.3333V24.9334H22.6667V22.6667H31.7333ZM22.6667 27.2H45.3334V43.0667H22.6667V27.2ZM22.6667 45.3333H45.3334V47.6H22.6667V45.3333ZM45.3333 20.4H37.4V10.3348L45.3333 17.6335V20.4ZM34 7.20574L35.1333 8.24845V20.4H32.8666V8.24845L34 7.20574ZM30.6 20.4H22.6667V17.6335L30.6 10.3348V20.4ZM47.6 48.7333V19.72L49.8667 21.8053V61.2H47.6V48.7333ZM52.1333 45.3333H61.2V47.6H52.1333V45.3333ZM61.2 43.0667H52.1333V23.8895L61.2 32.2308V43.0667ZM52.1333 49.8667H61.2V61.2H52.1333V49.8667ZM31.7548 2.56474C31.9632 2.37256 32.2364 2.26618 32.5198 2.26671H32.8666V5.1692L6.8 29.1505V25.4263L31.7548 2.56474ZM2.26671 29.58L4.53342 27.5025V65.7333H2.26671V29.58ZM6.8 63.4667H61.2V65.7334H6.8V63.4667ZM65.7333 65.7333H63.4666V27.5037L65.7333 29.58V65.7333Z"/>
</svg>
