<svg width="69" height="69" viewBox="0 0 69 69" xmlns="http://www.w3.org/2000/svg">
<path d="M68.0556 33.8087C69.2728 32.6267 69.2735 30.7135 68.0556 29.5315L40.5429 2.81158C37.4663 -0.176311 32.4691 -0.177373 29.392 2.81197L1.87923 29.5315C0.665255 30.7105 0.665255 32.6293 1.87923 33.8087C2.70756 34.6132 3.88735 34.8552 4.94146 34.5615C4.93025 34.6871 4.92163 34.8136 4.92163 34.942C4.92163 36.4724 5.73779 37.8191 6.96777 38.5997C5.73779 39.3801 4.92163 40.7269 4.92163 42.2573C4.92163 43.7876 5.73779 45.1343 6.96791 45.9147C5.73779 46.6951 4.92163 48.0419 4.92163 49.5721C4.92163 51.1024 5.73779 52.4492 6.96791 53.2295C5.73779 54.0099 4.92163 55.3566 4.92163 56.8869C4.92163 58.4174 5.73779 59.7643 6.96791 60.5447C5.73779 61.3251 4.92163 62.6718 4.92163 64.2021C4.92163 65.3392 5.37512 66.3729 6.11086 67.1509H2.84254C2.4398 67.1509 2.11322 67.4681 2.11322 67.8592C2.11322 68.2504 2.4398 68.5675 2.84254 68.5675H9.36332C9.38219 68.5678 9.40052 68.5703 9.41953 68.5703C9.4384 68.5703 9.45672 68.5678 9.47559 68.5675H60.4648C60.4836 68.5678 60.502 68.5703 60.521 68.5703C60.5398 68.5703 60.5582 68.5678 60.577 68.5675H67.0922C67.4954 68.5675 67.8215 68.2504 67.8215 67.8592C67.8215 67.4681 67.4954 67.1509 67.0922 67.1509H63.8239C64.5584 66.3729 65.0111 65.3392 65.0111 64.2021C65.0111 62.6718 64.1963 61.325 62.9683 60.5447C64.1964 59.7643 65.0111 58.4174 65.0111 56.8869C65.0111 55.3566 64.1963 54.0098 62.9683 53.2295C64.1963 52.4491 65.0111 51.1024 65.0111 49.5721C65.0111 48.0419 64.1963 46.695 62.9683 45.9147C64.1963 45.1343 65.0111 43.7876 65.0111 42.2573C65.0111 40.7269 64.1964 39.3802 62.9686 38.5997C64.1964 37.8193 65.0111 36.4725 65.0111 34.942C65.0111 34.814 65.0024 34.6879 64.9912 34.5626C66.0447 34.8579 67.2243 34.6161 68.0556 33.8087ZM2.91051 32.8071C2.26516 32.18 2.26516 31.1598 2.91051 30.533L30.4233 3.81351C32.9307 1.37839 37.005 1.37893 39.5116 3.81312L67.0244 30.533C67.6704 31.1604 67.6727 32.1767 67.0244 32.8071C66.399 33.4144 65.3085 33.4144 64.6833 32.8071C37.5273 6.43298 45.0345 13.7236 37.1705 6.08727C35.9575 4.90988 33.9841 4.90431 32.7649 6.08767C29.2149 9.53522 30.7805 8.01026 5.25217 32.8072C4.60641 33.4334 3.55695 33.4342 2.91051 32.8071ZM24.3742 45.2064H12.7219C13.4565 44.4284 13.9093 43.3946 13.9093 42.2573C13.9093 41.1202 13.4568 40.0866 12.7224 39.3085H24.374L24.3742 45.2064ZM24.3742 46.623V52.5212H12.7219C13.4565 51.7432 13.9093 50.7094 13.9093 49.5721C13.9093 48.4348 13.4565 47.401 12.7219 46.623H24.3742ZM24.3742 53.9379V59.8362H12.7223C13.4568 59.0581 13.9095 58.0243 13.9095 56.887C13.9095 55.7498 13.4567 54.716 12.722 53.9379H24.3742ZM24.3742 61.2529V67.1511H12.7223C13.4568 66.3731 13.9095 65.3394 13.9095 64.2022C13.9095 63.0648 13.4565 62.0309 12.7216 61.2527L24.3742 61.2529ZM45.5607 61.2529H57.2129C56.4767 62.031 56.0229 63.065 56.0229 64.2024C56.0229 65.3395 56.4764 66.3732 57.2122 67.1512H45.5607V61.2529ZM45.5607 59.8362V53.9379H57.2126C56.4766 54.716 56.0229 55.7498 56.0229 56.887C56.0229 58.0243 56.4764 59.0581 57.2122 59.8362H45.5607ZM45.5607 52.5214V46.6232H57.2126C56.4766 47.4012 56.0229 48.435 56.0229 49.5723C56.0229 50.7095 56.4766 51.7433 57.2126 52.5214H45.5607ZM45.5607 45.2064V39.3085H57.2119C56.4763 40.0865 56.0229 41.1202 56.0229 42.2573C56.0229 43.3946 56.4766 44.4284 57.2126 45.2064H45.5607ZM12.7216 37.8919C13.4565 37.1138 13.9095 36.0797 13.9095 34.9421C13.9095 33.8055 13.4572 32.7723 12.7233 31.9944H57.2113C56.4761 32.7723 56.0231 33.8055 56.0231 34.9421C56.0231 36.0798 56.4768 37.1138 57.213 37.8919C55.648 37.8873 14.1314 37.8918 12.7216 37.8919ZM39.1957 10.0577L45.2662 15.9531H24.6693L30.7398 10.0577H39.1957ZM32.1986 8.64099L33.7962 7.08947C34.4209 6.48278 35.5159 6.48451 36.1391 7.08907L37.7371 8.64099H32.1986ZM46.7249 17.3698L52.7958 23.2657H17.1396L23.2106 17.3698H46.7249ZM54.2544 24.6822L59.7914 30.0596V30.577H10.1435V30.06L15.681 24.6822H54.2544ZM6.38027 34.942C6.38027 33.3144 7.74345 31.9905 9.41939 31.9905C11.0911 31.9905 12.4507 33.3144 12.4507 34.942C12.4507 36.5579 11.1097 37.8716 9.45453 37.8905C9.44264 37.8903 9.43129 37.8887 9.41939 37.8887C9.40749 37.8887 9.396 37.8903 9.38424 37.8905C7.72485 37.8716 6.38027 36.5579 6.38027 34.942ZM6.38027 42.2573C6.38027 40.6414 7.72485 39.3278 9.38424 39.3089C9.39614 39.309 9.40749 39.3106 9.41939 39.3106C9.43129 39.3106 9.44264 39.309 9.45453 39.3089C11.1097 39.3278 12.4507 40.6414 12.4507 42.2573C12.4507 43.8741 11.1085 45.188 9.45221 45.2056C9.44113 45.2055 9.43047 45.204 9.41939 45.204C9.40831 45.204 9.39764 45.2055 9.38657 45.2056C7.72608 45.188 6.38027 43.8739 6.38027 42.2573ZM6.38027 49.5721C6.38027 47.9554 7.72608 46.6415 9.38657 46.6238C9.39764 46.624 9.40831 46.6254 9.41939 46.6254C9.43047 46.6254 9.44113 46.624 9.45221 46.6238C11.1085 46.6415 12.4507 47.9554 12.4507 49.5721C12.4507 51.1889 11.1085 52.5028 9.45221 52.5204C9.44113 52.5203 9.43047 52.5188 9.41939 52.5188C9.40831 52.5188 9.39764 52.5203 9.38657 52.5204C7.72608 52.5029 6.38027 51.1889 6.38027 49.5721ZM6.38027 56.887C6.38027 55.2703 7.72608 53.9564 9.38657 53.9387C9.39764 53.9389 9.40831 53.9403 9.41939 53.9403C9.43047 53.9403 9.44113 53.9389 9.45221 53.9387C11.1085 53.9564 12.4507 55.2703 12.4507 56.887C12.4507 58.5038 11.1085 59.8181 9.45221 59.8358C9.44113 59.8356 9.43047 59.8342 9.41939 59.8342C9.40831 59.8342 9.39764 59.8356 9.38657 59.8358C7.72622 59.8181 6.38027 58.5038 6.38027 56.887ZM6.38027 64.2022C6.38027 62.5855 7.72608 61.2716 9.38657 61.2539C9.39764 61.2541 9.40831 61.2555 9.41939 61.2555C9.43047 61.2555 9.44113 61.2541 9.45221 61.2539C11.1085 61.2716 12.4507 62.5855 12.4507 64.2022C12.4507 65.8204 11.106 67.1359 9.44756 67.1511H9.39122C7.72868 67.1359 6.38027 65.8204 6.38027 64.2022ZM25.8329 67.1511V39.3054H44.1021V67.1511H25.8329ZM63.5522 64.2022C63.5522 65.8204 62.2074 67.1359 60.549 67.1511H60.4927C58.83 67.1359 57.4817 65.8206 57.4817 64.2022C57.4817 62.5855 58.8275 61.2716 60.488 61.2539C60.4991 61.2541 60.5098 61.2555 60.5208 61.2555C60.5319 61.2555 60.5426 61.2541 60.5536 61.2539C62.2099 61.2716 63.5522 62.5856 63.5522 64.2022ZM63.5522 56.887C63.5522 58.5038 62.2099 59.8181 60.5536 59.8358C60.5426 59.8356 60.5319 59.8342 60.5208 59.8342C60.5098 59.8342 60.4991 59.8356 60.488 59.8358C58.8275 59.8181 57.4817 58.5038 57.4817 56.887C57.4817 55.2703 58.8275 53.9564 60.488 53.9387C60.4991 53.9389 60.5098 53.9403 60.5208 53.9403C60.5319 53.9403 60.5426 53.9389 60.5536 53.9387C62.2099 53.9564 63.5522 55.2703 63.5522 56.887ZM63.5522 49.5721C63.5522 51.1889 62.2099 52.5028 60.5536 52.5204C60.5426 52.5203 60.5319 52.5188 60.5208 52.5188C60.5098 52.5188 60.4991 52.5203 60.488 52.5204C58.8275 52.5028 57.4817 51.1889 57.4817 49.5721C57.4817 47.9554 58.8275 46.6415 60.488 46.6238C60.4991 46.624 60.5098 46.6254 60.5208 46.6254C60.5319 46.6254 60.5426 46.624 60.5536 46.6238C62.2099 46.6415 63.5522 47.9555 63.5522 49.5721ZM63.5522 42.2573C63.5522 43.8741 62.2099 45.188 60.5536 45.2056C60.5426 45.2055 60.5319 45.204 60.5208 45.204C60.5098 45.204 60.4991 45.2055 60.488 45.2056C58.8275 45.188 57.4817 43.8741 57.4817 42.2573C57.4817 40.6414 58.8263 39.3278 60.4857 39.3089C60.4976 39.309 60.5089 39.3106 60.5208 39.3106C60.5327 39.3106 60.5441 39.309 60.556 39.3089C62.2111 39.3278 63.5522 40.6414 63.5522 42.2573ZM60.556 37.8905C60.5441 37.8903 60.5327 37.8887 60.5208 37.8887C60.5089 37.8887 60.4974 37.8903 60.4857 37.8905C58.8263 37.8716 57.4817 36.5579 57.4817 34.942C57.4817 33.3144 58.8449 31.9905 60.5208 31.9905C62.1925 31.9905 63.5522 33.3144 63.5522 34.942C63.5522 36.5579 62.2111 37.8716 60.556 37.8905Z"/>
<path d="M29.5344 51.0923C28.3253 51.0923 27.3418 52.0476 27.3418 53.2217C27.3418 54.4038 28.3255 55.3653 29.5344 55.3653C30.7512 55.3653 31.7414 54.4038 31.7414 53.2217C31.7414 52.0475 30.7512 51.0923 29.5344 51.0923ZM29.5344 53.9487C29.1228 53.9487 28.8004 53.6294 28.8004 53.2217C28.8004 52.8288 29.1299 52.5089 29.5344 52.5089C29.9471 52.5089 30.2826 52.8288 30.2826 53.2217C30.2826 53.6225 29.9471 53.9487 29.5344 53.9487Z"/>
</svg>
