<svg width="68" height="69" viewBox="0 0 68 69" xmlns="http://www.w3.org/2000/svg">
<path d="M25.8225 48.6084H23.6289V54.0923H25.8225V48.6084Z"/>
<path d="M40.3044 3.2967C37.1015 -0.399965 30.8829 -0.404603 27.68 3.2967L1.53787 32.1959C-1.95249 35.8539 0.910281 42.2392 5.99588 42.2392C8.5665 42.2392 9.26056 41.3085 9.26056 41.3085V63.8842C9.26056 66.4414 11.3412 68.5225 13.8979 68.5225H54.088C56.6447 68.5225 58.7253 66.4414 58.7253 63.8842V41.3069C58.7253 41.3069 59.7487 42.2392 61.99 42.2392C65.3042 42.2392 68 39.5429 68 36.2281C68 34.7346 67.4497 33.3014 66.4465 32.1959L40.3044 3.2967ZM27.4327 22.0645C27.5563 22.0954 27.6754 22.1402 27.8099 22.1402H40.1761C40.3105 22.1402 40.4296 22.0954 40.5548 22.0645L46.4658 28.3245H21.5201L27.4327 22.0645ZM30.28 19.0481L33.993 15.1164L37.7059 19.0481H30.28ZM18.6001 31.4167H49.3858L55.2257 37.601H12.7602L18.6001 31.4167ZM12.3521 56.1539V49.9696H16.9894V56.1539H12.3521ZM20.081 46.8774H29.3556V56.1539H20.081V46.8774ZM32.4472 49.9696H35.5387V56.1539H32.4472V49.9696ZM37.0845 43.7853C36.2297 43.7853 35.5387 44.4779 35.5387 45.3314V46.8774H32.4472V45.3314C32.4472 44.4779 31.7547 43.7853 30.9014 43.7853H18.5352C17.6819 43.7853 16.9894 44.4779 16.9894 45.3314V46.8774H12.3521V40.6931H55.6338V46.8774H50.9965V45.3314C50.9965 44.4779 50.3055 43.7853 49.4507 43.7853H37.0845ZM50.9965 49.9696H55.6338V56.1539H50.9965V49.9696ZM12.3521 63.8842V59.246H35.5387V65.4303H13.8979C13.0462 65.4303 12.3521 64.7361 12.3521 63.8842ZM38.6303 65.4303V46.8774H47.9049V65.4303H38.6303ZM54.088 65.4303H50.9965V59.246H55.6338V63.8842C55.6338 64.7361 54.9413 65.4303 54.088 65.4303ZM61.99 39.1471H60.9358L35.1167 11.8016C34.5324 11.1832 33.4535 11.1832 32.8692 11.8016L7.04855 39.1471H5.99588C3.53655 39.2182 2.12835 36.0472 3.8318 34.2707L29.9739 5.37153C30.9988 4.23671 32.4642 3.58736 33.993 3.58736C35.5217 3.58736 36.9871 4.23671 38.0135 5.37153L64.1557 34.2707C65.8452 36.0425 64.4617 39.2228 61.99 39.1471Z"/>
<path fill-rule="evenodd" clip-rule="evenodd" d="M27.9825 3.55844C31.0256 0.04175 36.9585 0.0457916 40.002 3.55863L66.1503 32.4647C67.0863 33.4961 67.6 34.8334 67.6 36.2281C67.6 39.322 65.0832 41.8392 61.99 41.8392C60.9266 41.8392 60.1646 41.6184 59.6767 41.4062C59.4321 41.2999 59.255 41.1951 59.1423 41.1199C59.086 41.0823 59.0457 41.0521 59.0212 41.0328C59.0139 41.027 59.008 41.0222 59.0035 41.0185C59.0005 41.016 58.9981 41.014 58.9963 41.0125L58.9944 41.011L58.9937 41.0103L58.9926 41.0093L58.3253 40.4014V63.8842C58.3253 66.2206 56.4237 68.1225 54.088 68.1225H13.8979C11.5622 68.1225 9.66056 66.2206 9.66056 63.8842V40.1029L8.94417 41.0636C8.94248 41.0656 8.93936 41.0691 8.9347 41.074C8.92164 41.0879 8.89638 41.113 8.85663 41.146C8.77737 41.2117 8.63888 41.3099 8.42199 41.4119C7.98894 41.6155 7.23258 41.8392 5.99588 41.8392C3.63498 41.8392 1.77743 40.3591 0.916254 38.4265C0.0554231 36.4947 0.212873 34.1642 1.82736 32.4721L27.9767 3.5651L27.9825 3.55844ZM59.1254 41.5785C58.8557 41.4257 58.7253 41.3069 58.7253 41.3069V63.8842C58.7253 66.4414 56.6447 68.5225 54.088 68.5225H13.8979C11.3412 68.5225 9.26056 66.4414 9.26056 63.8842V41.3085C9.26056 41.3085 9.1517 41.4544 8.86056 41.6308C8.41652 41.8997 7.54848 42.2392 5.99588 42.2392C0.910281 42.2392 -1.95249 35.8539 1.53787 32.1959L27.68 3.2967C30.8829 -0.404603 37.1015 -0.399965 40.3044 3.2967L66.4465 32.1959C67.4497 33.3014 68 34.7346 68 36.2281C68 39.5429 65.3042 42.2392 61.99 42.2392C60.5487 42.2392 59.6111 41.8537 59.1254 41.5785ZM27.5297 21.6764L27.3026 21.6196L20.5921 28.7245H47.3937L40.6854 21.6202L40.4589 21.6762C40.3942 21.6921 40.3486 21.7048 40.3137 21.7145C40.2494 21.7324 40.2212 21.7402 40.1761 21.7402H27.8099C27.7647 21.7402 27.7359 21.7322 27.6705 21.714C27.6362 21.7044 27.5919 21.692 27.5297 21.6764ZM33.993 14.5338L29.3521 19.4481H38.6338L33.993 14.5338ZM56.1536 38.001L49.5582 31.0167H18.4277L11.8323 38.001H56.1536ZM11.9521 49.5696V56.5539H17.3894V49.5696H11.9521ZM29.7556 46.4774H19.681V56.5539H29.7556V46.4774ZM35.9387 49.5696H32.0472V56.5539H35.9387V49.5696ZM32.0472 47.2774H35.9387V45.3314C35.9387 44.6985 36.4509 44.1853 37.0845 44.1853H49.4507C50.0843 44.1853 50.5965 44.6985 50.5965 45.3314V47.2774H56.0338V40.2931H11.9521V47.2774H17.3894V45.3314C17.3894 44.6988 17.9029 44.1853 18.5352 44.1853H30.9014C31.5337 44.1853 32.0472 44.6988 32.0472 45.3314V47.2774ZM56.0338 49.5696H50.5965V56.5539H56.0338V49.5696ZM35.9387 58.846H11.9521V63.8842C11.9521 64.957 12.8252 65.8303 13.8979 65.8303H35.9387V58.846ZM48.3049 46.4774H38.2303V65.8303H48.3049V46.4774ZM50.5965 58.846V65.8303H54.088C55.1625 65.8303 56.0338 64.9567 56.0338 63.8842V58.846H50.5965ZM34.826 12.0764L60.7634 39.5471H61.9842C63.4093 39.5879 64.5035 38.6886 64.9994 37.563C65.4949 36.4381 65.4217 35.0223 64.4489 33.9986L38.3102 5.10321C37.2078 3.88444 35.6346 3.18736 33.993 3.18736C32.3514 3.18736 30.778 3.88456 29.6771 5.10344L3.53893 33.9982C2.55844 35.0245 2.48828 36.4401 2.9872 37.564C3.48611 38.6879 4.58305 39.5855 6.00145 39.5471H7.221L33.16 12.0763C33.5865 11.625 34.3995 11.625 34.826 12.0764ZM29.985 5.35932L29.6771 5.10344L29.9465 5.40191L3.8318 34.2707C2.12835 36.0472 3.53655 39.2182 5.99588 39.1471H7.04855L32.8692 11.8016C33.4535 11.1832 34.5324 11.1832 35.1167 11.8016L48.8445 26.341L60.7634 39.5471L61.0291 39.1471H61.99C64.4291 39.2218 65.8084 36.126 64.221 34.3417L64.4489 33.9986L62.2765 32.1934L38.0135 5.37153C36.9871 4.23671 35.5217 3.58736 33.993 3.58736C32.4697 3.58736 31.0093 4.23205 29.985 5.35932ZM21.5201 28.3245L27.4327 22.0645C27.4619 22.0718 27.4909 22.0799 27.5198 22.088C27.6135 22.1141 27.7071 22.1402 27.8099 22.1402H40.1761C40.2781 22.1402 40.3712 22.1144 40.4649 22.0885C40.4947 22.0802 40.5245 22.072 40.5548 22.0645L46.4658 28.3245H21.5201ZM37.7059 19.0481H30.28L33.993 15.1164L37.7059 19.0481ZM49.3858 31.4167L55.2257 37.601H12.7602L18.6001 31.4167H49.3858ZM16.9894 56.1539H12.3521V49.9696H16.9894V56.1539ZM20.081 56.1539V46.8774H29.3556V56.1539H20.081ZM32.4472 56.1539V49.9696H35.5387V56.1539H32.4472ZM37.0845 43.7853C36.2297 43.7853 35.5387 44.4779 35.5387 45.3314V46.8774H32.4472V45.3314C32.4472 44.4779 31.7547 43.7853 30.9014 43.7853H18.5352C17.6819 43.7853 16.9894 44.4779 16.9894 45.3314V46.8774H12.3521V40.6931H55.6338V46.8774H50.9965V45.3314C50.9965 44.4779 50.3055 43.7853 49.4507 43.7853H37.0845ZM50.9965 56.1539V49.9696H55.6338V56.1539H50.9965ZM13.8979 65.4303C13.0462 65.4303 12.3521 64.7361 12.3521 63.8842V59.246H35.5387V65.4303H13.8979ZM47.9049 65.4303H38.6303V46.8774H47.9049V65.4303ZM55.6338 63.8842C55.6338 64.7361 54.9413 65.4303 54.088 65.4303H50.9965V59.246H55.6338V63.8842Z"/>
</svg>
