<svg width="16" height="16" viewBox="0 0 16 16" xmlns="http://www.w3.org/2000/svg">
<path d="M2.58271 13.1162C2.62436 12.695 2.85005 12.3188 3.20205 12.0839L5.58836 10.4932C6.14546 10.122 6.89024 10.197 7.36311 10.669L8.12574 11.438C8.29924 11.4985 9.10168 11.1583 10.1349 10.1247C11.1685 9.09063 11.504 8.29503 11.4601 8.13666L10.6778 7.35434C10.2054 6.88194 10.1312 6.13531 10.502 5.57959L12.0927 3.19328C12.3276 2.84125 12.7038 2.61559 13.125 2.57394C13.547 2.53181 13.9581 2.68013 14.257 2.97906L15.4371 4.15919C17.0544 5.77647 14.9482 9.33053 12.144 12.1353C10.2376 14.0417 6.06561 17.3283 4.16793 15.4284L2.9878 14.2483C2.6889 13.9498 2.54105 13.5369 2.58271 13.1162Z"/>
<path d="M7.03125 0C7.29034 0 7.5 0.209656 7.5 0.46875C7.5 0.727844 7.29034 0.9375 7.03125 0.9375C3.67125 0.9375 0.9375 3.67125 0.9375 7.03125C0.9375 7.29034 0.727844 7.5 0.46875 7.5C0.209656 7.5 0 7.29034 0 7.03125C0 3.154 3.154 0 7.03125 0ZM7.03125 1.875C7.29034 1.875 7.5 2.08466 7.5 2.34375C7.5 2.60284 7.29034 2.8125 7.03125 2.8125C4.70491 2.8125 2.8125 4.70491 2.8125 7.03125C2.8125 7.29034 2.60284 7.5 2.34375 7.5C2.08466 7.5 1.875 7.29034 1.875 7.03125C1.875 4.18809 4.18809 1.875 7.03125 1.875ZM7.03125 3.75C7.29034 3.75 7.5 3.95966 7.5 4.21875C7.5 4.47784 7.29034 4.6875 7.03125 4.6875C5.73897 4.6875 4.6875 5.73897 4.6875 7.03125C4.6875 7.29034 4.47784 7.5 4.21875 7.5C3.95966 7.5 3.75 7.29034 3.75 7.03125C3.75 5.22216 5.22216 3.75 7.03125 3.75ZM7.03125 5.625C7.29034 5.625 7.5 5.83466 7.5 6.09375C7.5 6.35284 7.29034 6.5625 7.03125 6.5625C6.77262 6.5625 6.5625 6.77262 6.5625 7.03125C6.5625 7.29034 6.35284 7.5 6.09375 7.5C5.83466 7.5 5.625 7.29034 5.625 7.03125C5.625 6.25581 6.25581 5.625 7.03125 5.625Z"/>
</svg>