<svg width="20" height="20" viewBox="0 0 20 20" fill="none" xmlns="http://www.w3.org/2000/svg">
<path fill-rule="evenodd" clip-rule="evenodd" d="M20 18.1331L18.1331 20L13.0118 14.88C11.662 15.8532 10.0042 16.4267 8.21336 16.4267C3.67725 16.4267 0 12.7495 0 8.21336C0 3.67725 3.67725 0 8.21336 0C12.7495 0 16.4267 3.67725 16.4267 8.21336C16.4267 10.0042 15.8532 11.662 14.88 13.0118L20 18.1331ZM8.21336 2.64031C5.13545 2.64031 2.64031 5.13545 2.64031 8.21336C2.64031 11.2913 5.13545 13.7864 8.21336 13.7864C11.2913 13.7864 13.7864 11.2913 13.7864 8.21336C13.7864 5.13545 11.2913 2.64031 8.21336 2.64031Z" fill="black"/>
</svg>
