<svg width="98" height="98" viewBox="0 0 98 98" fill="none" xmlns="http://www.w3.org/2000/svg">
<path d="M95.4732 25.115L50.7738 0.460615C50.2314 0.158548 49.6208 0 49 0C48.3792 0 47.7686 0.158548 47.2262 0.460615L2.5235 25.1182C1.75891 25.5422 1.1217 26.1631 0.677971 26.9164C0.234243 27.6697 0.000158097 28.528 0 29.4023L0 39.202C0.00172144 39.7728 0.153539 40.3332 0.44022 40.8268C0.726902 41.3205 1.13837 41.7301 1.63333 42.0145V94.7334C1.63333 95.5998 1.9775 96.4307 2.59012 97.0432C3.20274 97.6558 4.03363 98 4.9 98H93.1C93.9664 98 94.7973 97.6558 95.4099 97.0432C96.0225 96.4307 96.3667 95.5998 96.3667 94.7334V42.0145C96.8616 41.7301 97.2731 41.3205 97.5598 40.8268C97.8465 40.3332 97.9983 39.7728 98 39.202V29.4023C98.0001 28.5272 97.7658 27.6679 97.3214 26.914C96.8771 26.16 96.2389 25.5388 95.4732 25.115V25.115ZM94.7333 39.202H3.26667V35.9354H94.7333V39.202ZM80.9219 42.4685L53.9 79.3186V42.4685H80.9219ZM53.9 91.4669H86.5667V94.7334H53.9V91.4669ZM59.5415 88.2003L86.5667 51.3503V88.2003H59.5415ZM86.5667 45.8249L55.4892 88.2003H53.9V84.8439L84.9774 42.4685H86.5667V45.8249ZM11.4333 51.3503L38.4585 88.2003H11.4333V51.3503ZM11.4333 91.4669H44.1V94.7334H11.4333V91.4669ZM42.5108 88.2003L11.4333 45.8249V42.4685H13.0226L44.1 84.8439V88.2003H42.5108ZM17.0749 42.4685H44.1V79.3186L17.0749 42.4685ZM49 11.6747L63.2737 19.6026H34.7263L49 11.6747ZM86.797 32.6689H76.7667V27.0978L86.797 32.6689ZM73.5 32.6689H70.2333V23.4686L73.5 25.2832V32.6689ZM66.9667 26.1357H31.0333V22.8692H66.9667V26.1357ZM31.0333 29.4023H66.9667V32.6689H31.0333V29.4023ZM27.7667 32.6689H24.5V25.2832L27.7667 23.4686V32.6689ZM21.2333 32.6689H11.203L21.2333 27.0978V32.6689ZM93.8905 27.9732C94.1459 28.1144 94.3587 28.3214 94.5069 28.5728C94.6551 28.8241 94.7333 29.1105 94.7333 29.4023V32.6689H93.523L50.6333 8.84587V4.10936L93.8905 27.9732ZM3.26667 29.4023C3.26695 29.1114 3.34491 28.8259 3.49251 28.5752C3.6401 28.3245 3.85196 28.1178 4.1062 27.9765L47.3667 4.11263V8.84913L4.47697 32.6689H3.26667V29.4023ZM8.16667 94.7334H4.9V42.4685H8.16667V94.7334ZM50.6333 94.7334H47.3667V42.4685H50.6333V94.7334ZM89.8333 94.7334V42.4685H93.1V94.7334H89.8333Z" fill="#C8996B"/>
</svg>
