<svg width="98" height="98" viewBox="0 0 98 98" fill="none" xmlns="http://www.w3.org/2000/svg">
<path d="M94.5887 0.00341797H3.41129C1.52735 0.00341797 0 1.53031 0 3.41471V94.5885C0 96.4724 1.52735 97.9998 3.41129 97.9998H59.0208C60.9052 97.9998 62.4321 96.4724 62.4321 94.5885C62.4321 92.7041 60.9052 91.1772 59.0208 91.1772H6.82258V54.7787H30.4433V71.5705C30.4433 73.4549 31.9702 74.9818 33.8546 74.9818C35.739 74.9818 37.2658 73.4549 37.2658 71.5705V31.6074C37.2658 29.723 35.739 28.1961 33.8546 28.1961C31.9702 28.1961 30.4433 29.723 30.4433 31.6074V47.9557H6.82258V6.826H55.6095V29.2204C55.6095 31.1044 57.1364 32.6317 59.0208 32.6317H79.2088C81.0932 32.6317 82.6201 31.1044 82.6201 29.2204C82.6201 27.336 81.0932 25.8091 79.2088 25.8091H62.4321V6.826H91.1774V63.0795H59.0208C57.1364 63.0795 55.6095 64.6064 55.6095 66.4908C55.6095 68.3752 57.1364 69.9021 59.0208 69.9021H91.1774V91.1772H79.2088C77.3244 91.1772 75.7975 92.7041 75.7975 94.5885C75.7975 96.4724 77.3244 97.9998 79.2088 97.9998H94.5887C96.4731 97.9998 98 96.4724 98 94.5885V3.41471C98 1.53031 96.4731 0.00341797 94.5887 0.00341797Z" fill="#C8996B"/>
</svg>
