<svg width="12" height="12" viewBox="0 0 12 12" fill="none" xmlns="http://www.w3.org/2000/svg">
<path d="M11.2333 8.03334C11.1667 8 11.0667 8 11 8C9.86667 7.86667 8.8 7.46667 7.86667 6.9L6.4 8.4C5.33333 7.66667 4.4 6.7 3.66667 5.7L5.13333 4.2C4.56667 3.26667 4.2 2.2 4.03333 1.03334C4.03333 1.03334 4.03333 1.03333 4.03333 1C4.03333 0.933333 4.03333 0.833339 4 0.766673C3.9 0.333339 3.5 0 3.03333 0H1.96667H1C0.466667 0 0 0.433331 0 0.966665C0 0.966665 0 0.966667 0 1C0 1.06667 -3.23159e-08 1.1 0.0333333 1.16667C0.233333 3.36667 1.03333 5.36667 2.23333 7.03334C3 8.06667 3.9 9.00001 4.96667 9.76667C6.63333 10.9667 8.66667 11.7667 10.8333 11.9667C10.9 11.9667 10.9333 12 11 12C11 12 11 12 11.0333 12C11.5667 12 12 11.5333 12 11V10.0333V8.96666C12 8.53333 11.6667 8.13334 11.2333 8.03334Z" fill="#333333"/>
</svg>
