<svg width="16" height="16" viewBox="0 0 16 16" xmlns="http://www.w3.org/2000/svg">
<path d="M8.00112 11.983C8.15967 11.8277 8.31868 11.6719 8.47818 11.5154L8.53168 11.5529C8.5673 11.5777 8.60131 11.6015 8.63446 11.6262C8.97692 11.8813 9.31924 12.1365 9.66156 12.3918C10.3627 12.9147 11.0643 13.4379 11.7666 13.9591C12.3688 14.4061 12.897 14.2056 13.0619 13.4724C13.0623 13.4705 13.0627 13.4685 13.063 13.4665L13.0635 13.4628C13.0639 13.4598 13.0643 13.4568 13.065 13.4538L13.566 11.0729L13.5664 11.071C14.0738 8.66048 14.5811 6.24996 15.087 3.83911C15.1065 3.74607 15.1271 3.65304 15.1477 3.55995C15.2184 3.24111 15.2892 2.9213 15.317 2.59851C15.3715 1.96574 14.9194 1.65148 14.3376 1.87808C11.7727 2.87708 9.20751 3.8756 6.64238 4.87411L6.64084 4.87471L6.63766 4.87595L5.23252 5.42292C4.90143 5.5518 4.5702 5.68028 4.23896 5.80876C3.30799 6.16987 2.37671 6.5311 1.44923 6.90104C1.22193 6.99173 1.00006 7.12391 0.812909 7.28178C0.610366 7.45261 0.642019 7.68855 0.863816 7.83693C0.991253 7.92222 1.13997 7.98264 1.28685 8.02964C2.27884 8.34708 3.27212 8.66067 4.26738 8.96761C4.39579 9.00721 4.45744 9.0691 4.49839 9.19792C4.73399 9.93972 4.97236 10.6806 5.21073 11.4216C5.39746 12.002 5.58425 12.5826 5.76965 13.1634C5.82737 13.3443 5.93312 13.4286 6.1215 13.4388C6.3981 13.4538 6.61503 13.3482 6.80787 13.1569C7.203 12.7649 7.60059 12.3754 8.00112 11.983ZM6.18405 12.4566C6.17959 12.4753 6.17431 12.4974 6.16837 12.5249C6.15656 12.4956 6.14638 12.4714 6.13753 12.4503C6.12178 12.4128 6.11021 12.3852 6.10105 12.3569C6.00409 12.057 5.90741 11.757 5.81072 11.457C5.54321 10.6269 5.2757 9.79681 5.00237 8.96868C4.95442 8.8234 4.98855 8.76097 5.10812 8.68514C6.30026 7.92896 7.4916 7.17151 8.68294 6.41405C9.84011 5.67833 10.9973 4.9426 12.1552 4.20803C12.2742 4.13254 12.411 4.07809 12.5467 4.03992C12.5871 4.02857 12.6361 4.04855 12.6852 4.06853C12.7075 4.07763 12.7298 4.08672 12.7513 4.09286C12.7427 4.11345 12.7358 4.13591 12.7289 4.15837C12.714 4.20672 12.6992 4.25507 12.6673 4.28474C12.3242 4.60368 11.9774 4.91858 11.6306 5.23349C11.5274 5.32726 11.4241 5.42103 11.3209 5.51491C10.9983 5.80855 10.6756 6.10224 10.353 6.39594C9.09534 7.54087 7.83763 8.68582 6.57683 9.82726C6.45403 9.93843 6.40668 10.0567 6.39361 10.2168C6.34782 10.7792 6.29559 11.341 6.24336 11.9028C6.22859 12.0617 6.21382 12.2206 6.1992 12.3795C6.19711 12.4019 6.1918 12.4241 6.18405 12.4566Z"/>
</svg>
