<svg width="16" height="16" viewBox="0 0 16 16" xmlns="http://www.w3.org/2000/svg">
<path d="M9.50175 0.396484H6.49792C3.60673 0.396484 1.24121 2.79057 1.24121 5.71668V7.99677C1.24121 10.0488 2.42397 11.9299 4.24504 12.8039V15.35C4.24504 15.578 4.52665 15.6921 4.67684 15.521L6.85462 13.317H9.50175C12.3929 13.317 14.7585 10.9229 14.7585 7.99677V5.71668C14.7585 2.79057 12.3929 0.396484 9.50175 0.396484V0.396484ZM11.473 10.3719L10.7033 11.1319C9.896 11.9299 7.81209 11.0179 5.97225 9.11781C4.1324 7.21774 3.32512 5.08966 4.09485 4.29163L4.84581 3.5316C5.12742 3.24659 5.59677 3.26559 5.91592 3.5506L7.00481 4.69064C7.39907 5.08966 7.2301 5.77368 6.7232 5.92569C6.3665 6.03969 6.12244 6.43871 6.23508 6.79972C6.42282 7.63575 7.47416 8.69979 8.26267 8.9088C8.61937 8.9848 9.01362 8.79479 9.14504 8.43378C9.31401 7.92076 9.98987 7.76876 10.3653 8.16777L11.4542 9.30781C11.7546 9.57382 11.7546 10.0488 11.473 10.3719V10.3719ZM8.67569 4.00662C8.6006 4.00662 8.5255 4.00662 8.45041 4.02562C8.31899 4.04462 8.18757 3.93062 8.1688 3.79761C8.15002 3.66461 8.26267 3.5316 8.39408 3.5126C8.48795 3.4936 8.58182 3.4936 8.67569 3.4936C10.0462 3.4936 11.1726 4.63364 11.1726 6.02069C11.1726 6.1157 11.1726 6.2107 11.1539 6.3057C11.1351 6.43871 11.0037 6.55271 10.8722 6.53371C10.7408 6.51471 10.6282 6.38171 10.647 6.2487C10.647 6.1727 10.6657 6.0967 10.6657 6.02069C10.6845 4.91865 9.78336 4.00662 8.67569 4.00662ZM10.1776 6.03969C10.1776 6.1727 10.065 6.2867 9.93355 6.2867C9.80213 6.2867 9.68949 6.1727 9.68949 6.03969C9.68949 5.48867 9.23891 5.03266 8.69447 5.03266C8.56305 5.03266 8.45041 4.91865 8.45041 4.78565C8.45041 4.65264 8.56305 4.53864 8.69447 4.53864C9.50175 4.51964 10.1776 5.20366 10.1776 6.03969V6.03969ZM12.0926 6.85672C12.055 6.98973 11.9236 7.08473 11.7734 7.04673C11.642 7.00873 11.5669 6.87572 11.6044 6.74272C11.6608 6.51471 11.6795 6.2867 11.6795 6.03969C11.6795 4.36763 10.3278 2.99958 8.67569 2.99958C8.6006 2.99958 8.5255 2.99958 8.45041 2.99958C8.31899 2.99958 8.18757 2.90458 8.18757 2.77157C8.18757 2.63857 8.28144 2.50556 8.41286 2.50556C8.50673 2.50556 8.6006 2.48656 8.67569 2.48656C10.6094 2.48656 12.1864 4.08262 12.1864 6.03969C12.1864 6.3057 12.1489 6.59071 12.0926 6.85672V6.85672Z"/>
</svg>
