<svg width="16" height="16" viewBox="0 0 16 16" xmlns="http://www.w3.org/2000/svg">
<path d="M15.6235 3.69395C15.7421 3.30251 15.6235 3.01781 15.0982 3.01781H13.3528C12.9123 3.01781 12.7089 3.2669 12.5903 3.53384C12.5903 3.53384 11.6922 5.81141 10.4382 7.28824C10.0315 7.7153 9.84515 7.85765 9.6249 7.85765C9.50624 7.85765 9.35377 7.7153 9.35377 7.32386V3.67614C9.35377 3.21353 9.2182 3 8.84538 3H6.10028C5.82915 3 5.65972 3.21353 5.65972 3.42705C5.65972 3.87192 6.28667 3.97865 6.35445 5.2242V7.92882C6.35445 8.51604 6.2528 8.62277 6.0325 8.62277C5.43942 8.62277 3.99909 6.3274 3.13488 3.71176C2.9654 3.19572 2.79597 3 2.35541 3H0.593075C0.0847301 3 0 3.24914 0 3.51604C0 3.99646 0.593076 6.41638 2.76205 9.61923C4.20243 11.8078 6.2528 12.9822 8.09983 12.9822C9.2182 12.9822 9.35377 12.7153 9.35377 12.2705V10.6157C9.35377 10.0818 9.45542 9.99292 9.81129 9.99292C10.0655 9.99292 10.523 10.1352 11.5566 11.185C12.7428 12.4306 12.9461 13 13.607 13H15.3524C15.8607 13 16.098 12.7331 15.9624 12.2171C15.8099 11.7011 15.2337 10.9538 14.4881 10.064C14.0815 9.56587 13.4714 9.01427 13.285 8.74732C13.0309 8.39149 13.0986 8.24914 13.285 7.92882C13.2681 7.92882 15.4032 4.76159 15.6235 3.69395Z"/>
</svg>
