<svg width="16" height="16" viewBox="0 0 16 16" xmlns="http://www.w3.org/2000/svg">
<path fill-rule="evenodd" clip-rule="evenodd" d="M7.99768 0.396484C3.80604 0.396484 0.396484 3.80699 0.396484 7.99981C0.396484 9.66259 0.932765 11.2048 1.84435 12.4564L0.896886 15.2814L3.81946 14.3474C5.02152 15.143 6.45596 15.6034 8.00219 15.6034C12.1938 15.6034 15.6034 12.1926 15.6034 8.00005C15.6034 3.80722 12.1938 0.396722 8.00219 0.396722L7.99768 0.396484ZM5.39298 3.8833C5.61634 3.89233 5.72813 3.90576 5.87557 4.25884C5.92409 4.37595 5.99107 4.53848 6.06434 4.71626C6.26788 5.21012 6.51992 5.82166 6.5594 5.90404C6.61298 6.01583 6.66668 6.1679 6.59065 6.31534C6.52414 6.45676 6.46544 6.52461 6.36763 6.63766L6.34484 6.66403C6.29689 6.71973 6.24977 6.76963 6.20276 6.81942L6.17933 6.84425C6.12469 6.90228 6.07003 6.96143 6.01421 7.03066L6.00897 7.0368C5.90757 7.15567 5.79745 7.28477 5.92487 7.50445C6.05437 7.72352 6.50119 8.45203 7.15817 9.03749C7.93799 9.73122 8.58202 9.99164 8.87234 10.109C8.89813 10.1195 8.92113 10.1288 8.94118 10.1371C9.12438 10.2132 9.34345 10.1952 9.47746 10.0522C9.62261 9.89568 9.79698 9.65097 9.9785 9.39623L10.0718 9.26548C10.2237 9.05092 10.4158 9.02407 10.6169 9.09998C10.8224 9.1715 11.9084 9.7079 12.1318 9.8197C12.1774 9.84258 12.22 9.86302 12.2591 9.88186C12.4115 9.95516 12.5136 10.0043 12.5563 10.0789C12.61 10.1728 12.61 10.6153 12.4268 11.1339C12.2435 11.6522 11.5151 12.0816 10.9341 12.2067C10.5365 12.2915 10.018 12.3587 8.27077 11.6345C6.20165 10.7775 4.81464 8.76673 4.53204 8.35704L4.52008 8.33971C4.5039 8.31629 4.49239 8.29978 4.48568 8.29093L4.47459 8.27573C4.33273 8.08176 3.58301 7.05662 3.58301 5.99766C3.58301 4.93771 4.10649 4.40552 4.34097 4.16713L4.36058 4.14717C4.54389 3.95946 4.84768 3.87451 5.13827 3.87451C5.23224 3.87451 5.31695 3.87891 5.39298 3.8833Z"/>
</svg>
