<svg xmlns="http://www.w3.org/2000/svg" xmlns:xlink="http://www.w3.org/1999/xlink"><symbol fill="none" id="arrow-linear-sym" viewBox="0 0 16 16"><title>arrow-linear</title><path fill-rule="evenodd" clip-rule="evenodd" d="m8.843.929 6.364 6.364a1 1 0 0 1 0 1.414L8.843 15.07a1 1 0 0 1-1.414-1.414L12.086 9H.5V7h11.586L7.429 2.343A1 1 0 0 1 8.843.929Z" fill="#BDBDBD"/></symbol><use fill="none" xlink:href="#arrow-linear-sym" width="16" height="16"/><view id="arrow-linear" viewBox="0 0 16 16"/><symbol fill="none" id="arrow-triangle-sym" viewBox="0 0 12 12"><title>arrow-triangle</title><path d="m6 9 5.196-6H.804L6 9Z" fill="#BDBDBD"/></symbol><use fill="none" xlink:href="#arrow-triangle-sym" y="16" width="12" height="12"/><view id="arrow-triangle" viewBox="0 16 12 12"/><symbol fill="none" id="calc-sym" viewBox="0 0 24 24"><title>calc</title><path d="M21 21V3C21 1.76 19.99.75 18.75.75H5.25C4.01.75 3 1.76 3 3v18c0 1.24 1.01 2.25 2.25 2.25h13.5c1.24 0 2.25-1.01 2.25-2.25ZM4.5 21V3c0-.413.337-.75.75-.75h13.5a.75.75 0 0 1 .75.75v18a.75.75 0 0 1-.75.75H5.25A.751.751 0 0 1 4.5 21Z" fill="#5BAA00"/><path d="M16.5 3.75h-9c-.827 0-1.5.673-1.5 1.5v1.5c0 .827.673 1.5 1.5 1.5h9c.827 0 1.5-.673 1.5-1.5v-1.5c0-.827-.673-1.5-1.5-1.5Zm-9 3v-1.5h9v1.5h-9Zm2.25 4.5H9v-.75a.75.75 0 0 0-1.5 0v.75h-.75a.75.75 0 0 0 0 1.5h.75v.75a.75.75 0 0 0 1.5 0v-.75h.75a.75.75 0 0 0 0-1.5Zm7.5 0h-3a.75.75 0 1 0 0 1.5h3a.75.75 0 1 0 0-1.5Zm0 4.875h-3a.75.75 0 1 0 0 1.5h3a.75.75 0 1 0 0-1.5Zm0 2.25h-3a.75.75 0 1 0 0 1.5h3a.75.75 0 1 0 0-1.5ZM9.841 16.41a.75.75 0 0 0-1.06 0l-.53.53-.53-.53a.75.75 0 1 0-1.061 1.06l.53.53-.53.53a.75.75 0 1 0 1.06 1.06l.53-.53.53.53a.748.748 0 0 0 1.061 0 .75.75 0 0 0 0-1.06l-.53-.53.53-.53a.75.75 0 0 0 0-1.06Z" fill="#5BAA00"/></symbol><use fill="none" xlink:href="#calc-sym" y="28" width="24" height="24"/><view id="calc" viewBox="0 28 24 24"/><symbol fill="none" id="email-sym" viewBox="0 0 16 16"><title>email</title><path fill-rule="evenodd" clip-rule="evenodd" d="M13.581 14.2H2.418a2.037 2.037 0 0 1-1.503-.692A2.46 2.46 0 0 1 .3 11.87V4.13c.002-.61.221-1.2.615-1.637.395-.438.934-.69 1.503-.692H13.58a2.037 2.037 0 0 1 1.503.692 2.46 2.46 0 0 1 .616 1.636v7.743c-.002.61-.221 1.2-.616 1.637-.394.438-.935.69-1.503.692ZM6.74 8.864 1.746 5.57v6.3c0 .21.076.408.204.551a.63.63 0 0 0 .468.218h11.163a.63.63 0 0 0 .468-.218.825.825 0 0 0 .204-.55V5.548L9.261 8.864a2.3 2.3 0 0 1-1.26.38c-.446 0-.882-.132-1.262-.38Zm2.412-.167a2.1 2.1 0 0 1-1.15.348 2.1 2.1 0 0 1-1.152-.348L1.546 5.198v6.673c0 .256.092.503.256.684a.83.83 0 0 0 .616.284h11.163a.83.83 0 0 0 .617-.284c.163-.181.255-.428.255-.684V5.175L9.151 8.697ZM15.5 11.87a2.26 2.26 0 0 1-.564 1.503c-.36.399-.847.624-1.355.626H2.418a1.835 1.835 0 0 1-1.354-.626A2.26 2.26 0 0 1 .5 11.871V4.129c0-.085.005-.168.014-.251v-.004a2.29 2.29 0 0 1 .55-1.248c.36-.4.846-.624 1.354-.626h11.163c.508.002.995.227 1.355.626a2.209 2.209 0 0 1 .547 1.227v.006c.011.09.016.18.017.27v7.742ZM1.634 3.705a.973.973 0 0 1 .168-.26.83.83 0 0 1 .616-.284h11.163a.83.83 0 0 1 .617.284.968.968 0 0 1 .226.434l-5.83 3.834a1.093 1.093 0 0 1-.615.192c-.216 0-.429-.067-.614-.192l-5.794-3.81a1.04 1.04 0 0 1 .063-.198Zm.17.112a.78.78 0 0 1 .146-.239.63.63 0 0 1 .468-.217h11.163a.63.63 0 0 1 .468.217.775.775 0 0 1 .137.217L8.483 7.546l-.002.002a.894.894 0 0 1-.502.157.894.894 0 0 1-.502-.157L1.805 3.817Z" fill="#5BAA00"/><path fill-rule="evenodd" clip-rule="evenodd" d="M15.5 11.87a2.26 2.26 0 0 1-.564 1.504c-.36.399-.847.624-1.355.626H2.418a1.835 1.835 0 0 1-1.354-.626A2.26 2.26 0 0 1 .5 11.871V4.129c0-.085.005-.168.014-.251v-.004a2.29 2.29 0 0 1 .55-1.248c.36-.4.846-.624 1.354-.626h11.163c.508.002.995.227 1.355.626a2.209 2.209 0 0 1 .547 1.227v.006c.011.09.016.18.017.27v7.742ZM8 9.046a2.1 2.1 0 0 0 1.151-.348l5.302-3.522v6.696c0 .256-.092.503-.255.684a.83.83 0 0 1-.617.284H2.418a.83.83 0 0 1-.616-.284 1.024 1.024 0 0 1-.256-.684V5.198L6.85 8.697A2.1 2.1 0 0 0 8 9.045Zm-6.366-5.34a.973.973 0 0 1 .168-.26.83.83 0 0 1 .616-.284h11.163a.83.83 0 0 1 .617.284.968.968 0 0 1 .226.434l-5.83 3.834a1.093 1.093 0 0 1-.615.192c-.216 0-.429-.067-.614-.192l-5.794-3.81a1.04 1.04 0 0 1 .063-.198Z" fill="#5BAA00"/></symbol><use fill="none" xlink:href="#email-sym" y="52" width="16" height="16"/><view id="email" viewBox="0 52 16 16"/><symbol id="home-sym" viewBox="0 0 16 16"><title>home</title><path d="M8.687 1.262a1 1 0 0 0-1.374 0L2.469 5.84A1.5 1.5 0 0 0 2 6.93v5.57A1.5 1.5 0 0 0 3.5 14H5a1.5 1.5 0 0 0 1.5-1.5V10a.5.5 0 0 1 .5-.5h2a.5.5 0 0 1 .5.5v2.5A1.5 1.5 0 0 0 11 14h1.5a1.5 1.5 0 0 0 1.5-1.5V6.93a1.501 1.501 0 0 0-.47-1.09L8.687 1.26v.002Z"/></symbol><use xlink:href="#home-sym" y="68" width="16" height="16"/><view id="home" viewBox="0 68 16 16"/><symbol fill="none" id="location-sym" viewBox="0 0 16 16"><title>location</title><path d="M12.227 2.707C9.9.431 6.072.431 3.745 2.707a5.724 5.724 0 0 0 0 8.23L7.985 15l4.242-4.098a5.62 5.62 0 0 0 0-8.195ZM7.986 8.346c-1.05 0-1.877-.77-1.877-1.751 0-.98.826-1.751 1.877-1.751 1.05 0 1.876.77 1.876 1.75 0 .981-.825 1.752-1.876 1.752Z" fill="#5BAA00"/></symbol><use fill="none" xlink:href="#location-sym" y="84" width="16" height="16"/><view id="location" viewBox="0 84 16 16"/><symbol fill="none" id="search-sym" viewBox="0 0 20 20"><title>search</title><path fill-rule="evenodd" clip-rule="evenodd" d="M20 18.133 18.133 20l-5.121-5.12a8.213 8.213 0 1 1 1.868-1.868L20 18.133ZM8.213 2.64a5.573 5.573 0 1 0 0 11.146 5.573 5.573 0 0 0 0-11.146Z" fill="#000"/></symbol><use fill="none" xlink:href="#search-sym" y="100" width="20" height="20"/><view id="search" viewBox="0 100 20 20"/><symbol fill="none" id="tel-sym" viewBox="0 0 12 12"><title>tel</title><path d="M11.233 8.033C11.167 8 11.067 8 11 8a7.825 7.825 0 0 1-3.133-1.1L6.4 8.4c-1.067-.733-2-1.7-2.733-2.7l1.466-1.5c-.566-.933-.933-2-1.1-3.167V1c0-.067 0-.167-.033-.233A1 1 0 0 0 3.033 0H1C.467 0 0 .433 0 .967V1c0 .067 0 .1.033.167.2 2.2 1 4.2 2.2 5.866C3 8.067 3.9 9 4.967 9.767c1.666 1.2 3.7 2 5.866 2.2.067 0 .1.033.167.033h.033c.534 0 .967-.467.967-1V8.967c0-.434-.333-.834-.767-.934Z" fill="#333"/></symbol><use fill="none" xlink:href="#tel-sym" y="120" width="12" height="12"/><view id="tel" viewBox="0 120 12 12"/><symbol id="telegram-sym" viewBox="0 0 16 16"><title>telegram</title><path d="m8.001 11.983.477-.468.054.038c.035.025.07.048.102.073l1.028.766c.7.523 1.402 1.046 2.105 1.567.602.447 1.13.247 1.295-.487l.001-.005v-.004l.002-.01.501-2.38v-.002c.508-2.41 1.015-4.821 1.521-7.232l.06-.279c.071-.319.142-.639.17-.961.054-.633-.398-.948-.98-.72L6.643 4.873h-.001l-.003.002-1.405.547-.994.386c-.931.36-1.862.722-2.79 1.092a2.36 2.36 0 0 0-.636.38c-.203.172-.171.408.05.556.128.085.277.146.424.193.992.317 1.985.63 2.98.938.129.04.19.101.231.23.236.742.474 1.483.713 2.224l.559 1.741c.057.181.163.266.352.276.276.015.493-.09.686-.282.395-.392.793-.782 1.193-1.174Zm-1.817.474-.016.068-.03-.075a1.193 1.193 0 0 1-.037-.093l-.29-.9c-.268-.83-.535-1.66-.809-2.488-.048-.146-.013-.208.106-.284C6.3 7.93 7.492 7.172 8.683 6.414l3.472-2.206c.12-.075.256-.13.392-.168.04-.011.09.009.138.029a.664.664 0 0 0 .066.024.722.722 0 0 0-.022.065.286.286 0 0 1-.062.127c-.343.319-.69.634-1.036.948l-.31.282-.968.88a1848.47 1848.47 0 0 1-3.776 3.432.537.537 0 0 0-.183.39c-.046.562-.098 1.124-.15 1.686l-.045.476a.52.52 0 0 1-.015.078Z"/></symbol><use xlink:href="#telegram-sym" y="132" width="16" height="16"/><view id="telegram" viewBox="0 132 16 16"/><symbol id="viber-sym" viewBox="0 0 16 16"><title>viber</title><path d="M9.502.396H6.498c-2.891 0-5.257 2.395-5.257 5.32v2.28c0 2.053 1.183 3.934 3.004 4.808v2.546c0 .228.282.342.432.171l2.178-2.204h2.647c2.89 0 5.256-2.394 5.256-5.32v-2.28c0-2.926-2.365-5.32-5.256-5.32Zm1.971 9.976-.77.76c-.807.798-2.89-.114-4.73-2.014-1.84-1.9-2.648-4.028-1.878-4.826l.75-.76c.282-.285.752-.266 1.07.019l1.09 1.14c.394.399.225 1.083-.282 1.235-.356.114-.6.513-.488.874.188.836 1.24 1.9 2.028 2.109a.773.773 0 0 0 .882-.475.731.731 0 0 1 1.22-.266l1.09 1.14c.3.266.3.74.018 1.064ZM8.676 4.007c-.075 0-.15 0-.226.019-.131.019-.262-.095-.281-.228-.019-.133.094-.266.225-.285.094-.02.188-.02.282-.02 1.37 0 2.497 1.14 2.497 2.528 0 .095 0 .19-.02.285-.018.133-.15.247-.28.228-.132-.02-.245-.152-.226-.285 0-.076.019-.152.019-.228a1.991 1.991 0 0 0-1.99-2.014Zm1.502 2.033a.25.25 0 0 1-.244.247.25.25 0 0 1-.245-.247c0-.551-.45-1.007-.995-1.007a.25.25 0 0 1-.244-.247.25.25 0 0 1 .244-.247c.808-.02 1.484.665 1.484 1.5Zm1.915.817a.263.263 0 0 1-.32.19.244.244 0 0 1-.169-.304 2.85 2.85 0 0 0 .076-.703C11.68 4.368 10.328 3 8.676 3H8.45c-.131 0-.262-.095-.262-.228s.093-.266.225-.266c.094 0 .188-.02.263-.02 1.933 0 3.51 1.597 3.51 3.554 0 .266-.037.55-.093.817Z"/></symbol><use xlink:href="#viber-sym" y="148" width="16" height="16"/><view id="viber" viewBox="0 148 16 16"/><symbol id="vk-sym" viewBox="0 0 16 16"><title>vk</title><path d="M15.623 3.694c.12-.391 0-.676-.525-.676h-1.745c-.44 0-.644.249-.763.516 0 0-.898 2.277-2.152 3.754-.407.427-.593.57-.813.57-.119 0-.271-.143-.271-.534V3.676c0-.462-.136-.676-.509-.676H6.1a.43.43 0 0 0-.44.427c0 .445.627.552.694 1.797V7.93c0 .587-.101.694-.322.694-.593 0-2.033-2.296-2.897-4.911-.17-.516-.339-.712-.78-.712H.593C.085 3 0 3.25 0 3.516c0 .48.593 2.9 2.762 6.103 1.44 2.189 3.49 3.363 5.338 3.363 1.118 0 1.254-.267 1.254-.711v-1.655c0-.534.101-.623.457-.623.255 0 .712.142 1.746 1.192 1.186 1.246 1.39 1.815 2.05 1.815h1.745c.509 0 .746-.267.61-.783-.152-.516-.728-1.263-1.474-2.153-.406-.498-1.017-1.05-1.203-1.317-.254-.356-.186-.498 0-.818-.017 0 2.118-3.167 2.338-4.235Z"/></symbol><use xlink:href="#vk-sym" y="164" width="16" height="16"/><view id="vk" viewBox="0 164 16 16"/><symbol id="whatsapp-sym" viewBox="0 0 16 16"><title>whatsapp</title><path fill-rule="evenodd" clip-rule="evenodd" d="M7.998.396C3.806.396.396 3.807.396 8c0 1.663.537 3.205 1.448 4.456l-.947 2.825 2.922-.934a7.544 7.544 0 0 0 4.183 1.256c4.192 0 7.601-3.41 7.601-7.603S12.193.397 8.003.397h-.005ZM5.393 3.883c.223.01.335.023.483.376l.188.457c.204.494.456 1.106.495 1.188.054.112.108.264.032.411a1.23 1.23 0 0 1-.223.323l-.023.026a3.69 3.69 0 0 1-.142.155l-.024.025c-.054.058-.109.117-.165.187l-.005.006c-.101.119-.212.248-.084.467.13.22.576.948 1.233 1.533.78.694 1.424.955 1.714 1.072l.07.028c.182.076.401.058.535-.085.146-.156.32-.401.502-.656l.093-.13c.152-.215.344-.242.545-.166.205.072 1.291.608 1.515.72l.127.062c.152.073.255.122.297.197.054.094.054.536-.13 1.055-.183.518-.91.948-1.492 1.073-.397.084-.916.152-2.663-.573-2.07-.857-3.456-2.867-3.739-3.277L4.52 8.34a1.72 1.72 0 0 0-.034-.05l-.011-.014c-.142-.194-.892-1.22-.892-2.278 0-1.06.523-1.592.758-1.83l.02-.02c.183-.189.487-.273.777-.273.094 0 .179.004.255.008Z"/></symbol><use xlink:href="#whatsapp-sym" y="180" width="16" height="16"/><view id="whatsapp" viewBox="0 180 16 16"/></svg>