<svg xmlns="http://www.w3.org/2000/svg" xmlns:xlink="http://www.w3.org/1999/xlink"><symbol id="arrow-light-sym" viewBox="0 0 16 16"><title>arrow-light</title><path fill-rule="evenodd" clip-rule="evenodd" d="M5.877 1.258A.76.76 0 0 0 5.3 1a.787.787 0 0 0-.585.25.839.839 0 0 0-.215.575.8.8 0 0 0 .217.56L9.617 8l-4.9 5.614a.804.804 0 0 0-.217.561c0 .2.063.41.215.575.156.169.369.25.585.25a.76.76 0 0 0 .577-.258l.01-.01 5.396-6.171A.804.804 0 0 0 11.5 8a.804.804 0 0 0-.217-.56L5.877 1.257Z"/></symbol><use xlink:href="#arrow-light-sym" width="16" height="16"/><view id="arrow-light" viewBox="0 0 16 16"/><symbol id="arrow-linear-sym" viewBox="0 0 16 16"><title>arrow-linear</title><path fill-rule="evenodd" clip-rule="evenodd" d="m8.843.929 6.364 6.364a1 1 0 0 1 0 1.414L8.843 15.07a1 1 0 0 1-1.414-1.414L12.086 9H.5V7h11.586L7.429 2.343A1 1 0 0 1 8.843.929Z"/></symbol><use xlink:href="#arrow-linear-sym" y="16" width="16" height="16"/><view id="arrow-linear" viewBox="0 16 16 16"/><symbol fill="none" id="arrow-triangle-sym" viewBox="0 0 12 12"><title>arrow-triangle</title><path d="m6 9 5.196-6H.804L6 9Z" fill="#BDBDBD"/></symbol><use fill="none" xlink:href="#arrow-triangle-sym" y="32" width="12" height="12"/><view id="arrow-triangle" viewBox="0 32 12 12"/><symbol fill="none" id="calc-sym" viewBox="0 0 24 24"><title>calc</title><path d="M21 21V3C21 1.76 19.99.75 18.75.75H5.25C4.01.75 3 1.76 3 3v18c0 1.24 1.01 2.25 2.25 2.25h13.5c1.24 0 2.25-1.01 2.25-2.25ZM4.5 21V3c0-.413.337-.75.75-.75h13.5a.75.75 0 0 1 .75.75v18a.75.75 0 0 1-.75.75H5.25A.751.751 0 0 1 4.5 21Z" fill="#5BAA00"/><path d="M16.5 3.75h-9c-.827 0-1.5.673-1.5 1.5v1.5c0 .827.673 1.5 1.5 1.5h9c.827 0 1.5-.673 1.5-1.5v-1.5c0-.827-.673-1.5-1.5-1.5Zm-9 3v-1.5h9v1.5h-9Zm2.25 4.5H9v-.75a.75.75 0 0 0-1.5 0v.75h-.75a.75.75 0 0 0 0 1.5h.75v.75a.75.75 0 0 0 1.5 0v-.75h.75a.75.75 0 0 0 0-1.5Zm7.5 0h-3a.75.75 0 1 0 0 1.5h3a.75.75 0 1 0 0-1.5Zm0 4.875h-3a.75.75 0 1 0 0 1.5h3a.75.75 0 1 0 0-1.5Zm0 2.25h-3a.75.75 0 1 0 0 1.5h3a.75.75 0 1 0 0-1.5ZM9.841 16.41a.75.75 0 0 0-1.06 0l-.53.53-.53-.53a.75.75 0 1 0-1.061 1.06l.53.53-.53.53a.75.75 0 1 0 1.06 1.06l.53-.53.53.53a.748.748 0 0 0 1.061 0 .75.75 0 0 0 0-1.06l-.53-.53.53-.53a.75.75 0 0 0 0-1.06Z" fill="#5BAA00"/></symbol><use fill="none" xlink:href="#calc-sym" y="44" width="24" height="24"/><view id="calc" viewBox="0 44 24 24"/><symbol fill="none" id="email-sym" viewBox="0 0 16 16"><title>email</title><path fill-rule="evenodd" clip-rule="evenodd" d="M13.581 14.2H2.418a2.037 2.037 0 0 1-1.503-.692A2.46 2.46 0 0 1 .3 11.87V4.13c.002-.61.221-1.2.615-1.637.395-.438.934-.69 1.503-.692H13.58a2.037 2.037 0 0 1 1.503.692 2.46 2.46 0 0 1 .616 1.636v7.743c-.002.61-.221 1.2-.616 1.637-.394.438-.935.69-1.503.692ZM6.74 8.864 1.746 5.57v6.3c0 .21.076.408.204.551a.63.63 0 0 0 .468.218h11.163a.63.63 0 0 0 .468-.218.825.825 0 0 0 .204-.55V5.548L9.261 8.864a2.3 2.3 0 0 1-1.26.38c-.446 0-.882-.132-1.262-.38Zm2.412-.167a2.1 2.1 0 0 1-1.15.348 2.1 2.1 0 0 1-1.152-.348L1.546 5.198v6.673c0 .256.092.503.256.684a.83.83 0 0 0 .616.284h11.163a.83.83 0 0 0 .617-.284c.163-.181.255-.428.255-.684V5.175L9.151 8.697ZM15.5 11.87a2.26 2.26 0 0 1-.564 1.503c-.36.399-.847.624-1.355.626H2.418a1.835 1.835 0 0 1-1.354-.626A2.26 2.26 0 0 1 .5 11.871V4.129c0-.085.005-.168.014-.251v-.004a2.29 2.29 0 0 1 .55-1.248c.36-.4.846-.624 1.354-.626h11.163c.508.002.995.227 1.355.626a2.209 2.209 0 0 1 .547 1.227v.006c.011.09.016.18.017.27v7.742ZM1.634 3.705a.973.973 0 0 1 .168-.26.83.83 0 0 1 .616-.284h11.163a.83.83 0 0 1 .617.284.968.968 0 0 1 .226.434l-5.83 3.834a1.093 1.093 0 0 1-.615.192c-.216 0-.429-.067-.614-.192l-5.794-3.81a1.04 1.04 0 0 1 .063-.198Zm.17.112a.78.78 0 0 1 .146-.239.63.63 0 0 1 .468-.217h11.163a.63.63 0 0 1 .468.217.775.775 0 0 1 .137.217L8.483 7.546l-.002.002a.894.894 0 0 1-.502.157.894.894 0 0 1-.502-.157L1.805 3.817Z" fill="#5BAA00"/><path fill-rule="evenodd" clip-rule="evenodd" d="M15.5 11.87a2.26 2.26 0 0 1-.564 1.504c-.36.399-.847.624-1.355.626H2.418a1.835 1.835 0 0 1-1.354-.626A2.26 2.26 0 0 1 .5 11.871V4.129c0-.085.005-.168.014-.251v-.004a2.29 2.29 0 0 1 .55-1.248c.36-.4.846-.624 1.354-.626h11.163c.508.002.995.227 1.355.626a2.209 2.209 0 0 1 .547 1.227v.006c.011.09.016.18.017.27v7.742ZM8 9.046a2.1 2.1 0 0 0 1.151-.348l5.302-3.522v6.696c0 .256-.092.503-.255.684a.83.83 0 0 1-.617.284H2.418a.83.83 0 0 1-.616-.284 1.024 1.024 0 0 1-.256-.684V5.198L6.85 8.697A2.1 2.1 0 0 0 8 9.045Zm-6.366-5.34a.973.973 0 0 1 .168-.26.83.83 0 0 1 .616-.284h11.163a.83.83 0 0 1 .617.284.968.968 0 0 1 .226.434l-5.83 3.834a1.093 1.093 0 0 1-.615.192c-.216 0-.429-.067-.614-.192l-5.794-3.81a1.04 1.04 0 0 1 .063-.198Z" fill="#5BAA00"/></symbol><use fill="none" xlink:href="#email-sym" y="68" width="16" height="16"/><view id="email" viewBox="0 68 16 16"/><symbol id="home-sym" viewBox="0 0 16 16"><title>home</title><path d="M8.687 1.262a1 1 0 0 0-1.374 0L2.469 5.84A1.5 1.5 0 0 0 2 6.93v5.57A1.5 1.5 0 0 0 3.5 14H5a1.5 1.5 0 0 0 1.5-1.5V10a.5.5 0 0 1 .5-.5h2a.5.5 0 0 1 .5.5v2.5A1.5 1.5 0 0 0 11 14h1.5a1.5 1.5 0 0 0 1.5-1.5V6.93a1.501 1.501 0 0 0-.47-1.09L8.687 1.26v.002Z"/></symbol><use xlink:href="#home-sym" y="84" width="16" height="16"/><view id="home" viewBox="0 84 16 16"/><symbol fill="none" id="location-sym" viewBox="0 0 16 16"><title>location</title><path d="M12.227 2.707C9.9.431 6.072.431 3.745 2.707a5.724 5.724 0 0 0 0 8.23L7.985 15l4.242-4.098a5.62 5.62 0 0 0 0-8.195ZM7.986 8.346c-1.05 0-1.877-.77-1.877-1.751 0-.98.826-1.751 1.877-1.751 1.05 0 1.876.77 1.876 1.75 0 .981-.825 1.752-1.876 1.752Z" fill="#5BAA00"/></symbol><use fill="none" xlink:href="#location-sym" y="100" width="16" height="16"/><view id="location" viewBox="0 100 16 16"/><symbol id="project-1-sym" viewBox="0 0 68 68"><title>project-1</title><path d="M37.778.893A3.4 3.4 0 0 0 35.48 0h-2.96c-.85 0-1.67.318-2.296.893L.736 27.908A2.273 2.273 0 0 0 0 29.58v36.153A2.267 2.267 0 0 0 2.267 68h63.466A2.267 2.267 0 0 0 68 65.733V29.58c0-.636-.267-1.243-.735-1.673L37.778.893Zm-1.533 1.672L61.2 25.427v3.724L35.133 5.169V2.267h.347c.284 0 .557.106.765.298ZM22.667 61.2V49.867h22.666V61.2H22.667ZM6.8 61.2V49.867h9.067V61.2H6.8Zm0-15.867h9.067V47.6H6.8v-2.267Zm9.067-2.266H6.8V32.23l9.067-8.341v19.177Zm2.266 5.666V21.804L20.4 19.72V61.2h-2.267V48.733Zm13.6-26.066h13.6v2.266H22.667v-2.266h9.066ZM22.667 27.2h22.666v15.867H22.667V27.2Zm0 18.133h22.666V47.6H22.667v-2.267ZM45.333 20.4H37.4V10.335l7.933 7.299V20.4ZM34 7.206l1.133 1.042V20.4h-2.266V8.248L34 7.206ZM30.6 20.4h-7.933v-2.766l7.933-7.3V20.4Zm17 28.333V19.72l2.267 2.085V61.2H47.6V48.733Zm4.533-3.4H61.2V47.6h-9.067v-2.267Zm9.067-2.266h-9.067V23.89l9.067 8.34v10.837Zm-9.067 6.8H61.2V61.2h-9.067V49.867ZM31.755 2.565c.208-.192.481-.299.765-.298h.347v2.902L6.8 29.151v-3.725L31.755 2.565ZM2.267 29.58l2.266-2.077v38.23H2.267V29.58ZM6.8 63.467h54.4v2.266H6.8v-2.266Zm58.933 2.266h-2.266v-38.23l2.266 2.077v36.153Z"/></symbol><use xlink:href="#project-1-sym" y="116" width="68" height="68"/><view id="project-1" viewBox="0 116 68 68"/><symbol id="project-2-sym" viewBox="0 0 68 68"><title>project-2</title><path d="M67.444 26.465 53.742 18.7V6.58h2.194a1.097 1.097 0 0 0 1.096-1.096V1.097A1.097 1.097 0 0 0 55.936 0H40.58a1.097 1.097 0 0 0-1.097 1.097v4.387A1.097 1.097 0 0 0 40.58 6.58h2.193v5.905L34.541 7.82a1.097 1.097 0 0 0-1.082 0L.556 26.465A1.097 1.097 0 0 0 0 27.42V34a1.096 1.096 0 0 0 1.637.954l2.456-1.393c.174.2.367.384.575.549a4.34 4.34 0 0 0 .138 6.47 4.33 4.33 0 0 0 0 6.581 4.329 4.329 0 0 0 0 6.58 4.33 4.33 0 0 0 0 6.581A4.369 4.369 0 0 0 7.677 68h52.646a4.369 4.369 0 0 0 2.87-7.678 4.328 4.328 0 0 0 0-6.58 4.329 4.329 0 0 0 0-6.58 4.329 4.329 0 0 0 0-6.581 4.328 4.328 0 0 0 .015-6.569c.19-.167.366-.35.525-.548l2.632 1.49A1.098 1.098 0 0 0 68 34v-6.58a1.097 1.097 0 0 0-.556-.955ZM41.677 2.194H54.84v2.193H41.677V2.194Zm3.29 4.387h6.581v10.876l-6.58-3.729V6.581Zm6.163 19.742H16.87l7.742-4.387h18.776l1.722.976 6.02 3.41ZM34 16.615l5.517 3.127H28.483L34 16.615ZM2.194 28.059l30.71-17.403v4.058L2.193 32.118v-4.06Zm3.29 9.231a2.194 2.194 0 0 1 2.193-2.193h3.29v4.387h-3.29a2.194 2.194 0 0 1-2.193-2.194Zm48.258 15.355H38.387V35.097h15.355v17.548Zm-17.548-6.58H30.71v-4.388h5.483v4.388Zm-5.484 2.193h5.483v4.387H30.71v-4.387Zm5.483-8.774H30.71v-4.387h5.483v4.387Zm-7.677 14.258v12.064H13.161v-30.71h15.355v18.646ZM5.484 43.87a2.193 2.193 0 0 1 2.193-2.194h3.29v4.388h-3.29a2.193 2.193 0 0 1-2.193-2.194Zm0 6.58a2.194 2.194 0 0 1 2.193-2.193h3.29v4.387h-3.29a2.194 2.194 0 0 1-2.193-2.193Zm0 6.581a2.194 2.194 0 0 1 2.193-2.193h3.29v4.387h-3.29a2.193 2.193 0 0 1-2.193-2.194Zm0 6.58a2.194 2.194 0 0 1 2.193-2.193h3.29v4.387h-3.29a2.193 2.193 0 0 1-2.193-2.193Zm57.032 0a2.194 2.194 0 0 1-2.193 2.194H30.71V61.42h29.613a2.194 2.194 0 0 1 2.193 2.194Zm0-6.58a2.194 2.194 0 0 1-2.193 2.194H30.71v-4.387h29.613a2.194 2.194 0 0 1 2.193 2.193Zm0-6.58a2.194 2.194 0 0 1-2.193 2.193h-4.388v-4.387h4.388a2.194 2.194 0 0 1 2.193 2.194Zm0-6.581a2.194 2.194 0 0 1-2.193 2.194h-4.388v-4.388h4.388a2.194 2.194 0 0 1 2.193 2.194Zm0-6.58a2.194 2.194 0 0 1-2.193 2.193h-4.388v-4.387h4.388a2.194 2.194 0 0 1 2.193 2.193Zm-2.193-4.388H7.677c-.088 0-.17.021-.257.026v-.026a2.18 2.18 0 0 1-1.329-.472L13 28.516h42.006l6.753 3.827a2.17 2.17 0 0 1-1.435.56Zm5.483-.785-9.975-5.653-20.734-11.75v-4.058l30.71 17.402v4.059Z"/><path d="M26.323 48.258h-2.194v5.484h2.194v-5.484Z"/></symbol><use xlink:href="#project-2-sym" y="184" width="68" height="68"/><view id="project-2" viewBox="0 184 68 68"/><symbol id="project-3-sym" viewBox="0 0 68 69"><title>project-3</title><path d="M25.823 48.608h-2.194v5.484h2.194v-5.484Z"/><path d="M40.304 3.297c-3.203-3.697-9.421-3.702-12.624 0L1.538 32.196c-3.49 3.658-.628 10.043 4.458 10.043 2.57 0 3.265-.93 3.265-.93v22.575a4.644 4.644 0 0 0 4.637 4.638h40.19a4.643 4.643 0 0 0 4.637-4.638V41.307s1.024.932 3.265.932A6.017 6.017 0 0 0 68 36.23c0-1.494-.55-2.928-1.553-4.033l-26.143-28.9ZM27.433 22.064c.123.031.242.076.377.076h12.366c.134 0 .254-.045.379-.076l5.91 6.26H21.52l5.913-6.26Zm2.847-3.016 3.713-3.932 3.713 3.932H30.28ZM18.6 31.417h30.786l5.84 6.184H12.76l5.84-6.184Zm-6.248 24.737V49.97h4.637v6.184h-4.637Zm7.729-9.277h9.275v9.277H20.08v-9.277Zm12.366 3.093h3.092v6.184h-3.092V49.97Zm4.637-6.185c-.854 0-1.545.693-1.545 1.546v1.546h-3.092v-1.546c0-.853-.692-1.546-1.546-1.546H18.535c-.853 0-1.546.693-1.546 1.546v1.546h-4.637v-6.184h43.282v6.184h-4.638v-1.546c0-.853-.69-1.546-1.545-1.546H37.084Zm13.912 6.185h4.638v6.184h-4.638V49.97ZM12.352 63.884v-4.638H35.54v6.184H13.898a1.549 1.549 0 0 1-1.546-1.546ZM38.63 65.43V46.877h9.275V65.43H38.63Zm15.458 0h-3.092v-6.184h4.638v4.638c0 .852-.693 1.546-1.546 1.546Zm7.902-26.283h-1.054l-25.82-27.345c-.584-.619-1.663-.619-2.247 0L7.05 39.147H5.996c-2.46.071-3.868-3.1-2.164-4.876l26.142-28.9a5.424 5.424 0 0 1 8.04 0l26.142 28.9c1.69 1.771.306 4.952-2.166 4.876Z"/><path fill-rule="evenodd" clip-rule="evenodd" d="M27.983 3.558c3.043-3.516 8.976-3.512 12.019 0L66.15 32.466a5.588 5.588 0 0 1 1.45 3.763 5.617 5.617 0 0 1-5.61 5.611c-1.063 0-1.825-.22-2.313-.433a3.428 3.428 0 0 1-.535-.286 1.932 1.932 0 0 1-.139-.101l-.007-.006-.002-.002-.001-.002-.668-.608v23.483a4.243 4.243 0 0 1-4.237 4.239h-40.19a4.244 4.244 0 0 1-4.237-4.239V40.103l-.717.96a2.041 2.041 0 0 1-.522.348c-.433.205-1.19.428-2.426.428-2.361 0-4.219-1.48-5.08-3.413-.86-1.931-.703-4.262.911-5.954l26.15-28.907.006-.007Zm31.142 38.02c-.27-.152-.4-.271-.4-.271v22.577a4.643 4.643 0 0 1-4.637 4.638h-40.19a4.644 4.644 0 0 1-4.637-4.638V41.31s-.11.145-.4.322c-.444.269-1.313.608-2.865.608-5.086 0-7.948-6.385-4.458-10.043l26.142-28.9c3.203-3.7 9.422-3.696 12.624 0l26.142 28.9A5.988 5.988 0 0 1 68 36.228a6.017 6.017 0 0 1-6.01 6.011c-1.441 0-2.379-.385-2.865-.66ZM27.53 21.676l-.227-.056-6.71 7.104h26.8l-6.708-7.104-.226.056c-.065.016-.11.029-.145.039a.46.46 0 0 1-.138.025H27.81a.47.47 0 0 1-.14-.026l-.14-.038Zm6.463-7.142-4.64 4.914h9.28l-4.64-4.914ZM56.153 38l-6.595-6.984h-31.13L11.832 38h44.322Zm-44.2 11.569v6.984h5.436V49.57h-5.437Zm17.803-3.093H19.68v10.077h10.075V46.477Zm6.183 3.093h-3.892v6.984h3.892V49.57Zm-3.892-2.293h3.892V45.33c0-.633.512-1.146 1.145-1.146h12.367c.633 0 1.145.514 1.145 1.146v1.946h5.438v-6.984H11.952v6.984h5.437V45.33c0-.632.514-1.146 1.146-1.146h12.366c.633 0 1.146.514 1.146 1.146v1.946Zm23.987 2.293h-5.438v6.984h5.438V49.57Zm-20.095 9.276H11.952v5.038c0 1.073.873 1.946 1.946 1.946h22.04v-6.984Zm12.366-12.369H38.23V65.83h10.075V46.477Zm2.291 12.369v6.984h3.492a1.948 1.948 0 0 0 1.946-1.946v-5.038h-5.438Zm-15.77-46.77 25.937 27.471h1.221c1.425.04 2.52-.858 3.015-1.984.496-1.125.423-2.54-.55-3.564L38.31 5.103a5.824 5.824 0 0 0-8.633 0L3.54 33.998c-.98 1.027-1.05 2.442-.552 3.566.5 1.124 1.596 2.022 3.014 1.983h1.22l25.939-27.47c.427-.452 1.24-.452 1.666 0ZM29.985 5.36l-.308-.256.27.299L3.832 34.27c-1.704 1.776-.295 4.947 2.164 4.876h1.053l25.82-27.345c.584-.619 1.663-.619 2.248 0L48.844 26.34l11.92 13.206.265-.4h.961c2.44.075 3.818-3.021 2.231-4.805l.228-.343-2.172-1.806-24.264-26.82a5.424 5.424 0 0 0-8.029-.012ZM21.52 28.324l5.913-6.26.087.024c.093.026.187.052.29.052h12.366c.102 0 .195-.026.289-.052a3.2 3.2 0 0 1 .09-.024l5.91 6.26H21.52Zm16.186-9.276H30.28l3.713-3.932 3.713 3.932Zm11.68 12.369 5.84 6.184H12.76l5.84-6.184h30.786ZM16.989 56.154h-4.637V49.97h4.637v6.184Zm3.092 0v-9.277h9.275v9.277H20.08Zm12.366 0V49.97h3.092v6.184h-3.092Zm4.637-12.369c-.854 0-1.545.693-1.545 1.546v1.546h-3.092v-1.546c0-.853-.692-1.546-1.546-1.546H18.535c-.853 0-1.546.693-1.546 1.546v1.546h-4.637v-6.184h43.282v6.184h-4.638v-1.546c0-.853-.69-1.546-1.545-1.546H37.084Zm13.912 12.369V49.97h4.638v6.184h-4.638ZM13.898 65.43a1.549 1.549 0 0 1-1.546-1.546v-4.638H35.54v6.184H13.898Zm34.007 0H38.63V46.877h9.275V65.43Zm7.729-1.546c0 .852-.693 1.546-1.546 1.546h-3.092v-6.184h4.638v4.638Z"/></symbol><use xlink:href="#project-3-sym" y="252" width="68" height="69"/><view id="project-3" viewBox="0 252 68 69"/><symbol id="project-4-sym" viewBox="0 0 69 69"><title>project-4</title><path d="M68.056 33.809a2.96 2.96 0 0 0 0-4.277L40.543 2.812c-3.077-2.988-8.074-2.99-11.151 0L1.879 29.532a2.967 2.967 0 0 0 0 4.277c.829.804 2.008 1.046 3.062.753a4.27 4.27 0 0 0-.02.38c0 1.53.817 2.877 2.047 3.658-1.23.78-2.046 2.127-2.046 3.657 0 1.53.816 2.877 2.046 3.658-1.23.78-2.046 2.127-2.046 3.657 0 1.53.816 2.877 2.046 3.657-1.23.78-2.046 2.128-2.046 3.658 0 1.53.816 2.877 2.046 3.658-1.23.78-2.046 2.127-2.046 3.657a4.28 4.28 0 0 0 1.189 2.949H2.843a.72.72 0 0 0-.73.708.72.72 0 0 0 .73.709h6.52l.057.002.056-.002h50.989l.056.002.056-.002h6.515a.72.72 0 0 0 .73-.709.719.719 0 0 0-.73-.708h-3.268a4.283 4.283 0 0 0 1.187-2.949c0-1.53-.815-2.877-2.043-3.657 1.228-.78 2.043-2.128 2.043-3.658 0-1.53-.815-2.877-2.043-3.657 1.228-.78 2.043-2.128 2.043-3.658 0-1.53-.815-2.877-2.043-3.657 1.228-.78 2.043-2.127 2.043-3.658 0-1.53-.815-2.877-2.042-3.657 1.227-.78 2.042-2.128 2.042-3.658a4.25 4.25 0 0 0-.02-.38c1.054.296 2.233.054 3.065-.753ZM2.91 32.807a1.578 1.578 0 0 1 0-2.274l27.512-26.72c2.508-2.435 6.582-2.434 9.089 0l27.512 26.72a1.575 1.575 0 0 1 0 2.274c-.625.607-1.716.607-2.34 0L37.17 6.087a3.183 3.183 0 0 0-4.405 0c-3.55 3.448-1.985 1.923-27.513 26.72a1.693 1.693 0 0 1-2.341 0Zm21.463 12.4H12.722a4.283 4.283 0 0 0 1.187-2.95c0-1.137-.452-2.17-1.187-2.948h11.652v5.897Zm0 1.416v5.898H12.722a4.283 4.283 0 0 0 1.187-2.949 4.283 4.283 0 0 0-1.187-2.949h11.652Zm0 7.315v5.898H12.722a4.283 4.283 0 0 0 1.188-2.949 4.283 4.283 0 0 0-1.188-2.95h11.652Zm0 7.315v5.898H12.722a4.283 4.283 0 0 0 1.188-2.949 4.283 4.283 0 0 0-1.188-2.95h11.652Zm21.187 0h11.652a4.279 4.279 0 0 0-1.19 2.95c0 1.136.453 2.17 1.19 2.948H45.56v-5.898Zm0-1.417v-5.898h11.652a4.279 4.279 0 0 0-1.19 2.949 4.28 4.28 0 0 0 1.19 2.95H45.56Zm0-7.315v-5.898h11.652a4.279 4.279 0 0 0-1.19 2.95c0 1.136.454 2.17 1.19 2.948H45.56Zm0-7.315v-5.898h11.65a4.28 4.28 0 0 0-1.188 2.95c0 1.137.454 2.17 1.19 2.948H45.56Zm-32.84-7.314a4.283 4.283 0 0 0 1.188-2.95c0-1.136-.452-2.17-1.186-2.948H57.21a4.278 4.278 0 0 0-1.188 2.948 4.28 4.28 0 0 0 1.19 2.95c-1.565-.005-43.082 0-44.491 0Zm26.475-27.834 6.07 5.895H24.67l6.07-5.895h8.457ZM32.199 8.64l1.597-1.552c.625-.606 1.72-.604 2.343 0l1.598 1.552H32.2Zm14.526 8.729 6.07 5.896H17.14l6.07-5.896h23.515Zm7.53 7.312 5.536 5.378v.517H10.143v-.517l5.538-5.378h38.573ZM6.38 34.942c0-1.628 1.363-2.951 3.04-2.951 1.671 0 3.03 1.323 3.03 2.951 0 1.616-1.34 2.93-2.995 2.949l-.036-.002-.035.002c-1.66-.02-3.004-1.333-3.004-2.949Zm0 7.315c0-1.616 1.345-2.93 3.004-2.948l.035.002.036-.002c1.655.019 2.996 1.332 2.996 2.948 0 1.617-1.343 2.931-2.999 2.949l-.033-.002-.032.002c-1.66-.018-3.007-1.332-3.007-2.949Zm0 7.315c0-1.617 1.346-2.93 3.007-2.948l.032.001.033-.001c1.656.017 2.999 1.331 2.999 2.948s-1.343 2.93-2.999 2.948l-.033-.001-.032.001c-1.66-.017-3.007-1.331-3.007-2.948Zm0 7.315c0-1.617 1.346-2.93 3.007-2.948l.032.001.033-.001c1.656.017 2.999 1.331 2.999 2.948s-1.343 2.931-2.999 2.949l-.033-.002-.032.002c-1.66-.018-3.007-1.332-3.007-2.949Zm0 7.315c0-1.616 1.346-2.93 3.007-2.948l.032.002.033-.002c1.656.018 2.999 1.332 2.999 2.948 0 1.618-1.345 2.934-3.003 2.95H9.39c-1.662-.016-3.01-1.332-3.01-2.95Zm19.453 2.95V39.304h18.27V67.15h-18.27Zm37.72-2.95c0 1.618-1.346 2.934-3.004 2.95h-.056c-1.663-.016-3.011-1.331-3.011-2.95 0-1.616 1.346-2.93 3.006-2.948l.033.002.033-.002c1.656.018 2.998 1.332 2.998 2.948Zm0-7.315c0 1.617-1.343 2.931-3 2.949l-.032-.002-.033.002c-1.66-.018-3.006-1.332-3.006-2.949 0-1.617 1.346-2.93 3.006-2.948l.033.001.033-.001c1.656.017 2.998 1.331 2.998 2.948Zm0-7.315c0 1.617-1.343 2.93-3 2.948l-.032-.001-.033.001c-1.66-.017-3.006-1.331-3.006-2.948s1.346-2.93 3.006-2.948l.033.001.033-.001c1.656.017 2.998 1.331 2.998 2.948Zm0-7.315c0 1.617-1.343 2.931-3 2.949l-.032-.002-.033.002c-1.66-.018-3.006-1.332-3.006-2.949 0-1.616 1.344-2.93 3.004-2.948l.035.002.035-.002c1.655.019 2.996 1.332 2.996 2.948Zm-2.997-4.366-.035-.002-.035.002c-1.66-.02-3.004-1.333-3.004-2.949 0-1.628 1.363-2.951 3.039-2.951 1.672 0 3.031 1.323 3.031 2.951 0 1.616-1.34 2.93-2.996 2.949Z"/><path d="M29.534 51.092c-1.209 0-2.192.956-2.192 2.13 0 1.182.984 2.143 2.192 2.143 1.217 0 2.207-.961 2.207-2.143 0-1.175-.99-2.13-2.207-2.13Zm0 2.857a.723.723 0 0 1-.734-.727c0-.393.33-.713.734-.713.413 0 .749.32.749.713a.74.74 0 0 1-.749.727Z"/></symbol><use xlink:href="#project-4-sym" y="321" width="69" height="69"/><view id="project-4" viewBox="0 321 69 69"/><symbol id="project-5-sym" viewBox="0 0 68 68"><title>project-5</title><path d="M67.698 30.334 34.626.242a.93.93 0 0 0-1.252 0L.302 30.334A.93.93 0 0 0 .21 31.61l3.302 4.02a.93.93 0 0 0 1.344.097l3.246-2.953v6.11a4.05 4.05 0 0 0 0 7.942v7.058a4.05 4.05 0 0 0 0 7.942v5.245a.93.93 0 0 0 .928.93h49.94a.93.93 0 0 0 .93-.93v-5.245a4.05 4.05 0 0 0 0-7.942v-7.058a4.05 4.05 0 0 0 0-7.942v-6.11l3.245 2.953a.931.931 0 0 0 .626.242h.067a.93.93 0 0 0 .652-.337l3.3-4.022a.93.93 0 0 0-.092-1.275Zm-53.09 35.807H9.96v-4.236h4.65v4.236Zm0-6.095H8.897a2.192 2.192 0 0 1 0-4.383h5.711v4.383Zm0-6.243H9.96v-6.898h4.65v6.898Zm0-8.757H8.897a2.192 2.192 0 0 1 0-4.383h5.711v4.383Zm15.806.93V66.14H16.468V40.663h13.946v5.312Zm-14.876-7.172H9.959v-6.9H58.04v6.9H15.538Zm36.547-13.142 4.817 4.383H11.1l4.817-4.383h36.169ZM17.96 23.803 34 9.21l16.04 14.594H17.96Zm35.432 23.102h4.647v6.898h-4.647v-6.898Zm-7.902 2.52v-8.762h6.042v8.761H45.49Zm6.042 1.859v8.762H45.49v-8.762h6.042Zm-13.946-1.86v-8.761h6.044v8.761h-6.044Zm6.043 1.86v8.762h-6.042v-8.762h6.042Zm-11.358 2.52v-6.899h3.453v6.898h-3.453Zm3.453 1.859v4.383h-3.453v-4.383h3.453Zm-3.453-10.617v-4.383h3.453v4.383h-3.453ZM58.038 66.14H32.271v-4.236h25.767v4.236Zm3.254-8.288a2.194 2.194 0 0 1-2.191 2.191h-5.71v-4.382h5.712a2.194 2.194 0 0 1 2.191 2.191h-.002Zm0-15a2.194 2.194 0 0 1-2.191 2.192h-5.71v-4.383h5.712a2.194 2.194 0 0 1 2.191 2.192h-.002Zm2.379-9.162-4.077-3.708-6.524-5.938-18.444-16.78a.931.931 0 0 0-1.252 0l-18.443 16.78-6.527 5.938-4.077 3.71-2.12-2.58L34 2.186l31.793 28.925-2.122 2.58Z"/><path d="M27.093 56.263a.93.93 0 0 0 .93-.93V51.25a.93.93 0 0 0-1.86 0v4.084a.929.929 0 0 0 .93.93Z"/></symbol><use xlink:href="#project-5-sym" y="390" width="68" height="68"/><view id="project-5" viewBox="0 390 68 68"/><symbol id="ringing-phone-sym" viewBox="0 0 16 16"><title>ringing-phone</title><path d="M2.583 13.116a1.4 1.4 0 0 1 .619-1.032l2.386-1.59a1.41 1.41 0 0 1 1.775.175l.763.769c.173.06.976-.28 2.009-1.313 1.034-1.034 1.369-1.83 1.325-1.988l-.782-.783a1.41 1.41 0 0 1-.176-1.774l1.59-2.387a1.402 1.402 0 0 1 1.033-.62c.422-.041.833.107 1.132.406l1.18 1.18c1.617 1.617-.489 5.172-3.293 7.976-1.906 1.907-6.078 5.193-7.976 3.293l-1.18-1.18a1.4 1.4 0 0 1-.405-1.132ZM7.031 0a.468.468 0 1 1 0 .938A6.1 6.1 0 0 0 .938 7.03a.468.468 0 1 1-.938 0A7.039 7.039 0 0 1 7.031 0Zm0 1.875a.468.468 0 1 1 0 .938A4.223 4.223 0 0 0 2.813 7.03a.468.468 0 1 1-.938 0 5.162 5.162 0 0 1 5.156-5.156Zm0 1.875a.468.468 0 1 1 0 .938A2.346 2.346 0 0 0 4.688 7.03a.468.468 0 1 1-.938 0 3.285 3.285 0 0 1 3.281-3.28Zm0 1.875a.468.468 0 1 1 0 .938.47.47 0 0 0-.468.468.468.468 0 1 1-.938 0c0-.775.63-1.406 1.406-1.406Z"/></symbol><use xlink:href="#ringing-phone-sym" y="458" width="16" height="16"/><view id="ringing-phone" viewBox="0 458 16 16"/><symbol fill="none" id="search-sym" viewBox="0 0 20 20"><title>search</title><path fill-rule="evenodd" clip-rule="evenodd" d="M20 18.133 18.133 20l-5.121-5.12a8.213 8.213 0 1 1 1.868-1.868L20 18.133ZM8.213 2.64a5.573 5.573 0 1 0 0 11.146 5.573 5.573 0 0 0 0-11.146Z" fill="#000"/></symbol><use fill="none" xlink:href="#search-sym" y="474" width="20" height="20"/><view id="search" viewBox="0 474 20 20"/><symbol fill="none" id="tel-sym" viewBox="0 0 12 12"><title>tel</title><path d="M11.233 8.033C11.167 8 11.067 8 11 8a7.825 7.825 0 0 1-3.133-1.1L6.4 8.4c-1.067-.733-2-1.7-2.733-2.7l1.466-1.5c-.566-.933-.933-2-1.1-3.167V1c0-.067 0-.167-.033-.233A1 1 0 0 0 3.033 0H1C.467 0 0 .433 0 .967V1c0 .067 0 .1.033.167.2 2.2 1 4.2 2.2 5.866C3 8.067 3.9 9 4.967 9.767c1.666 1.2 3.7 2 5.866 2.2.067 0 .1.033.167.033h.033c.534 0 .967-.467.967-1V8.967c0-.434-.333-.834-.767-.934Z" fill="#333"/></symbol><use fill="none" xlink:href="#tel-sym" y="494" width="12" height="12"/><view id="tel" viewBox="0 494 12 12"/><symbol id="telegram-sym" viewBox="0 0 16 16"><title>telegram</title><path d="m8.001 11.983.477-.468.054.038c.035.025.07.048.102.073l1.028.766c.7.523 1.402 1.046 2.105 1.567.602.447 1.13.247 1.295-.487l.001-.005v-.004l.002-.01.501-2.38v-.002c.508-2.41 1.015-4.821 1.521-7.232l.06-.279c.071-.319.142-.639.17-.961.054-.633-.398-.948-.98-.72L6.643 4.873h-.001l-.003.002-1.405.547-.994.386c-.931.36-1.862.722-2.79 1.092a2.36 2.36 0 0 0-.636.38c-.203.172-.171.408.05.556.128.085.277.146.424.193.992.317 1.985.63 2.98.938.129.04.19.101.231.23.236.742.474 1.483.713 2.224l.559 1.741c.057.181.163.266.352.276.276.015.493-.09.686-.282.395-.392.793-.782 1.193-1.174Zm-1.817.474-.016.068-.03-.075a1.193 1.193 0 0 1-.037-.093l-.29-.9c-.268-.83-.535-1.66-.809-2.488-.048-.146-.013-.208.106-.284C6.3 7.93 7.492 7.172 8.683 6.414l3.472-2.206c.12-.075.256-.13.392-.168.04-.011.09.009.138.029a.664.664 0 0 0 .066.024.722.722 0 0 0-.022.065.286.286 0 0 1-.062.127c-.343.319-.69.634-1.036.948l-.31.282-.968.88a1848.47 1848.47 0 0 1-3.776 3.432.537.537 0 0 0-.183.39c-.046.562-.098 1.124-.15 1.686l-.045.476a.52.52 0 0 1-.015.078Z"/></symbol><use xlink:href="#telegram-sym" y="506" width="16" height="16"/><view id="telegram" viewBox="0 506 16 16"/><symbol id="viber-sym" viewBox="0 0 16 16"><title>viber</title><path d="M9.502.396H6.498c-2.891 0-5.257 2.395-5.257 5.32v2.28c0 2.053 1.183 3.934 3.004 4.808v2.546c0 .228.282.342.432.171l2.178-2.204h2.647c2.89 0 5.256-2.394 5.256-5.32v-2.28c0-2.926-2.365-5.32-5.256-5.32Zm1.971 9.976-.77.76c-.807.798-2.89-.114-4.73-2.014-1.84-1.9-2.648-4.028-1.878-4.826l.75-.76c.282-.285.752-.266 1.07.019l1.09 1.14c.394.399.225 1.083-.282 1.235-.356.114-.6.513-.488.874.188.836 1.24 1.9 2.028 2.109a.773.773 0 0 0 .882-.475.731.731 0 0 1 1.22-.266l1.09 1.14c.3.266.3.74.018 1.064ZM8.676 4.007c-.075 0-.15 0-.226.019-.131.019-.262-.095-.281-.228-.019-.133.094-.266.225-.285.094-.02.188-.02.282-.02 1.37 0 2.497 1.14 2.497 2.528 0 .095 0 .19-.02.285-.018.133-.15.247-.28.228-.132-.02-.245-.152-.226-.285 0-.076.019-.152.019-.228a1.991 1.991 0 0 0-1.99-2.014Zm1.502 2.033a.25.25 0 0 1-.244.247.25.25 0 0 1-.245-.247c0-.551-.45-1.007-.995-1.007a.25.25 0 0 1-.244-.247.25.25 0 0 1 .244-.247c.808-.02 1.484.665 1.484 1.5Zm1.915.817a.263.263 0 0 1-.32.19.244.244 0 0 1-.169-.304 2.85 2.85 0 0 0 .076-.703C11.68 4.368 10.328 3 8.676 3H8.45c-.131 0-.262-.095-.262-.228s.093-.266.225-.266c.094 0 .188-.02.263-.02 1.933 0 3.51 1.597 3.51 3.554 0 .266-.037.55-.093.817Z"/></symbol><use xlink:href="#viber-sym" y="522" width="16" height="16"/><view id="viber" viewBox="0 522 16 16"/><symbol id="vk-sym" viewBox="0 0 16 16"><title>vk</title><path d="M15.623 3.694c.12-.391 0-.676-.525-.676h-1.745c-.44 0-.644.249-.763.516 0 0-.898 2.277-2.152 3.754-.407.427-.593.57-.813.57-.119 0-.271-.143-.271-.534V3.676c0-.462-.136-.676-.509-.676H6.1a.43.43 0 0 0-.44.427c0 .445.627.552.694 1.797V7.93c0 .587-.101.694-.322.694-.593 0-2.033-2.296-2.897-4.911-.17-.516-.339-.712-.78-.712H.593C.085 3 0 3.25 0 3.516c0 .48.593 2.9 2.762 6.103 1.44 2.189 3.49 3.363 5.338 3.363 1.118 0 1.254-.267 1.254-.711v-1.655c0-.534.101-.623.457-.623.255 0 .712.142 1.746 1.192 1.186 1.246 1.39 1.815 2.05 1.815h1.745c.509 0 .746-.267.61-.783-.152-.516-.728-1.263-1.474-2.153-.406-.498-1.017-1.05-1.203-1.317-.254-.356-.186-.498 0-.818-.017 0 2.118-3.167 2.338-4.235Z"/></symbol><use xlink:href="#vk-sym" y="538" width="16" height="16"/><view id="vk" viewBox="0 538 16 16"/><symbol id="whatsapp-sym" viewBox="0 0 16 16"><title>whatsapp</title><path fill-rule="evenodd" clip-rule="evenodd" d="M7.998.396C3.806.396.396 3.807.396 8c0 1.663.537 3.205 1.448 4.456l-.947 2.825 2.922-.934a7.544 7.544 0 0 0 4.183 1.256c4.192 0 7.601-3.41 7.601-7.603S12.193.397 8.003.397h-.005ZM5.393 3.883c.223.01.335.023.483.376l.188.457c.204.494.456 1.106.495 1.188.054.112.108.264.032.411a1.23 1.23 0 0 1-.223.323l-.023.026a3.69 3.69 0 0 1-.142.155l-.024.025c-.054.058-.109.117-.165.187l-.005.006c-.101.119-.212.248-.084.467.13.22.576.948 1.233 1.533.78.694 1.424.955 1.714 1.072l.07.028c.182.076.401.058.535-.085.146-.156.32-.401.502-.656l.093-.13c.152-.215.344-.242.545-.166.205.072 1.291.608 1.515.72l.127.062c.152.073.255.122.297.197.054.094.054.536-.13 1.055-.183.518-.91.948-1.492 1.073-.397.084-.916.152-2.663-.573-2.07-.857-3.456-2.867-3.739-3.277L4.52 8.34a1.72 1.72 0 0 0-.034-.05l-.011-.014c-.142-.194-.892-1.22-.892-2.278 0-1.06.523-1.592.758-1.83l.02-.02c.183-.189.487-.273.777-.273.094 0 .179.004.255.008Z"/></symbol><use xlink:href="#whatsapp-sym" y="554" width="16" height="16"/><view id="whatsapp" viewBox="0 554 16 16"/></svg>