<svg width="68" height="68" viewBox="0 0 68 68" fill="none" xmlns="http://www.w3.org/2000/svg">
<path d="M67.698 30.3343L34.6258 0.242172C34.4546 0.086354 34.2314 0 33.9999 0C33.7684 0 33.5452 0.086354 33.374 0.242172L0.301775 30.3343C0.126505 30.4949 0.0193753 30.7165 0.00238147 30.9537C-0.0146124 31.1908 0.0598196 31.4254 0.210395 31.6093L3.51178 35.6282C3.59182 35.7257 3.69084 35.8058 3.80281 35.8638C3.91479 35.9218 4.03738 35.9564 4.16315 35.9655C4.28891 35.9747 4.41522 35.9582 4.53441 35.917C4.65359 35.8758 4.76316 35.8108 4.85645 35.726L8.10152 32.7733V38.8827C7.18359 39.0665 6.35769 39.5627 5.76427 40.2867C5.17086 41.0107 4.84658 41.9179 4.84658 42.854C4.84658 43.7902 5.17086 44.6974 5.76427 45.4214C6.35769 46.1454 7.18359 46.6416 8.10152 46.8254V53.8831C7.18388 54.0672 6.35831 54.5634 5.76517 55.2874C5.17203 56.0113 4.84791 56.9183 4.84791 57.8542C4.84791 58.7901 5.17203 59.6971 5.76517 60.421C6.35831 61.1449 7.18388 61.6412 8.10152 61.8253V67.0703C8.10166 67.3166 8.19944 67.5527 8.37343 67.727C8.54741 67.9013 8.7834 67.9994 9.02967 68H58.9701C59.2167 67.9999 59.4531 67.9019 59.6274 67.7275C59.8017 67.5532 59.8997 67.3168 59.8999 67.0703V61.8253C60.8175 61.6412 61.6431 61.1449 62.2362 60.421C62.8294 59.6971 63.1535 58.7901 63.1535 57.8542C63.1535 56.9183 62.8294 56.0113 62.2362 55.2874C61.6431 54.5634 60.8175 54.0672 59.8999 53.8831V46.8254C60.8178 46.6416 61.6437 46.1454 62.2371 45.4214C62.8305 44.6974 63.1548 43.7902 63.1548 42.854C63.1548 41.9179 62.8305 41.0107 62.2371 40.2867C61.6437 39.5627 60.8178 39.0665 59.8999 38.8827V32.7733L63.1449 35.726C63.3162 35.8817 63.5393 35.9681 63.7708 35.9682H63.8383C63.964 35.9591 64.0866 35.9244 64.1986 35.8664C64.3105 35.8084 64.4096 35.7283 64.4896 35.6309L67.7894 31.6093C67.9401 31.4254 68.0146 31.1908 67.9976 30.9536C67.9806 30.7165 67.8734 30.4949 67.698 30.3343V30.3343ZM14.6081 66.1406H9.95941V61.905H14.6081V66.1406ZM14.6081 60.0456H8.89685C8.31562 60.0456 7.75819 59.8147 7.3472 59.4037C6.9362 58.9928 6.70531 58.4354 6.70531 57.8542C6.70531 57.273 6.9362 56.7156 7.3472 56.3046C7.75819 55.8936 8.31562 55.6628 8.89685 55.6628H14.6081V60.0456ZM14.6081 53.8034H9.95941V46.9051H14.6081V53.8034ZM14.6081 45.0457H8.89685C8.31562 45.0457 7.75819 44.8148 7.3472 44.4039C6.9362 43.9929 6.70531 43.4355 6.70531 42.8543C6.70531 42.2731 6.9362 41.7157 7.3472 41.3048C7.75819 40.8938 8.31562 40.6629 8.89685 40.6629H14.6081V45.0457ZM30.4137 45.9754V66.1406H16.4676V40.6629H30.4137V45.9754ZM15.5379 38.8035H9.95941V31.9047H58.0404V38.8035H15.5379ZM52.0847 25.6625L56.9024 30.0453H11.0985L15.9161 25.6625H52.0847ZM17.9605 23.8031L33.9999 9.20915L50.0404 23.8031H17.9605ZM53.3917 46.9051H58.0393V53.8034H53.3917V46.9051ZM45.4899 49.4243V40.6629H51.5322V49.4243H45.4899ZM51.5322 51.2837V60.0456H45.4899V51.2837H51.5322ZM37.5861 49.4243V40.6629H43.6304V49.4243H37.5861ZM43.6294 51.2837V60.0456H37.5871V51.2837H43.6294ZM32.2711 53.8034V46.9051H35.7244V53.8034H32.2711ZM35.7244 55.6628V60.0456H32.2711V55.6628H35.7244ZM32.2711 45.0457V40.6629H35.7244V45.0457H32.2711ZM58.0383 66.1406H32.2711V61.905H58.0383V66.1406ZM61.2924 57.8531C61.2917 58.4341 61.0605 58.9911 60.6497 59.4019C60.2389 59.8127 59.6818 60.0438 59.1008 60.0445H53.3917V55.6617H59.103C59.684 55.6624 60.241 55.8935 60.6518 56.3043C61.0627 56.7151 61.2938 57.2721 61.2945 57.8531H61.2924ZM61.2924 42.8533C61.2917 43.4342 61.0605 43.9912 60.6497 44.402C60.2389 44.8129 59.6818 45.044 59.1008 45.0447H53.3917V40.6618H59.103C59.6842 40.6625 60.2413 40.8938 60.6522 41.3048C61.0631 41.7159 61.2941 42.2731 61.2945 42.8543L61.2924 42.8533ZM63.6709 33.6913L59.5944 29.9826L53.0697 24.0449L34.6258 7.26424C34.4545 7.10865 34.2313 7.02244 33.9999 7.02244C33.7685 7.02244 33.5454 7.10865 33.374 7.26424L14.9311 24.0443L8.40382 29.9832L4.32676 33.6924L2.20695 31.1121L33.9999 2.18655L65.7929 31.1121L63.6709 33.6913Z" fill="#C8996B"/>
<path d="M27.0928 56.2634C27.3394 56.2634 27.5759 56.1655 27.7503 55.9911C27.9246 55.8168 28.0226 55.5803 28.0226 55.3337V51.25C28.0226 51.0034 27.9246 50.767 27.7503 50.5926C27.5759 50.4183 27.3394 50.3203 27.0928 50.3203C26.8462 50.3203 26.6098 50.4183 26.4354 50.5926C26.261 50.767 26.1631 51.0034 26.1631 51.25V55.3337C26.163 55.4558 26.187 55.5768 26.2337 55.6896C26.2804 55.8024 26.3489 55.9049 26.4352 55.9913C26.5216 56.0776 26.6241 56.1461 26.7369 56.1928C26.8498 56.2395 26.9707 56.2635 27.0928 56.2634V56.2634Z" fill="#C8996B"/>
</svg>
